<?xml version="1.0" encoding="UTF-8" standalone="no"?>
<!DOCTYPE svg PUBLIC "-//W3C//DTD SVG 1.1//EN"
 "http://www.w3.org/Graphics/SVG/1.1/DTD/svg11.dtd">
<!-- Generated by graphviz version 7.0.5 (20221223.1930)
 -->
<!-- Title: tson::Json11 Pages: 1 -->
<svg width="967pt" height="279pt"
 viewBox="0.00 0.00 967.00 279.00" xmlns="http://www.w3.org/2000/svg" xmlns:xlink="http://www.w3.org/1999/xlink">
<g id="graph0" class="graph" transform="scale(1 1) rotate(0) translate(4 275)">
<title>tson::Json11</title>
<!-- Node1 -->
<g id="node1" class="node">
<title>Node1</title>
<g id="a_node1"><a xlink:title=" ">
<polygon fill="#999999" stroke="#666666" points="959,-160.5 888,-160.5 888,-141.5 959,-141.5 959,-160.5"/>
<text text-anchor="middle" x="923.5" y="-148.5" font-family="Helvetica,sans-Serif" font-size="10.00">tson::Json11</text>
</a>
</g>
</g>
<!-- Node2 -->
<g id="node2" class="node">
<title>Node2</title>
<g id="a_node2"><a xlink:href="classtson_1_1_i_json.html" target="_top" xlink:title=" ">
<polygon fill="white" stroke="#bfbfbf" points="79.5,-265.5 15.5,-265.5 15.5,-246.5 79.5,-246.5 79.5,-265.5"/>
<text text-anchor="middle" x="47.5" y="-253.5" font-family="Helvetica,sans-Serif" font-size="10.00">tson::IJson</text>
</a>
</g>
</g>
<!-- Node2&#45;&gt;Node1 -->
<g id="edge1" class="edge">
<title>Node2&#45;&gt;Node1</title>
<path fill="none" stroke="#63b8ff" d="M91.18,-262.4C122.03,-266.48 164.75,-271 202.5,-271 202.5,-271 202.5,-271 691.5,-271 775.63,-271 799.76,-254.31 870,-208 889.54,-195.11 906.77,-173.41 915.81,-160.83"/>
<polygon fill="#63b8ff" stroke="#63b8ff" points="91.85,-258.96 81.47,-261.07 90.91,-265.9 91.85,-258.96"/>
</g>
<!-- Node10 -->
<g id="node10" class="node">
<title>Node10</title>
<g id="a_node10"><a xlink:title=" ">
<polygon fill="white" stroke="#666666" points="257,-226 150,-226 150,-196 257,-196 257,-226"/>
<text text-anchor="start" x="158" y="-214" font-family="Helvetica,sans-Serif" font-size="10.00">std::unique_ptr&lt; tson</text>
<text text-anchor="middle" x="203.5" y="-203" font-family="Helvetica,sans-Serif" font-size="10.00">::IJson &gt;</text>
</a>
</g>
</g>
<!-- Node2&#45;&gt;Node10 -->
<g id="edge11" class="edge">
<title>Node2&#45;&gt;Node10</title>
<path fill="none" stroke="#9a32cd" stroke-dasharray="5,2" d="M90.52,-243.72C108.73,-238.4 130.26,-232.11 149.54,-226.47"/>
<polygon fill="#9a32cd" stroke="#9a32cd" points="89.73,-240.3 81.12,-246.47 91.7,-247.02 89.73,-240.3"/>
<text text-anchor="middle" x="120" y="-239" font-family="Helvetica,sans-Serif" font-size="10.00"> ptr</text>
</g>
<!-- Node3 -->
<g id="node3" class="node">
<title>Node3</title>
<g id="a_node3"><a xlink:title=" ">
<polygon fill="white" stroke="#666666" points="748.5,-30 632.5,-30 632.5,0 748.5,0 748.5,-30"/>
<text text-anchor="start" x="640.5" y="-18" font-family="Helvetica,sans-Serif" font-size="10.00">std::unique_ptr&lt; json11</text>
<text text-anchor="middle" x="690.5" y="-7" font-family="Helvetica,sans-Serif" font-size="10.00">::Json &gt;</text>
</a>
</g>
</g>
<!-- Node3&#45;&gt;Node1 -->
<g id="edge2" class="edge">
<title>Node3&#45;&gt;Node1</title>
<path fill="none" stroke="#9a32cd" stroke-dasharray="5,2" d="M760.33,-10.24C796.14,-11.19 838.83,-18.03 870,-41 904.07,-66.11 916.95,-119.12 920.95,-141.12"/>
<polygon fill="#9a32cd" stroke="#9a32cd" points="760.51,-6.75 750.48,-10.15 760.44,-13.74 760.51,-6.75"/>
<text text-anchor="middle" x="819" y="-44" font-family="Helvetica,sans-Serif" font-size="10.00"> m_data</text>
</g>
<!-- Node4 -->
<g id="node4" class="node">
<title>Node4</title>
<g id="a_node4"><a xlink:href="classjson11_1_1_json.html" target="_top" xlink:title=" ">
<polygon fill="white" stroke="#bfbfbf" points="434.5,-49.5 363.5,-49.5 363.5,-30.5 434.5,-30.5 434.5,-49.5"/>
<text text-anchor="middle" x="399" y="-37.5" font-family="Helvetica,sans-Serif" font-size="10.00">json11::Json</text>
</a>
</g>
</g>
<!-- Node4&#45;&gt;Node1 -->
<g id="edge6" class="edge">
<title>Node4&#45;&gt;Node1</title>
<path fill="none" stroke="#9a32cd" stroke-dasharray="5,2" d="M446.07,-45.69C455.63,-46.82 465.64,-47.98 475,-49 597.09,-62.32 630.38,-48.2 750,-76 805.48,-88.89 818.44,-96.79 870,-121 882.73,-126.98 896.52,-134.92 906.77,-141.13"/>
<polygon fill="#9a32cd" stroke="#9a32cd" points="446.56,-42.22 436.21,-44.5 445.72,-49.17 446.56,-42.22"/>
<text text-anchor="middle" x="690.5" y="-79" font-family="Helvetica,sans-Serif" font-size="10.00"> m_json</text>
</g>
<!-- Node4&#45;&gt;Node3 -->
<g id="edge3" class="edge">
<title>Node4&#45;&gt;Node3</title>
<path fill="none" stroke="#9a32cd" stroke-dasharray="5,2" d="M446.14,-36.02C496.66,-31.65 577.72,-24.65 632.26,-19.94"/>
<polygon fill="#9a32cd" stroke="#9a32cd" points="446.09,-32.51 436.43,-36.85 446.69,-39.48 446.09,-32.51"/>
<text text-anchor="middle" x="544" y="-37" font-family="Helvetica,sans-Serif" font-size="10.00"> ptr</text>
</g>
<!-- Node5 -->
<g id="node5" class="node">
<title>Node5</title>
<g id="a_node5"><a xlink:title=" ">
<polygon fill="white" stroke="#666666" points="262,-55 145,-55 145,-25 262,-25 262,-55"/>
<text text-anchor="start" x="153" y="-43" font-family="Helvetica,sans-Serif" font-size="10.00">std::shared_ptr&lt; json11</text>
<text text-anchor="middle" x="203.5" y="-32" font-family="Helvetica,sans-Serif" font-size="10.00">::JsonValue &gt;</text>
</a>
</g>
</g>
<!-- Node5&#45;&gt;Node4 -->
<g id="edge4" class="edge">
<title>Node5&#45;&gt;Node4</title>
<path fill="none" stroke="#9a32cd" stroke-dasharray="5,2" d="M273.71,-40C304.07,-40 338.37,-40 363.24,-40"/>
<polygon fill="#9a32cd" stroke="#9a32cd" points="273.81,-36.5 263.81,-40 273.81,-43.5 273.81,-36.5"/>
<text text-anchor="middle" x="301.5" y="-43" font-family="Helvetica,sans-Serif" font-size="10.00"> m_ptr</text>
</g>
<!-- Node6 -->
<g id="node6" class="node">
<title>Node6</title>
<g id="a_node6"><a xlink:href="classjson11_1_1_json_value.html" target="_top" xlink:title=" ">
<polygon fill="white" stroke="#bfbfbf" points="95,-49.5 0,-49.5 0,-30.5 95,-30.5 95,-49.5"/>
<text text-anchor="middle" x="47.5" y="-37.5" font-family="Helvetica,sans-Serif" font-size="10.00">json11::JsonValue</text>
</a>
</g>
</g>
<!-- Node6&#45;&gt;Node5 -->
<g id="edge5" class="edge">
<title>Node6&#45;&gt;Node5</title>
<path fill="none" stroke="#9a32cd" stroke-dasharray="5,2" d="M106.36,-40C118.87,-40 132.09,-40 144.59,-40"/>
<polygon fill="#9a32cd" stroke="#9a32cd" points="106.64,-36.5 96.64,-40 106.64,-43.5 106.64,-36.5"/>
<text text-anchor="middle" x="120" y="-43" font-family="Helvetica,sans-Serif" font-size="10.00"> ptr</text>
</g>
<!-- Node7 -->
<g id="node7" class="node">
<title>Node7</title>
<g id="a_node7"><a xlink:title=" ">
<polygon fill="white" stroke="#666666" points="745,-195.5 636,-195.5 636,-154.5 745,-154.5 745,-195.5"/>
<text text-anchor="start" x="644" y="-183.5" font-family="Helvetica,sans-Serif" font-size="10.00">std::map&lt; std::string,</text>
<text text-anchor="start" x="644" y="-172.5" font-family="Helvetica,sans-Serif" font-size="10.00"> std::unique_ptr&lt; tson</text>
<text text-anchor="middle" x="690.5" y="-161.5" font-family="Helvetica,sans-Serif" font-size="10.00">::IJson &gt; &gt;</text>
</a>
</g>
</g>
<!-- Node7&#45;&gt;Node1 -->
<g id="edge7" class="edge">
<title>Node7&#45;&gt;Node1</title>
<path fill="none" stroke="#9a32cd" stroke-dasharray="5,2" d="M756.75,-168.22C799.25,-163.8 853.03,-158.22 887.6,-154.63"/>
<polygon fill="#9a32cd" stroke="#9a32cd" points="756.46,-164.73 746.87,-169.25 757.18,-171.69 756.46,-164.73"/>
<text text-anchor="middle" x="819" y="-169" font-family="Helvetica,sans-Serif" font-size="10.00"> m_arrayCache</text>
</g>
<!-- Node8 -->
<g id="node8" class="node">
<title>Node8</title>
<g id="a_node8"><a xlink:title=" ">
<polygon fill="white" stroke="#666666" points="428.5,-109.5 369.5,-109.5 369.5,-90.5 428.5,-90.5 428.5,-109.5"/>
<text text-anchor="middle" x="399" y="-97.5" font-family="Helvetica,sans-Serif" font-size="10.00">std::string</text>
</a>
</g>
</g>
<!-- Node8&#45;&gt;Node7 -->
<g id="edge8" class="edge">
<title>Node8&#45;&gt;Node7</title>
<path fill="none" stroke="#9a32cd" stroke-dasharray="5,2" d="M440.15,-106.48C451.42,-108.29 463.69,-110.23 475,-112 536.3,-121.57 555.58,-109.51 613,-133 622.13,-136.74 622.55,-140.9 631,-146 635.56,-148.75 640.42,-151.47 645.31,-154.08"/>
<polygon fill="#9a32cd" stroke="#9a32cd" points="440.76,-103.04 430.33,-104.91 439.65,-109.95 440.76,-103.04"/>
<text text-anchor="middle" x="544" y="-136" font-family="Helvetica,sans-Serif" font-size="10.00"> keys</text>
</g>
<!-- Node12 -->
<g id="node12" class="node">
<title>Node12</title>
<g id="a_node12"><a xlink:title=" ">
<polygon fill="white" stroke="#666666" points="750,-136.5 631,-136.5 631,-95.5 750,-95.5 750,-136.5"/>
<text text-anchor="start" x="639" y="-124.5" font-family="Helvetica,sans-Serif" font-size="10.00">std::map&lt; std::string,</text>
<text text-anchor="start" x="639" y="-113.5" font-family="Helvetica,sans-Serif" font-size="10.00"> std::vector&lt; std::unique</text>
<text text-anchor="middle" x="690.5" y="-102.5" font-family="Helvetica,sans-Serif" font-size="10.00">_ptr&lt; tson::IJson &gt; &gt; &gt;</text>
</a>
</g>
</g>
<!-- Node8&#45;&gt;Node12 -->
<g id="edge15" class="edge">
<title>Node8&#45;&gt;Node12</title>
<path fill="none" stroke="#9a32cd" stroke-dasharray="5,2" d="M440.03,-97.94C482.93,-96.26 552.96,-95.03 613,-101 618.79,-101.58 624.8,-102.38 630.78,-103.32"/>
<polygon fill="#9a32cd" stroke="#9a32cd" points="440.04,-94.44 430.2,-98.36 440.34,-101.43 440.04,-94.44"/>
<text text-anchor="middle" x="544" y="-104" font-family="Helvetica,sans-Serif" font-size="10.00"> keys</text>
</g>
<!-- Node9 -->
<g id="node9" class="node">
<title>Node9</title>
<g id="a_node9"><a xlink:title=" ">
<polygon fill="white" stroke="#666666" points="250,-115 157,-115 157,-85 250,-85 250,-115"/>
<text text-anchor="start" x="165" y="-103" font-family="Helvetica,sans-Serif" font-size="10.00">std::basic_string&lt;</text>
<text text-anchor="middle" x="203.5" y="-92" font-family="Helvetica,sans-Serif" font-size="10.00"> Char &gt;</text>
</a>
</g>
</g>
<!-- Node9&#45;&gt;Node8 -->
<g id="edge9" class="edge">
<title>Node9&#45;&gt;Node8</title>
<path fill="none" stroke="#63b8ff" d="M261.53,-100C296.95,-100 340.97,-100 369.28,-100"/>
<polygon fill="#63b8ff" stroke="#63b8ff" points="261.87,-96.5 251.87,-100 261.87,-103.5 261.87,-96.5"/>
</g>
<!-- Node10&#45;&gt;Node7 -->
<g id="edge10" class="edge">
<title>Node10&#45;&gt;Node7</title>
<path fill="none" stroke="#9a32cd" stroke-dasharray="5,2" d="M268.66,-206.24C365.08,-199.08 545.63,-185.68 635.63,-179"/>
<polygon fill="#9a32cd" stroke="#9a32cd" points="268.55,-202.74 258.84,-206.97 269.07,-209.72 268.55,-202.74"/>
<text text-anchor="middle" x="399" y="-203" font-family="Helvetica,sans-Serif" font-size="10.00"> elements</text>
</g>
<!-- Node11 -->
<g id="node11" class="node">
<title>Node11</title>
<g id="a_node11"><a xlink:title=" ">
<polygon fill="white" stroke="#666666" points="613,-247 475,-247 475,-217 613,-217 613,-247"/>
<text text-anchor="start" x="483" y="-235" font-family="Helvetica,sans-Serif" font-size="10.00">std::map&lt; size_t, std</text>
<text text-anchor="middle" x="544" y="-224" font-family="Helvetica,sans-Serif" font-size="10.00">::unique_ptr&lt; tson::IJson &gt; &gt;</text>
</a>
</g>
</g>
<!-- Node10&#45;&gt;Node11 -->
<g id="edge13" class="edge">
<title>Node10&#45;&gt;Node11</title>
<path fill="none" stroke="#9a32cd" stroke-dasharray="5,2" d="M268.78,-214.99C327.67,-218.64 414.58,-224.03 474.7,-227.76"/>
<polygon fill="#9a32cd" stroke="#9a32cd" points="269.1,-211.5 258.9,-214.37 268.67,-218.49 269.1,-211.5"/>
<text text-anchor="middle" x="301.5" y="-220" font-family="Helvetica,sans-Serif" font-size="10.00"> elements</text>
</g>
<!-- Node13 -->
<g id="node13" class="node">
<title>Node13</title>
<g id="a_node13"><a xlink:title=" ">
<polygon fill="white" stroke="#666666" points="457,-158 341,-158 341,-128 457,-128 457,-158"/>
<text text-anchor="start" x="349" y="-146" font-family="Helvetica,sans-Serif" font-size="10.00">std::vector&lt; std::unique</text>
<text text-anchor="middle" x="399" y="-135" font-family="Helvetica,sans-Serif" font-size="10.00">_ptr&lt; tson::IJson &gt; &gt;</text>
</a>
</g>
</g>
<!-- Node10&#45;&gt;Node13 -->
<g id="edge17" class="edge">
<title>Node10&#45;&gt;Node13</title>
<path fill="none" stroke="#9a32cd" stroke-dasharray="5,2" d="M237.85,-189.7C250.63,-182.28 265.61,-174.45 280,-169 299.22,-161.71 321.02,-156.2 340.61,-152.16"/>
<polygon fill="#9a32cd" stroke="#9a32cd" points="236.2,-186.61 229.41,-194.74 239.79,-192.61 236.2,-186.61"/>
<text text-anchor="middle" x="301.5" y="-172" font-family="Helvetica,sans-Serif" font-size="10.00"> elements</text>
</g>
<!-- Node11&#45;&gt;Node1 -->
<g id="edge12" class="edge">
<title>Node11&#45;&gt;Node1</title>
<path fill="none" stroke="#9a32cd" stroke-dasharray="5,2" d="M624.66,-228.47C691.89,-223.4 789.73,-211.05 870,-181 883.76,-175.85 898.17,-167.36 908.41,-160.72"/>
<polygon fill="#9a32cd" stroke="#9a32cd" points="624.54,-224.97 614.82,-229.17 625.04,-231.95 624.54,-224.97"/>
<text text-anchor="middle" x="690.5" y="-230" font-family="Helvetica,sans-Serif" font-size="10.00"> m_arrayPosCache</text>
</g>
<!-- Node12&#45;&gt;Node1 -->
<g id="edge14" class="edge">
<title>Node12&#45;&gt;Node1</title>
<path fill="none" stroke="#9a32cd" stroke-dasharray="5,2" d="M761.65,-125.02C794.6,-129.46 834.37,-135.12 870,-141 875.68,-141.94 881.68,-143.01 887.52,-144.09"/>
<polygon fill="#9a32cd" stroke="#9a32cd" points="762.17,-121.55 751.8,-123.7 761.25,-128.49 762.17,-121.55"/>
<text text-anchor="middle" x="819" y="-144" font-family="Helvetica,sans-Serif" font-size="10.00"> m_arrayListDataCache</text>
</g>
<!-- Node13&#45;&gt;Node12 -->
<g id="edge16" class="edge">
<title>Node13&#45;&gt;Node12</title>
<path fill="none" stroke="#9a32cd" stroke-dasharray="5,2" d="M468.72,-150.89C510.74,-154 565.4,-155 613,-146 623.37,-144.04 634.14,-140.7 644.21,-136.96"/>
<polygon fill="#9a32cd" stroke="#9a32cd" points="469.25,-147.42 459,-150.1 468.69,-154.39 469.25,-147.42"/>
<text text-anchor="middle" x="544" y="-156" font-family="Helvetica,sans-Serif" font-size="10.00"> elements</text>
</g>
</g>
</svg>
