<?xml version="1.0" encoding="UTF-8" standalone="no"?>
<!DOCTYPE svg PUBLIC "-//W3C//DTD SVG 1.1//EN"
 "http://www.w3.org/Graphics/SVG/1.1/DTD/svg11.dtd">
<!-- Generated by graphviz version 7.0.5 (20221223.1930)
 -->
<!-- Title: tson::MemoryStream Pages: 1 -->
<svg width="237pt" height="272pt"
 viewBox="0.00 0.00 237.00 272.00" xmlns="http://www.w3.org/2000/svg" xmlns:xlink="http://www.w3.org/1999/xlink">
<g id="graph0" class="graph" transform="scale(1 1) rotate(0) translate(4 268)">
<title>tson::MemoryStream</title>
<!-- Node1 -->
<g id="node1" class="node">
<title>Node1</title>
<g id="a_node1"><a xlink:title=" ">
<polygon fill="#999999" stroke="#666666" points="170.5,-19 64.5,-19 64.5,0 170.5,0 170.5,-19"/>
<text text-anchor="middle" x="117.5" y="-7" font-family="Helvetica,sans-Serif" font-size="10.00">tson::MemoryStream</text>
</a>
</g>
</g>
<!-- Node2 -->
<g id="node2" class="node">
<title>Node2</title>
<g id="a_node2"><a xlink:title=" ">
<polygon fill="white" stroke="#666666" points="101,-85 34,-85 34,-66 101,-66 101,-85"/>
<text text-anchor="middle" x="67.5" y="-73" font-family="Helvetica,sans-Serif" font-size="10.00">std::istream</text>
</a>
</g>
</g>
<!-- Node2&#45;&gt;Node1 -->
<g id="edge1" class="edge">
<title>Node2&#45;&gt;Node1</title>
<path fill="none" stroke="#63b8ff" d="M81.36,-56.76C90.87,-44.58 103.09,-28.94 110.61,-19.32"/>
<polygon fill="#63b8ff" stroke="#63b8ff" points="78.78,-54.37 75.38,-64.41 84.3,-58.68 78.78,-54.37"/>
</g>
<!-- Node3 -->
<g id="node3" class="node">
<title>Node3</title>
<g id="a_node3"><a xlink:title=" ">
<polygon fill="white" stroke="#666666" points="104,-152 9,-152 9,-122 104,-122 104,-152"/>
<text text-anchor="start" x="17" y="-140" font-family="Helvetica,sans-Serif" font-size="10.00">std::basic_istream</text>
<text text-anchor="middle" x="56.5" y="-129" font-family="Helvetica,sans-Serif" font-size="10.00">&lt; Char &gt;</text>
</a>
</g>
</g>
<!-- Node3&#45;&gt;Node2 -->
<g id="edge2" class="edge">
<title>Node3&#45;&gt;Node2</title>
<path fill="none" stroke="#63b8ff" d="M61.23,-110.43C62.88,-101.51 64.62,-92.07 65.85,-85.42"/>
<polygon fill="#63b8ff" stroke="#63b8ff" points="57.81,-109.64 59.44,-120.11 64.7,-110.91 57.81,-109.64"/>
</g>
<!-- Node4 -->
<g id="node4" class="node">
<title>Node4</title>
<g id="a_node4"><a xlink:title=" ">
<polygon fill="white" stroke="#666666" points="113,-208 0,-208 0,-189 113,-189 113,-208"/>
<text text-anchor="middle" x="56.5" y="-196" font-family="Helvetica,sans-Serif" font-size="10.00">std::basic_ios&lt; Char &gt;</text>
</a>
</g>
</g>
<!-- Node4&#45;&gt;Node3 -->
<g id="edge3" class="edge">
<title>Node4&#45;&gt;Node3</title>
<path fill="none" stroke="#63b8ff" d="M56.5,-177.46C56.5,-169.23 56.5,-159.89 56.5,-152.36"/>
<polygon fill="#63b8ff" stroke="#63b8ff" points="53,-177.21 56.5,-187.21 60,-177.21 53,-177.21"/>
</g>
<!-- Node5 -->
<g id="node5" class="node">
<title>Node5</title>
<g id="a_node5"><a xlink:title=" ">
<polygon fill="white" stroke="#666666" points="93.5,-264 19.5,-264 19.5,-245 93.5,-245 93.5,-264"/>
<text text-anchor="middle" x="56.5" y="-252" font-family="Helvetica,sans-Serif" font-size="10.00">std::ios_base</text>
</a>
</g>
</g>
<!-- Node5&#45;&gt;Node4 -->
<g id="edge4" class="edge">
<title>Node5&#45;&gt;Node4</title>
<path fill="none" stroke="#63b8ff" d="M56.5,-233.11C56.5,-224.52 56.5,-214.97 56.5,-208.25"/>
<polygon fill="#63b8ff" stroke="#63b8ff" points="53,-233.07 56.5,-243.07 60,-233.07 53,-233.07"/>
</g>
<!-- Node6 -->
<g id="node6" class="node">
<title>Node6</title>
<g id="a_node6"><a xlink:href="classtson_1_1_memory_buffer.html" target="_top" xlink:title=" ">
<polygon fill="white" stroke="#bfbfbf" points="223.5,-85 123.5,-85 123.5,-66 223.5,-66 223.5,-85"/>
<text text-anchor="middle" x="173.5" y="-73" font-family="Helvetica,sans-Serif" font-size="10.00">tson::MemoryBuffer</text>
</a>
</g>
</g>
<!-- Node6&#45;&gt;Node1 -->
<g id="edge5" class="edge">
<title>Node6&#45;&gt;Node1</title>
<path fill="none" stroke="#9a32cd" stroke-dasharray="5,2" d="M158.29,-57.12C147.59,-44.89 133.72,-29.04 125.22,-19.32"/>
<polygon fill="#9a32cd" stroke="#9a32cd" points="155.5,-59.24 164.72,-64.46 160.77,-54.63 155.5,-59.24"/>
<text text-anchor="middle" x="169.5" y="-40" font-family="Helvetica,sans-Serif" font-size="10.00"> m_buffer</text>
</g>
<!-- Node7 -->
<g id="node7" class="node">
<title>Node7</title>
<g id="a_node7"><a xlink:title=" ">
<polygon fill="white" stroke="#bfbfbf" points="229,-152 122,-152 122,-122 229,-122 229,-152"/>
<text text-anchor="start" x="130" y="-140" font-family="Helvetica,sans-Serif" font-size="10.00">std::basic_streambuf</text>
<text text-anchor="middle" x="175.5" y="-129" font-family="Helvetica,sans-Serif" font-size="10.00">&lt; char &gt;</text>
</a>
</g>
</g>
<!-- Node7&#45;&gt;Node6 -->
<g id="edge6" class="edge">
<title>Node7&#45;&gt;Node6</title>
<path fill="none" stroke="#63b8ff" d="M174.63,-110.13C174.33,-101.29 174.02,-91.99 173.8,-85.42"/>
<polygon fill="#63b8ff" stroke="#63b8ff" points="171.13,-110.21 174.96,-120.08 178.13,-109.97 171.13,-110.21"/>
</g>
</g>
</svg>
