<?xml version="1.0" encoding="UTF-8" standalone="no"?>
<!DOCTYPE svg PUBLIC "-//W3C//DTD SVG 1.1//EN"
 "http://www.w3.org/Graphics/SVG/1.1/DTD/svg11.dtd">
<!-- Generated by graphviz version 7.0.5 (20221223.1930)
 -->
<!-- Title: tson::Text Pages: 1 -->
<svg width="211pt" height="171pt"
 viewBox="0.00 0.00 210.50 171.00" xmlns="http://www.w3.org/2000/svg" xmlns:xlink="http://www.w3.org/1999/xlink">
<g id="graph0" class="graph" transform="scale(1 1) rotate(0) translate(4 167)">
<title>tson::Text</title>
<!-- Node1 -->
<g id="node1" class="node">
<title>Node1</title>
<g id="a_node1"><a xlink:title=" ">
<polygon fill="#999999" stroke="#666666" points="127,-19 68,-19 68,0 127,0 127,-19"/>
<text text-anchor="middle" x="97.5" y="-7" font-family="Helvetica,sans-Serif" font-size="10.00">tson::Text</text>
</a>
</g>
</g>
<!-- Node2 -->
<g id="node2" class="node">
<title>Node2</title>
<g id="a_node2"><a xlink:title=" ">
<polygon fill="white" stroke="#666666" points="76,-96 17,-96 17,-77 76,-77 76,-96"/>
<text text-anchor="middle" x="46.5" y="-84" font-family="Helvetica,sans-Serif" font-size="10.00">std::string</text>
</a>
</g>
</g>
<!-- Node2&#45;&gt;Node1 -->
<g id="edge1" class="edge">
<title>Node2&#45;&gt;Node1</title>
<path fill="none" stroke="#9a32cd" stroke-dasharray="5,2" d="M58.29,-67.27C64.26,-58.12 71.68,-46.92 78.5,-37 82.61,-31.03 87.36,-24.41 91.08,-19.27"/>
<polygon fill="#9a32cd" stroke="#9a32cd" points="55.4,-65.29 52.89,-75.58 61.27,-69.1 55.4,-65.29"/>
<text text-anchor="middle" x="102.5" y="-51" font-family="Helvetica,sans-Serif" font-size="10.00"> fontFamily</text>
<text text-anchor="middle" x="102.5" y="-40" font-family="Helvetica,sans-Serif" font-size="10.00">text</text>
</g>
<!-- Node3 -->
<g id="node3" class="node">
<title>Node3</title>
<g id="a_node3"><a xlink:title=" ">
<polygon fill="white" stroke="#666666" points="93,-163 0,-163 0,-133 93,-133 93,-163"/>
<text text-anchor="start" x="8" y="-151" font-family="Helvetica,sans-Serif" font-size="10.00">std::basic_string&lt;</text>
<text text-anchor="middle" x="46.5" y="-140" font-family="Helvetica,sans-Serif" font-size="10.00"> Char &gt;</text>
</a>
</g>
</g>
<!-- Node3&#45;&gt;Node2 -->
<g id="edge2" class="edge">
<title>Node3&#45;&gt;Node2</title>
<path fill="none" stroke="#63b8ff" d="M46.5,-121.13C46.5,-112.29 46.5,-102.99 46.5,-96.42"/>
<polygon fill="#63b8ff" stroke="#63b8ff" points="43,-121.08 46.5,-131.08 50,-121.08 43,-121.08"/>
</g>
<!-- Node4 -->
<g id="node4" class="node">
<title>Node4</title>
<g id="a_node4"><a xlink:href="classtson_1_1_color.html" target="_top" xlink:title=" ">
<polygon fill="white" stroke="#bfbfbf" points="202.5,-96 94.5,-96 94.5,-77 202.5,-77 202.5,-96"/>
<text text-anchor="middle" x="148.5" y="-84" font-family="Helvetica,sans-Serif" font-size="10.00">tson::Color&lt; uint8_t &gt;</text>
</a>
</g>
</g>
<!-- Node4&#45;&gt;Node1 -->
<g id="edge3" class="edge">
<title>Node4&#45;&gt;Node1</title>
<path fill="none" stroke="#9a32cd" stroke-dasharray="5,2" d="M141.81,-66.14C138.1,-56.85 132.92,-45.84 126.5,-37 121.69,-30.38 115.02,-24.14 109.29,-19.38"/>
<polygon fill="#9a32cd" stroke="#9a32cd" points="138.45,-67.12 145.2,-75.28 145.01,-64.69 138.45,-67.12"/>
<text text-anchor="middle" x="150.5" y="-45.5" font-family="Helvetica,sans-Serif" font-size="10.00"> color</text>
</g>
</g>
</svg>
