<?xml version="1.0" encoding="UTF-8" standalone="no"?>
<!DOCTYPE svg PUBLIC "-//W3C//DTD SVG 1.1//EN"
 "http://www.w3.org/Graphics/SVG/1.1/DTD/svg11.dtd">
<!-- Generated by graphviz version 7.0.5 (20221223.1930)
 -->
<!-- Title: tson::Chunk Pages: 1 -->
<svg width="293pt" height="171pt"
 viewBox="0.00 0.00 293.00 171.00" xmlns="http://www.w3.org/2000/svg" xmlns:xlink="http://www.w3.org/1999/xlink">
<g id="graph0" class="graph" transform="scale(1 1) rotate(0) translate(4 167)">
<title>tson::Chunk</title>
<!-- Node1 -->
<g id="node1" class="node">
<title>Node1</title>
<g id="a_node1"><a xlink:title=" ">
<polygon fill="#999999" stroke="#666666" points="170.5,-19 102.5,-19 102.5,0 170.5,0 170.5,-19"/>
<text text-anchor="middle" x="136.5" y="-7" font-family="Helvetica,sans-Serif" font-size="10.00">tson::Chunk</text>
</a>
</g>
</g>
<!-- Node2 -->
<g id="node2" class="node">
<title>Node2</title>
<g id="a_node2"><a xlink:title=" ">
<polygon fill="white" stroke="#666666" points="89,-96 0,-96 0,-77 89,-77 89,-96"/>
<text text-anchor="middle" x="44.5" y="-84" font-family="Helvetica,sans-Serif" font-size="10.00">std::vector&lt; int &gt;</text>
</a>
</g>
</g>
<!-- Node2&#45;&gt;Node1 -->
<g id="edge1" class="edge">
<title>Node2&#45;&gt;Node1</title>
<path fill="none" stroke="#9a32cd" stroke-dasharray="5,2" d="M61.15,-69.11C71.32,-59.39 84.79,-47.05 97.5,-37 105.46,-30.7 114.86,-24.29 122.44,-19.35"/>
<polygon fill="#9a32cd" stroke="#9a32cd" points="58.99,-66.33 54.24,-75.8 63.86,-71.36 58.99,-66.33"/>
<text text-anchor="middle" x="115" y="-45.5" font-family="Helvetica,sans-Serif" font-size="10.00"> m_data</text>
</g>
<!-- Node3 -->
<g id="node3" class="node">
<title>Node3</title>
<g id="a_node3"><a xlink:title=" ">
<polygon fill="white" stroke="#666666" points="166,-96 107,-96 107,-77 166,-77 166,-96"/>
<text text-anchor="middle" x="136.5" y="-84" font-family="Helvetica,sans-Serif" font-size="10.00">std::string</text>
</a>
</g>
</g>
<!-- Node3&#45;&gt;Node1 -->
<g id="edge2" class="edge">
<title>Node3&#45;&gt;Node1</title>
<path fill="none" stroke="#9a32cd" stroke-dasharray="5,2" d="M136.5,-65.42C136.5,-50.43 136.5,-30.66 136.5,-19.39"/>
<polygon fill="#9a32cd" stroke="#9a32cd" points="133,-65.09 136.5,-75.09 140,-65.09 133,-65.09"/>
<text text-anchor="middle" x="170.5" y="-45.5" font-family="Helvetica,sans-Serif" font-size="10.00"> m_base64Data</text>
</g>
<!-- Node4 -->
<g id="node4" class="node">
<title>Node4</title>
<g id="a_node4"><a xlink:title=" ">
<polygon fill="white" stroke="#666666" points="183,-163 90,-163 90,-133 183,-133 183,-163"/>
<text text-anchor="start" x="98" y="-151" font-family="Helvetica,sans-Serif" font-size="10.00">std::basic_string&lt;</text>
<text text-anchor="middle" x="136.5" y="-140" font-family="Helvetica,sans-Serif" font-size="10.00"> Char &gt;</text>
</a>
</g>
</g>
<!-- Node4&#45;&gt;Node3 -->
<g id="edge3" class="edge">
<title>Node4&#45;&gt;Node3</title>
<path fill="none" stroke="#63b8ff" d="M136.5,-121.13C136.5,-112.29 136.5,-102.99 136.5,-96.42"/>
<polygon fill="#63b8ff" stroke="#63b8ff" points="133,-121.08 136.5,-131.08 140,-121.08 133,-121.08"/>
</g>
<!-- Node5 -->
<g id="node5" class="node">
<title>Node5</title>
<g id="a_node5"><a xlink:href="classtson_1_1_vector2.html" target="_top" xlink:title=" ">
<polygon fill="white" stroke="#bfbfbf" points="285,-96 184,-96 184,-77 285,-77 285,-96"/>
<text text-anchor="middle" x="234.5" y="-84" font-family="Helvetica,sans-Serif" font-size="10.00">tson::Vector2&lt; int &gt;</text>
</a>
</g>
</g>
<!-- Node5&#45;&gt;Node1 -->
<g id="edge4" class="edge">
<title>Node5&#45;&gt;Node1</title>
<path fill="none" stroke="#9a32cd" stroke-dasharray="5,2" d="M227.98,-66.22C223.78,-56.32 217.41,-44.75 208.5,-37 197.85,-27.74 183.67,-21.6 170.72,-17.59"/>
<polygon fill="#9a32cd" stroke="#9a32cd" points="224.61,-67.2 231.41,-75.33 231.16,-64.74 224.61,-67.2"/>
<text text-anchor="middle" x="248.5" y="-51" font-family="Helvetica,sans-Serif" font-size="10.00"> m_position</text>
<text text-anchor="middle" x="248.5" y="-40" font-family="Helvetica,sans-Serif" font-size="10.00">m_size</text>
</g>
</g>
</svg>
