<?xml version="1.0" encoding="UTF-8" standalone="no"?>
<!DOCTYPE svg PUBLIC "-//W3C//DTD SVG 1.1//EN"
 "http://www.w3.org/Graphics/SVG/1.1/DTD/svg11.dtd">
<!-- Generated by graphviz version 7.0.5 (20221223.1930)
 -->
<!-- Title: Explosion Pages: 1 -->
<svg width="118pt" height="216pt"
 viewBox="0.00 0.00 117.50 216.00" xmlns="http://www.w3.org/2000/svg" xmlns:xlink="http://www.w3.org/1999/xlink">
<g id="graph0" class="graph" transform="scale(1 1) rotate(0) translate(4 212)">
<title>Explosion</title>
<!-- Node1 -->
<g id="node1" class="node">
<title>Node1</title>
<g id="a_node1"><a xlink:title=" ">
<polygon fill="#999999" stroke="#666666" points="75.5,-19 17.5,-19 17.5,0 75.5,0 75.5,-19"/>
<text text-anchor="middle" x="46.5" y="-7" font-family="Helvetica,sans-Serif" font-size="10.00">Explosion</text>
</a>
</g>
</g>
<!-- Node2 -->
<g id="node2" class="node">
<title>Node2</title>
<g id="a_node2"><a xlink:href="classengine_1_1_base.html" target="_top" xlink:title=" ">
<polygon fill="white" stroke="#bfbfbf" points="82.5,-75 10.5,-75 10.5,-56 82.5,-56 82.5,-75"/>
<text text-anchor="middle" x="46.5" y="-63" font-family="Helvetica,sans-Serif" font-size="10.00">engine::Base</text>
</a>
</g>
</g>
<!-- Node2&#45;&gt;Node1 -->
<g id="edge1" class="edge">
<title>Node2&#45;&gt;Node1</title>
<path fill="none" stroke="#63b8ff" d="M46.5,-44.11C46.5,-35.52 46.5,-25.97 46.5,-19.25"/>
<polygon fill="#63b8ff" stroke="#63b8ff" points="43,-44.07 46.5,-54.07 50,-44.07 43,-44.07"/>
</g>
<!-- Node3 -->
<g id="node3" class="node">
<title>Node3</title>
<g id="a_node3"><a xlink:title=" ">
<polygon fill="white" stroke="#666666" points="76,-141 17,-141 17,-122 76,-122 76,-141"/>
<text text-anchor="middle" x="46.5" y="-129" font-family="Helvetica,sans-Serif" font-size="10.00">std::string</text>
</a>
</g>
</g>
<!-- Node3&#45;&gt;Node2 -->
<g id="edge2" class="edge">
<title>Node3&#45;&gt;Node2</title>
<path fill="none" stroke="#9a32cd" stroke-dasharray="5,2" d="M46.5,-110.18C46.5,-98.44 46.5,-84.27 46.5,-75.32"/>
<polygon fill="#9a32cd" stroke="#9a32cd" points="43,-110.09 46.5,-120.09 50,-110.09 43,-110.09"/>
<text text-anchor="middle" x="78" y="-96" font-family="Helvetica,sans-Serif" font-size="10.00"> _uniqueName</text>
</g>
<!-- Node4 -->
<g id="node4" class="node">
<title>Node4</title>
<g id="a_node4"><a xlink:title=" ">
<polygon fill="white" stroke="#666666" points="93,-208 0,-208 0,-178 93,-178 93,-208"/>
<text text-anchor="start" x="8" y="-196" font-family="Helvetica,sans-Serif" font-size="10.00">std::basic_string&lt;</text>
<text text-anchor="middle" x="46.5" y="-185" font-family="Helvetica,sans-Serif" font-size="10.00"> Char &gt;</text>
</a>
</g>
</g>
<!-- Node4&#45;&gt;Node3 -->
<g id="edge3" class="edge">
<title>Node4&#45;&gt;Node3</title>
<path fill="none" stroke="#63b8ff" d="M46.5,-166.13C46.5,-157.29 46.5,-147.99 46.5,-141.42"/>
<polygon fill="#63b8ff" stroke="#63b8ff" points="43,-166.08 46.5,-176.08 50,-166.08 43,-166.08"/>
</g>
</g>
</svg>
