<?xml version="1.0" encoding="UTF-8" standalone="no"?>
<!DOCTYPE svg PUBLIC "-//W3C//DTD SVG 1.1//EN"
 "http://www.w3.org/Graphics/SVG/1.1/DTD/svg11.dtd">
<!-- Generated by graphviz version 7.0.5 (20221223.1930)
 -->
<!-- Title: ui::Button Pages: 1 -->
<svg width="193pt" height="226pt"
 viewBox="0.00 0.00 192.50 226.00" xmlns="http://www.w3.org/2000/svg" xmlns:xlink="http://www.w3.org/1999/xlink">
<g id="graph0" class="graph" transform="scale(1 1) rotate(0) translate(4 222)">
<title>ui::Button</title>
<!-- Node1 -->
<g id="node1" class="node">
<title>Node1</title>
<g id="a_node1"><a xlink:title=" ">
<polygon fill="#999999" stroke="#666666" points="120,-19 63,-19 63,0 120,0 120,-19"/>
<text text-anchor="middle" x="91.5" y="-7" font-family="Helvetica,sans-Serif" font-size="10.00">ui::Button</text>
</a>
</g>
</g>
<!-- Node2 -->
<g id="node2" class="node">
<title>Node2</title>
<g id="a_node2"><a xlink:href="classengine_1_1_base.html" target="_top" xlink:title=" ">
<polygon fill="white" stroke="#bfbfbf" points="82.5,-85 10.5,-85 10.5,-66 82.5,-66 82.5,-85"/>
<text text-anchor="middle" x="46.5" y="-73" font-family="Helvetica,sans-Serif" font-size="10.00">engine::Base</text>
</a>
</g>
</g>
<!-- Node2&#45;&gt;Node1 -->
<g id="edge1" class="edge">
<title>Node2&#45;&gt;Node1</title>
<path fill="none" stroke="#63b8ff" d="M59.23,-56.4C67.75,-44.27 78.6,-28.84 85.3,-19.32"/>
<polygon fill="#63b8ff" stroke="#63b8ff" points="56.52,-54.17 53.63,-64.36 62.24,-58.2 56.52,-54.17"/>
</g>
<!-- Node3 -->
<g id="node3" class="node">
<title>Node3</title>
<g id="a_node3"><a xlink:title=" ">
<polygon fill="white" stroke="#666666" points="76,-151 17,-151 17,-132 76,-132 76,-151"/>
<text text-anchor="middle" x="46.5" y="-139" font-family="Helvetica,sans-Serif" font-size="10.00">std::string</text>
</a>
</g>
</g>
<!-- Node3&#45;&gt;Node2 -->
<g id="edge2" class="edge">
<title>Node3&#45;&gt;Node2</title>
<path fill="none" stroke="#9a32cd" stroke-dasharray="5,2" d="M46.5,-120.18C46.5,-108.44 46.5,-94.27 46.5,-85.32"/>
<polygon fill="#9a32cd" stroke="#9a32cd" points="43,-120.09 46.5,-130.09 50,-120.09 43,-120.09"/>
<text text-anchor="middle" x="78" y="-106" font-family="Helvetica,sans-Serif" font-size="10.00"> _uniqueName</text>
</g>
<!-- Node4 -->
<g id="node4" class="node">
<title>Node4</title>
<g id="a_node4"><a xlink:title=" ">
<polygon fill="white" stroke="#666666" points="93,-218 0,-218 0,-188 93,-188 93,-218"/>
<text text-anchor="start" x="8" y="-206" font-family="Helvetica,sans-Serif" font-size="10.00">std::basic_string&lt;</text>
<text text-anchor="middle" x="46.5" y="-195" font-family="Helvetica,sans-Serif" font-size="10.00"> Char &gt;</text>
</a>
</g>
</g>
<!-- Node4&#45;&gt;Node3 -->
<g id="edge3" class="edge">
<title>Node4&#45;&gt;Node3</title>
<path fill="none" stroke="#63b8ff" d="M46.5,-176.13C46.5,-167.29 46.5,-157.99 46.5,-151.42"/>
<polygon fill="#63b8ff" stroke="#63b8ff" points="43,-176.08 46.5,-186.08 50,-176.08 43,-176.08"/>
</g>
<!-- Node5 -->
<g id="node5" class="node">
<title>Node5</title>
<g id="a_node5"><a xlink:href="classengine_1_1_clock.html" target="_top" xlink:title=" ">
<polygon fill="white" stroke="#bfbfbf" points="174.5,-85 100.5,-85 100.5,-66 174.5,-66 174.5,-85"/>
<text text-anchor="middle" x="137.5" y="-73" font-family="Helvetica,sans-Serif" font-size="10.00">engine::Clock</text>
</a>
</g>
</g>
<!-- Node5&#45;&gt;Node1 -->
<g id="edge4" class="edge">
<title>Node5&#45;&gt;Node1</title>
<path fill="none" stroke="#9a32cd" stroke-dasharray="5,2" d="M124.49,-56.4C115.77,-44.27 104.69,-28.84 97.84,-19.32"/>
<polygon fill="#9a32cd" stroke="#9a32cd" points="121.54,-58.29 130.22,-64.37 127.23,-54.21 121.54,-58.29"/>
<text text-anchor="middle" x="151" y="-40" font-family="Helvetica,sans-Serif" font-size="10.00"> _clockPressed</text>
</g>
<!-- Node6 -->
<g id="node6" class="node">
<title>Node6</title>
<g id="a_node6"><a xlink:title=" ">
<polygon fill="white" stroke="#bfbfbf" points="164.5,-151 110.5,-151 110.5,-132 164.5,-132 164.5,-151"/>
<text text-anchor="middle" x="137.5" y="-139" font-family="Helvetica,sans-Serif" font-size="10.00">sf::Clock</text>
</a>
</g>
</g>
<!-- Node6&#45;&gt;Node5 -->
<g id="edge5" class="edge">
<title>Node6&#45;&gt;Node5</title>
<path fill="none" stroke="#63b8ff" d="M137.5,-120.18C137.5,-108.44 137.5,-94.27 137.5,-85.32"/>
<polygon fill="#63b8ff" stroke="#63b8ff" points="134,-120.09 137.5,-130.09 141,-120.09 134,-120.09"/>
</g>
</g>
</svg>
