<?xml version="1.0" encoding="UTF-8" standalone="no"?>
<!DOCTYPE svg PUBLIC "-//W3C//DTD SVG 1.1//EN"
 "http://www.w3.org/Graphics/SVG/1.1/DTD/svg11.dtd">
<!-- Generated by graphviz version 7.0.5 (20221223.1930)
 -->
<!-- Title: engine::Texture Pages: 1 -->
<svg width="165pt" height="160pt"
 viewBox="0.00 0.00 164.50 160.00" xmlns="http://www.w3.org/2000/svg" xmlns:xlink="http://www.w3.org/1999/xlink">
<g id="graph0" class="graph" transform="scale(1 1) rotate(0) translate(4 156)">
<title>engine::Texture</title>
<!-- Node1 -->
<g id="node1" class="node">
<title>Node1</title>
<g id="a_node1"><a xlink:title=" ">
<polygon fill="#999999" stroke="#666666" points="88,-19 6,-19 6,0 88,0 88,-19"/>
<text text-anchor="middle" x="47" y="-7" font-family="Helvetica,sans-Serif" font-size="10.00">engine::Texture</text>
</a>
</g>
</g>
<!-- Node2 -->
<g id="node2" class="node">
<title>Node2</title>
<g id="a_node2"><a xlink:title=" ">
<polygon fill="white" stroke="#bfbfbf" points="62,-85 0,-85 0,-66 62,-66 62,-85"/>
<text text-anchor="middle" x="31" y="-73" font-family="Helvetica,sans-Serif" font-size="10.00">sf::Texture</text>
</a>
</g>
</g>
<!-- Node2&#45;&gt;Node1 -->
<g id="edge1" class="edge">
<title>Node2&#45;&gt;Node1</title>
<path fill="none" stroke="#63b8ff" d="M35.99,-54.55C38.94,-42.74 42.53,-28.37 44.79,-19.32"/>
<polygon fill="#63b8ff" stroke="#63b8ff" points="32.62,-53.58 33.59,-64.13 39.41,-55.28 32.62,-53.58"/>
</g>
<!-- Node3 -->
<g id="node3" class="node">
<title>Node3</title>
<g id="a_node3"><a xlink:title=" ">
<polygon fill="white" stroke="#666666" points="139.5,-85 80.5,-85 80.5,-66 139.5,-66 139.5,-85"/>
<text text-anchor="middle" x="110" y="-73" font-family="Helvetica,sans-Serif" font-size="10.00">std::string</text>
</a>
</g>
</g>
<!-- Node3&#45;&gt;Node1 -->
<g id="edge2" class="edge">
<title>Node3&#45;&gt;Node1</title>
<path fill="none" stroke="#9a32cd" stroke-dasharray="5,2" d="M93.24,-57.48C81.16,-45.2 65.34,-29.13 55.69,-19.32"/>
<polygon fill="#9a32cd" stroke="#9a32cd" points="90.67,-59.85 100.18,-64.52 95.66,-54.94 90.67,-59.85"/>
<text text-anchor="middle" x="98" y="-40" font-family="Helvetica,sans-Serif" font-size="10.00"> _name</text>
</g>
<!-- Node4 -->
<g id="node4" class="node">
<title>Node4</title>
<g id="a_node4"><a xlink:title=" ">
<polygon fill="white" stroke="#666666" points="156.5,-152 63.5,-152 63.5,-122 156.5,-122 156.5,-152"/>
<text text-anchor="start" x="71.5" y="-140" font-family="Helvetica,sans-Serif" font-size="10.00">std::basic_string&lt;</text>
<text text-anchor="middle" x="110" y="-129" font-family="Helvetica,sans-Serif" font-size="10.00"> Char &gt;</text>
</a>
</g>
</g>
<!-- Node4&#45;&gt;Node3 -->
<g id="edge3" class="edge">
<title>Node4&#45;&gt;Node3</title>
<path fill="none" stroke="#63b8ff" d="M110,-110.13C110,-101.29 110,-91.99 110,-85.42"/>
<polygon fill="#63b8ff" stroke="#63b8ff" points="106.5,-110.08 110,-120.08 113.5,-110.08 106.5,-110.08"/>
</g>
</g>
</svg>
