<?xml version="1.0" encoding="UTF-8" standalone="no"?>
<!DOCTYPE svg PUBLIC "-//W3C//DTD SVG 1.1//EN"
 "http://www.w3.org/Graphics/SVG/1.1/DTD/svg11.dtd">
<!-- Generated by graphviz version 7.0.5 (20221223.1930)
 -->
<!-- Title: engine::Base Pages: 1 -->
<svg width="459pt" height="137pt"
 viewBox="0.00 0.00 459.00 137.00" xmlns="http://www.w3.org/2000/svg" xmlns:xlink="http://www.w3.org/1999/xlink">
<g id="graph0" class="graph" transform="scale(1 1) rotate(0) translate(4 133)">
<title>engine::Base</title>
<!-- Node1 -->
<g id="node1" class="node">
<title>Node1</title>
<g id="a_node1"><a xlink:title=" ">
<polygon fill="#999999" stroke="#666666" points="261.5,-129 189.5,-129 189.5,-110 261.5,-110 261.5,-129"/>
<text text-anchor="middle" x="225.5" y="-117" font-family="Helvetica,sans-Serif" font-size="10.00">engine::Base</text>
</a>
</g>
</g>
<!-- Node2 -->
<g id="node2" class="node">
<title>Node2</title>
<g id="a_node2"><a xlink:href="class_bullet.html" target="_top" xlink:title=" ">
<polygon fill="white" stroke="#bfbfbf" points="72,-74 31,-74 31,-55 72,-55 72,-74"/>
<text text-anchor="middle" x="51.5" y="-62" font-family="Helvetica,sans-Serif" font-size="10.00">Bullet</text>
</a>
</g>
</g>
<!-- Node1&#45;&gt;Node2 -->
<g id="edge1" class="edge">
<title>Node1&#45;&gt;Node2</title>
<path fill="none" stroke="#63b8ff" d="M185.1,-106.19C149.87,-95.46 100.18,-80.33 72.4,-71.87"/>
<polygon fill="#63b8ff" stroke="#63b8ff" points="183.95,-109.5 194.54,-109.07 185.99,-102.81 183.95,-109.5"/>
</g>
<!-- Node4 -->
<g id="node4" class="node">
<title>Node4</title>
<g id="a_node4"><a xlink:href="class_enemy.html" target="_top" xlink:title=" ">
<polygon fill="white" stroke="#bfbfbf" points="144.5,-74 98.5,-74 98.5,-55 144.5,-55 144.5,-74"/>
<text text-anchor="middle" x="121.5" y="-62" font-family="Helvetica,sans-Serif" font-size="10.00">Enemy</text>
</a>
</g>
</g>
<!-- Node1&#45;&gt;Node4 -->
<g id="edge3" class="edge">
<title>Node1&#45;&gt;Node4</title>
<path fill="none" stroke="#63b8ff" d="M197.83,-104.4C179.11,-94.86 154.95,-82.55 138.88,-74.36"/>
<polygon fill="#63b8ff" stroke="#63b8ff" points="196.01,-107.4 206.51,-108.82 199.19,-101.16 196.01,-107.4"/>
</g>
<!-- Node6 -->
<g id="node6" class="node">
<title>Node6</title>
<g id="a_node6"><a xlink:href="class_explosion.html" target="_top" xlink:title=" ">
<polygon fill="white" stroke="#bfbfbf" points="220.5,-74 162.5,-74 162.5,-55 220.5,-55 220.5,-74"/>
<text text-anchor="middle" x="191.5" y="-62" font-family="Helvetica,sans-Serif" font-size="10.00">Explosion</text>
</a>
</g>
</g>
<!-- Node1&#45;&gt;Node6 -->
<g id="edge5" class="edge">
<title>Node1&#45;&gt;Node6</title>
<path fill="none" stroke="#63b8ff" d="M213.68,-100.08C208.11,-91.4 201.72,-81.44 197.24,-74.44"/>
<polygon fill="#63b8ff" stroke="#63b8ff" points="210.72,-101.95 219.07,-108.47 216.61,-98.17 210.72,-101.95"/>
</g>
<!-- Node7 -->
<g id="node7" class="node">
<title>Node7</title>
<g id="a_node7"><a xlink:href="class_player.html" target="_top" xlink:title=" ">
<polygon fill="white" stroke="#bfbfbf" points="282.5,-74 238.5,-74 238.5,-55 282.5,-55 282.5,-74"/>
<text text-anchor="middle" x="260.5" y="-62" font-family="Helvetica,sans-Serif" font-size="10.00">Player</text>
</a>
</g>
</g>
<!-- Node1&#45;&gt;Node7 -->
<g id="edge6" class="edge">
<title>Node1&#45;&gt;Node7</title>
<path fill="none" stroke="#63b8ff" d="M237.48,-100.36C243.25,-91.62 249.93,-81.51 254.59,-74.44"/>
<polygon fill="#63b8ff" stroke="#63b8ff" points="234.7,-98.21 232.11,-108.49 240.54,-102.07 234.7,-98.21"/>
</g>
<!-- Node8 -->
<g id="node8" class="node">
<title>Node8</title>
<g id="a_node8"><a xlink:href="classbonus_1_1_bonus.html" target="_top" xlink:title=" ">
<polygon fill="white" stroke="#bfbfbf" points="376,-74 301,-74 301,-55 376,-55 376,-74"/>
<text text-anchor="middle" x="338.5" y="-62" font-family="Helvetica,sans-Serif" font-size="10.00">bonus::Bonus</text>
</a>
</g>
</g>
<!-- Node1&#45;&gt;Node8 -->
<g id="edge7" class="edge">
<title>Node1&#45;&gt;Node8</title>
<path fill="none" stroke="#63b8ff" d="M254.99,-104.67C275.42,-95.09 301.99,-82.62 319.61,-74.36"/>
<polygon fill="#63b8ff" stroke="#63b8ff" points="253.61,-101.45 246.04,-108.87 256.58,-107.79 253.61,-101.45"/>
</g>
<!-- Node10 -->
<g id="node10" class="node">
<title>Node10</title>
<g id="a_node10"><a xlink:href="classui_1_1_button.html" target="_top" xlink:title=" ">
<polygon fill="white" stroke="#bfbfbf" points="451,-74 394,-74 394,-55 451,-55 451,-74"/>
<text text-anchor="middle" x="422.5" y="-62" font-family="Helvetica,sans-Serif" font-size="10.00">ui::Button</text>
</a>
</g>
</g>
<!-- Node1&#45;&gt;Node10 -->
<g id="edge9" class="edge">
<title>Node1&#45;&gt;Node10</title>
<path fill="none" stroke="#63b8ff" d="M269.65,-106.62C307.57,-96.42 361.12,-82.01 393.73,-73.24"/>
<polygon fill="#63b8ff" stroke="#63b8ff" points="269.13,-103.14 260.38,-109.12 270.95,-109.9 269.13,-103.14"/>
</g>
<!-- Node3 -->
<g id="node3" class="node">
<title>Node3</title>
<g id="a_node3"><a xlink:href="class_bullet_enemy.html" target="_top" xlink:title=" ">
<polygon fill="white" stroke="#bfbfbf" points="71,-19 0,-19 0,0 71,0 71,-19"/>
<text text-anchor="middle" x="35.5" y="-7" font-family="Helvetica,sans-Serif" font-size="10.00">BulletEnemy</text>
</a>
</g>
</g>
<!-- Node2&#45;&gt;Node3 -->
<g id="edge2" class="edge">
<title>Node2&#45;&gt;Node3</title>
<path fill="none" stroke="#63b8ff" d="M45.59,-43.93C43.06,-35.53 40.22,-26.13 38.2,-19.44"/>
<polygon fill="#63b8ff" stroke="#63b8ff" points="42.18,-44.74 48.42,-53.3 48.88,-42.71 42.18,-44.74"/>
</g>
<!-- Node5 -->
<g id="node5" class="node">
<title>Node5</title>
<g id="a_node5"><a xlink:href="class_enemy_shooter.html" target="_top" xlink:title=" ">
<polygon fill="white" stroke="#bfbfbf" points="169.5,-19 89.5,-19 89.5,0 169.5,0 169.5,-19"/>
<text text-anchor="middle" x="129.5" y="-7" font-family="Helvetica,sans-Serif" font-size="10.00">EnemyShooter</text>
</a>
</g>
</g>
<!-- Node4&#45;&gt;Node5 -->
<g id="edge4" class="edge">
<title>Node4&#45;&gt;Node5</title>
<path fill="none" stroke="#63b8ff" d="M124.5,-43.64C125.75,-35.31 127.15,-26.05 128.15,-19.44"/>
<polygon fill="#63b8ff" stroke="#63b8ff" points="121.08,-42.84 123.05,-53.25 128,-43.89 121.08,-42.84"/>
</g>
<!-- Node9 -->
<g id="node9" class="node">
<title>Node9</title>
<g id="a_node9"><a xlink:href="classbonus_1_1_double_bullet.html" target="_top" xlink:title=" ">
<polygon fill="white" stroke="#bfbfbf" points="389.5,-19 287.5,-19 287.5,0 389.5,0 389.5,-19"/>
<text text-anchor="middle" x="338.5" y="-7" font-family="Helvetica,sans-Serif" font-size="10.00">bonus::DoubleBullet</text>
</a>
</g>
</g>
<!-- Node8&#45;&gt;Node9 -->
<g id="edge8" class="edge">
<title>Node8&#45;&gt;Node9</title>
<path fill="none" stroke="#63b8ff" d="M338.5,-43.35C338.5,-35.1 338.5,-25.97 338.5,-19.44"/>
<polygon fill="#63b8ff" stroke="#63b8ff" points="335,-43.23 338.5,-53.23 342,-43.23 335,-43.23"/>
</g>
</g>
</svg>
