<?xml version="1.0" encoding="UTF-8" standalone="no"?>
<!DOCTYPE svg PUBLIC "-//W3C//DTD SVG 1.1//EN"
 "http://www.w3.org/Graphics/SVG/1.1/DTD/svg11.dtd">
<!-- Generated by graphviz version 7.0.5 (20221223.1930)
 -->
<!-- Title: bonus::DoubleBullet Pages: 1 -->
<svg width="122pt" height="272pt"
 viewBox="0.00 0.00 122.00 272.00" xmlns="http://www.w3.org/2000/svg" xmlns:xlink="http://www.w3.org/1999/xlink">
<g id="graph0" class="graph" transform="scale(1 1) rotate(0) translate(4 268)">
<title>bonus::DoubleBullet</title>
<!-- Node1 -->
<g id="node1" class="node">
<title>Node1</title>
<g id="a_node1"><a xlink:title=" ">
<polygon fill="#999999" stroke="#666666" points="102,-19 0,-19 0,0 102,0 102,-19"/>
<text text-anchor="middle" x="51" y="-7" font-family="Helvetica,sans-Serif" font-size="10.00">bonus::DoubleBullet</text>
</a>
</g>
</g>
<!-- Node2 -->
<g id="node2" class="node">
<title>Node2</title>
<g id="a_node2"><a xlink:href="classbonus_1_1_bonus.html" target="_top" xlink:title=" ">
<polygon fill="white" stroke="#bfbfbf" points="88.5,-75 13.5,-75 13.5,-56 88.5,-56 88.5,-75"/>
<text text-anchor="middle" x="51" y="-63" font-family="Helvetica,sans-Serif" font-size="10.00">bonus::Bonus</text>
</a>
</g>
</g>
<!-- Node2&#45;&gt;Node1 -->
<g id="edge1" class="edge">
<title>Node2&#45;&gt;Node1</title>
<path fill="none" stroke="#63b8ff" d="M51,-44.11C51,-35.52 51,-25.97 51,-19.25"/>
<polygon fill="#63b8ff" stroke="#63b8ff" points="47.5,-44.07 51,-54.07 54.5,-44.07 47.5,-44.07"/>
</g>
<!-- Node3 -->
<g id="node3" class="node">
<title>Node3</title>
<g id="a_node3"><a xlink:href="classengine_1_1_base.html" target="_top" xlink:title=" ">
<polygon fill="white" stroke="#bfbfbf" points="87,-131 15,-131 15,-112 87,-112 87,-131"/>
<text text-anchor="middle" x="51" y="-119" font-family="Helvetica,sans-Serif" font-size="10.00">engine::Base</text>
</a>
</g>
</g>
<!-- Node3&#45;&gt;Node2 -->
<g id="edge2" class="edge">
<title>Node3&#45;&gt;Node2</title>
<path fill="none" stroke="#63b8ff" d="M51,-100.11C51,-91.52 51,-81.97 51,-75.25"/>
<polygon fill="#63b8ff" stroke="#63b8ff" points="47.5,-100.07 51,-110.07 54.5,-100.07 47.5,-100.07"/>
</g>
<!-- Node4 -->
<g id="node4" class="node">
<title>Node4</title>
<g id="a_node4"><a xlink:title=" ">
<polygon fill="white" stroke="#666666" points="80.5,-197 21.5,-197 21.5,-178 80.5,-178 80.5,-197"/>
<text text-anchor="middle" x="51" y="-185" font-family="Helvetica,sans-Serif" font-size="10.00">std::string</text>
</a>
</g>
</g>
<!-- Node4&#45;&gt;Node3 -->
<g id="edge3" class="edge">
<title>Node4&#45;&gt;Node3</title>
<path fill="none" stroke="#9a32cd" stroke-dasharray="5,2" d="M51,-166.18C51,-154.44 51,-140.27 51,-131.32"/>
<polygon fill="#9a32cd" stroke="#9a32cd" points="47.5,-166.09 51,-176.09 54.5,-166.09 47.5,-166.09"/>
<text text-anchor="middle" x="82.5" y="-152" font-family="Helvetica,sans-Serif" font-size="10.00"> _uniqueName</text>
</g>
<!-- Node5 -->
<g id="node5" class="node">
<title>Node5</title>
<g id="a_node5"><a xlink:title=" ">
<polygon fill="white" stroke="#666666" points="97.5,-264 4.5,-264 4.5,-234 97.5,-234 97.5,-264"/>
<text text-anchor="start" x="12.5" y="-252" font-family="Helvetica,sans-Serif" font-size="10.00">std::basic_string&lt;</text>
<text text-anchor="middle" x="51" y="-241" font-family="Helvetica,sans-Serif" font-size="10.00"> Char &gt;</text>
</a>
</g>
</g>
<!-- Node5&#45;&gt;Node4 -->
<g id="edge4" class="edge">
<title>Node5&#45;&gt;Node4</title>
<path fill="none" stroke="#63b8ff" d="M51,-222.13C51,-213.29 51,-203.99 51,-197.42"/>
<polygon fill="#63b8ff" stroke="#63b8ff" points="47.5,-222.08 51,-232.08 54.5,-222.08 47.5,-222.08"/>
</g>
</g>
</svg>
