<?xml version="1.0" encoding="UTF-8" standalone="no"?>
<!DOCTYPE svg PUBLIC "-//W3C//DTD SVG 1.1//EN"
 "http://www.w3.org/Graphics/SVG/1.1/DTD/svg11.dtd">
<!-- Generated by graphviz version 7.0.5 (20221223.1930)
 -->
<!-- Title: BulletEnemy Pages: 1 -->
<svg width="118pt" height="272pt"
 viewBox="0.00 0.00 117.50 272.00" xmlns="http://www.w3.org/2000/svg" xmlns:xlink="http://www.w3.org/1999/xlink">
<g id="graph0" class="graph" transform="scale(1 1) rotate(0) translate(4 268)">
<title>BulletEnemy</title>
<!-- Node1 -->
<g id="node1" class="node">
<title>Node1</title>
<g id="a_node1"><a xlink:title=" ">
<polygon fill="#999999" stroke="#666666" points="82,-19 11,-19 11,0 82,0 82,-19"/>
<text text-anchor="middle" x="46.5" y="-7" font-family="Helvetica,sans-Serif" font-size="10.00">BulletEnemy</text>
</a>
</g>
</g>
<!-- Node2 -->
<g id="node2" class="node">
<title>Node2</title>
<g id="a_node2"><a xlink:href="class_bullet.html" target="_top" xlink:title=" ">
<polygon fill="white" stroke="#bfbfbf" points="67,-75 26,-75 26,-56 67,-56 67,-75"/>
<text text-anchor="middle" x="46.5" y="-63" font-family="Helvetica,sans-Serif" font-size="10.00">Bullet</text>
</a>
</g>
</g>
<!-- Node2&#45;&gt;Node1 -->
<g id="edge1" class="edge">
<title>Node2&#45;&gt;Node1</title>
<path fill="none" stroke="#63b8ff" d="M46.5,-44.11C46.5,-35.52 46.5,-25.97 46.5,-19.25"/>
<polygon fill="#63b8ff" stroke="#63b8ff" points="43,-44.07 46.5,-54.07 50,-44.07 43,-44.07"/>
</g>
<!-- Node3 -->
<g id="node3" class="node">
<title>Node3</title>
<g id="a_node3"><a xlink:href="classengine_1_1_base.html" target="_top" xlink:title=" ">
<polygon fill="white" stroke="#bfbfbf" points="82.5,-131 10.5,-131 10.5,-112 82.5,-112 82.5,-131"/>
<text text-anchor="middle" x="46.5" y="-119" font-family="Helvetica,sans-Serif" font-size="10.00">engine::Base</text>
</a>
</g>
</g>
<!-- Node3&#45;&gt;Node2 -->
<g id="edge2" class="edge">
<title>Node3&#45;&gt;Node2</title>
<path fill="none" stroke="#63b8ff" d="M46.5,-100.11C46.5,-91.52 46.5,-81.97 46.5,-75.25"/>
<polygon fill="#63b8ff" stroke="#63b8ff" points="43,-100.07 46.5,-110.07 50,-100.07 43,-100.07"/>
</g>
<!-- Node4 -->
<g id="node4" class="node">
<title>Node4</title>
<g id="a_node4"><a xlink:title=" ">
<polygon fill="white" stroke="#666666" points="76,-197 17,-197 17,-178 76,-178 76,-197"/>
<text text-anchor="middle" x="46.5" y="-185" font-family="Helvetica,sans-Serif" font-size="10.00">std::string</text>
</a>
</g>
</g>
<!-- Node4&#45;&gt;Node3 -->
<g id="edge3" class="edge">
<title>Node4&#45;&gt;Node3</title>
<path fill="none" stroke="#9a32cd" stroke-dasharray="5,2" d="M46.5,-166.18C46.5,-154.44 46.5,-140.27 46.5,-131.32"/>
<polygon fill="#9a32cd" stroke="#9a32cd" points="43,-166.09 46.5,-176.09 50,-166.09 43,-166.09"/>
<text text-anchor="middle" x="78" y="-152" font-family="Helvetica,sans-Serif" font-size="10.00"> _uniqueName</text>
</g>
<!-- Node5 -->
<g id="node5" class="node">
<title>Node5</title>
<g id="a_node5"><a xlink:title=" ">
<polygon fill="white" stroke="#666666" points="93,-264 0,-264 0,-234 93,-234 93,-264"/>
<text text-anchor="start" x="8" y="-252" font-family="Helvetica,sans-Serif" font-size="10.00">std::basic_string&lt;</text>
<text text-anchor="middle" x="46.5" y="-241" font-family="Helvetica,sans-Serif" font-size="10.00"> Char &gt;</text>
</a>
</g>
</g>
<!-- Node5&#45;&gt;Node4 -->
<g id="edge4" class="edge">
<title>Node5&#45;&gt;Node4</title>
<path fill="none" stroke="#63b8ff" d="M46.5,-222.13C46.5,-213.29 46.5,-203.99 46.5,-197.42"/>
<polygon fill="#63b8ff" stroke="#63b8ff" points="43,-222.08 46.5,-232.08 50,-222.08 43,-222.08"/>
</g>
</g>
</svg>
