<?xml version="1.0" encoding="UTF-8" standalone="no"?>
<!DOCTYPE svg PUBLIC "-//W3C//DTD SVG 1.1//EN"
 "http://www.w3.org/Graphics/SVG/1.1/DTD/svg11.dtd">
<!-- Generated by graphviz version 7.0.5 (20221223.1930)
 -->
<!-- Title: engine::Scene Pages: 1 -->
<svg width="162pt" height="82pt"
 viewBox="0.00 0.00 162.00 82.00" xmlns="http://www.w3.org/2000/svg" xmlns:xlink="http://www.w3.org/1999/xlink">
<g id="graph0" class="graph" transform="scale(1 1) rotate(0) translate(4 78)">
<title>engine::Scene</title>
<!-- Node1 -->
<g id="node1" class="node">
<title>Node1</title>
<g id="a_node1"><a xlink:title=" ">
<polygon fill="#999999" stroke="#666666" points="117,-74 40,-74 40,-55 117,-55 117,-74"/>
<text text-anchor="middle" x="78.5" y="-62" font-family="Helvetica,sans-Serif" font-size="10.00">engine::Scene</text>
</a>
</g>
</g>
<!-- Node2 -->
<g id="node2" class="node">
<title>Node2</title>
<g id="a_node2"><a xlink:href="class_scene_game.html" target="_top" xlink:title=" ">
<polygon fill="white" stroke="#bfbfbf" points="71,-19 0,-19 0,0 71,0 71,-19"/>
<text text-anchor="middle" x="35.5" y="-7" font-family="Helvetica,sans-Serif" font-size="10.00">SceneGame</text>
</a>
</g>
</g>
<!-- Node1&#45;&gt;Node2 -->
<g id="edge1" class="edge">
<title>Node1&#45;&gt;Node2</title>
<path fill="none" stroke="#63b8ff" d="M64.25,-45.93C57.05,-37.06 48.62,-26.67 42.75,-19.44"/>
<polygon fill="#63b8ff" stroke="#63b8ff" points="61.43,-48.01 70.45,-53.57 66.86,-43.6 61.43,-48.01"/>
</g>
<!-- Node3 -->
<g id="node3" class="node">
<title>Node3</title>
<g id="a_node3"><a xlink:href="class_scene_main.html" target="_top" xlink:title=" ">
<polygon fill="white" stroke="#bfbfbf" points="154,-19 89,-19 89,0 154,0 154,-19"/>
<text text-anchor="middle" x="121.5" y="-7" font-family="Helvetica,sans-Serif" font-size="10.00">SceneMain</text>
</a>
</g>
</g>
<!-- Node1&#45;&gt;Node3 -->
<g id="edge2" class="edge">
<title>Node1&#45;&gt;Node3</title>
<path fill="none" stroke="#63b8ff" d="M92.75,-45.93C99.95,-37.06 108.38,-26.67 114.25,-19.44"/>
<polygon fill="#63b8ff" stroke="#63b8ff" points="90.14,-43.6 86.55,-53.57 95.57,-48.01 90.14,-43.6"/>
</g>
</g>
</svg>
