<?xml version="1.0" encoding="UTF-8" standalone="no"?>
<!DOCTYPE svg PUBLIC "-//W3C//DTD SVG 1.1//EN"
 "http://www.w3.org/Graphics/SVG/1.1/DTD/svg11.dtd">
<!-- Generated by graphviz version 7.0.5 (20221223.1930)
 -->
<!-- Title: engine::Manager Pages: 1 -->
<svg width="1355pt" height="386pt"
 viewBox="0.00 0.00 1355.00 385.50" xmlns="http://www.w3.org/2000/svg" xmlns:xlink="http://www.w3.org/1999/xlink">
<g id="graph0" class="graph" transform="scale(1 1) rotate(0) translate(4 381.5)">
<title>engine::Manager</title>
<!-- Node1 -->
<g id="node1" class="node">
<title>Node1</title>
<g id="a_node1"><a xlink:title=" ">
<polygon fill="#999999" stroke="#666666" points="1347,-169.5 1260,-169.5 1260,-150.5 1347,-150.5 1347,-169.5"/>
<text text-anchor="middle" x="1303.5" y="-157.5" font-family="Helvetica,sans-Serif" font-size="10.00">engine::Manager</text>
</a>
</g>
</g>
<!-- Node2 -->
<g id="node2" class="node">
<title>Node2</title>
<g id="a_node2"><a xlink:title=" ">
<polygon fill="white" stroke="#666666" points="1153.5,-294 1036.5,-294 1036.5,-264 1153.5,-264 1153.5,-294"/>
<text text-anchor="start" x="1044.5" y="-282" font-family="Helvetica,sans-Serif" font-size="10.00">std::shared_ptr&lt; engine</text>
<text text-anchor="middle" x="1095" y="-271" font-family="Helvetica,sans-Serif" font-size="10.00">::RenderWindow &gt;</text>
</a>
</g>
</g>
<!-- Node2&#45;&gt;Node1 -->
<g id="edge1" class="edge">
<title>Node2&#45;&gt;Node1</title>
<path fill="none" stroke="#9a32cd" stroke-dasharray="5,2" d="M1149.19,-259.39C1177.76,-247.78 1212.96,-231.69 1242,-213 1261.73,-200.3 1281.62,-181.44 1292.96,-169.98"/>
<polygon fill="#9a32cd" stroke="#9a32cd" points="1147.99,-256.1 1140,-263.05 1150.59,-262.6 1147.99,-256.1"/>
<text text-anchor="middle" x="1207" y="-252" font-family="Helvetica,sans-Serif" font-size="10.00"> window</text>
</g>
<!-- Node3 -->
<g id="node3" class="node">
<title>Node3</title>
<g id="a_node3"><a xlink:href="classengine_1_1_render_window.html" target="_top" xlink:title=" ">
<polygon fill="white" stroke="#bfbfbf" points="984,-337.5 869,-337.5 869,-318.5 984,-318.5 984,-337.5"/>
<text text-anchor="middle" x="926.5" y="-325.5" font-family="Helvetica,sans-Serif" font-size="10.00">engine::RenderWindow</text>
</a>
</g>
</g>
<!-- Node3&#45;&gt;Node2 -->
<g id="edge2" class="edge">
<title>Node3&#45;&gt;Node2</title>
<path fill="none" stroke="#9a32cd" stroke-dasharray="5,2" d="M972.21,-314.84C993.5,-308.58 1019.11,-301.04 1041.34,-294.5"/>
<polygon fill="#9a32cd" stroke="#9a32cd" points="971.25,-311.48 962.65,-317.66 973.23,-318.19 971.25,-311.48"/>
<text text-anchor="middle" x="1011" y="-307" font-family="Helvetica,sans-Serif" font-size="10.00"> ptr</text>
</g>
<!-- Node4 -->
<g id="node4" class="node">
<title>Node4</title>
<g id="a_node4"><a xlink:title=" ">
<polygon fill="white" stroke="#bfbfbf" points="728,-377.5 633,-377.5 633,-358.5 728,-358.5 728,-377.5"/>
<text text-anchor="middle" x="680.5" y="-365.5" font-family="Helvetica,sans-Serif" font-size="10.00">sf::RenderWindow</text>
</a>
</g>
</g>
<!-- Node4&#45;&gt;Node3 -->
<g id="edge3" class="edge">
<title>Node4&#45;&gt;Node3</title>
<path fill="none" stroke="#63b8ff" d="M739.44,-358.5C778.49,-352.1 829.77,-343.69 868.6,-337.33"/>
<polygon fill="#63b8ff" stroke="#63b8ff" points="739.05,-355.02 729.75,-360.09 740.19,-361.93 739.05,-355.02"/>
</g>
<!-- Node5 -->
<g id="node5" class="node">
<title>Node5</title>
<g id="a_node5"><a xlink:title=" ">
<polygon fill="white" stroke="#666666" points="1154,-238 1036,-238 1036,-208 1154,-208 1154,-238"/>
<text text-anchor="start" x="1044" y="-226" font-family="Helvetica,sans-Serif" font-size="10.00">std::shared_ptr&lt; uranus</text>
<text text-anchor="middle" x="1095" y="-215" font-family="Helvetica,sans-Serif" font-size="10.00">::ecs::Registry &gt;</text>
</a>
</g>
</g>
<!-- Node5&#45;&gt;Node1 -->
<g id="edge4" class="edge">
<title>Node5&#45;&gt;Node1</title>
<path fill="none" stroke="#9a32cd" stroke-dasharray="5,2" d="M1157.44,-204.26C1194.37,-192.99 1239.88,-179.1 1269.97,-169.92"/>
<polygon fill="#9a32cd" stroke="#9a32cd" points="1156.77,-200.8 1148.23,-207.07 1158.81,-207.5 1156.77,-200.8"/>
<text text-anchor="middle" x="1207" y="-201" font-family="Helvetica,sans-Serif" font-size="10.00"> registry</text>
</g>
<!-- Node6 -->
<g id="node6" class="node">
<title>Node6</title>
<g id="a_node6"><a xlink:href="classuranus_1_1ecs_1_1_registry.html" target="_top" xlink:title="Registry class, used to store and manage entities and their components.">
<polygon fill="white" stroke="#666666" points="979.5,-260.5 873.5,-260.5 873.5,-241.5 979.5,-241.5 979.5,-260.5"/>
<text text-anchor="middle" x="926.5" y="-248.5" font-family="Helvetica,sans-Serif" font-size="10.00">uranus::ecs::Registry</text>
</a>
</g>
</g>
<!-- Node6&#45;&gt;Node5 -->
<g id="edge5" class="edge">
<title>Node6&#45;&gt;Node5</title>
<path fill="none" stroke="#9a32cd" stroke-dasharray="5,2" d="M990.77,-240.36C1005.49,-237.88 1021.09,-235.26 1035.59,-232.82"/>
<polygon fill="#9a32cd" stroke="#9a32cd" points="990.5,-236.86 981.22,-241.97 991.66,-243.76 990.5,-236.86"/>
<text text-anchor="middle" x="1011" y="-240" font-family="Helvetica,sans-Serif" font-size="10.00"> ptr</text>
</g>
<!-- Node7 -->
<g id="node7" class="node">
<title>Node7</title>
<g id="a_node7"><a xlink:title=" ">
<polygon fill="white" stroke="#666666" points="734,-340.5 627,-340.5 627,-299.5 734,-299.5 734,-340.5"/>
<text text-anchor="start" x="635" y="-328.5" font-family="Helvetica,sans-Serif" font-size="10.00">std::unordered_map</text>
<text text-anchor="start" x="635" y="-317.5" font-family="Helvetica,sans-Serif" font-size="10.00">&lt; std::type_index, std</text>
<text text-anchor="middle" x="680.5" y="-306.5" font-family="Helvetica,sans-Serif" font-size="10.00">::any &gt;</text>
</a>
</g>
</g>
<!-- Node7&#45;&gt;Node6 -->
<g id="edge6" class="edge">
<title>Node7&#45;&gt;Node6</title>
<path fill="none" stroke="#9a32cd" stroke-dasharray="5,2" d="M745.28,-301.96C791.6,-288.87 852.54,-271.63 890.35,-260.94"/>
<polygon fill="#9a32cd" stroke="#9a32cd" points="744.57,-298.53 735.9,-304.62 746.48,-305.26 744.57,-298.53"/>
<text text-anchor="middle" x="804.5" y="-300" font-family="Helvetica,sans-Serif" font-size="10.00"> _componentsArrays</text>
</g>
<!-- Node8 -->
<g id="node8" class="node">
<title>Node8</title>
<g id="a_node8"><a xlink:title=" ">
<polygon fill="white" stroke="#666666" points="734,-281 627,-281 627,-229 734,-229 734,-281"/>
<text text-anchor="start" x="635" y="-269" font-family="Helvetica,sans-Serif" font-size="10.00">std::unordered_map</text>
<text text-anchor="start" x="635" y="-258" font-family="Helvetica,sans-Serif" font-size="10.00">&lt; std::type_index, std</text>
<text text-anchor="start" x="635" y="-247" font-family="Helvetica,sans-Serif" font-size="10.00">::function&lt; void(size</text>
<text text-anchor="middle" x="680.5" y="-236" font-family="Helvetica,sans-Serif" font-size="10.00">_t const &amp;)&gt; &gt;</text>
</a>
</g>
</g>
<!-- Node8&#45;&gt;Node6 -->
<g id="edge7" class="edge">
<title>Node8&#45;&gt;Node6</title>
<path fill="none" stroke="#9a32cd" stroke-dasharray="5,2" d="M745.87,-253.94C785.56,-253.29 835.82,-252.47 873.08,-251.86"/>
<polygon fill="#9a32cd" stroke="#9a32cd" points="745.9,-250.44 735.96,-254.11 746.01,-257.44 745.9,-250.44"/>
<text text-anchor="middle" x="804.5" y="-256" font-family="Helvetica,sans-Serif" font-size="10.00"> _destroyArrays</text>
</g>
<!-- Node9 -->
<g id="node9" class="node">
<title>Node9</title>
<g id="a_node9"><a xlink:title=" ">
<polygon fill="white" stroke="#666666" points="725,-210.5 636,-210.5 636,-191.5 725,-191.5 725,-210.5"/>
<text text-anchor="middle" x="680.5" y="-198.5" font-family="Helvetica,sans-Serif" font-size="10.00">std::list&lt; size_t &gt;</text>
</a>
</g>
</g>
<!-- Node9&#45;&gt;Node6 -->
<g id="edge8" class="edge">
<title>Node9&#45;&gt;Node6</title>
<path fill="none" stroke="#9a32cd" stroke-dasharray="5,2" d="M736.6,-212.29C778.79,-220.94 836.45,-232.75 876.93,-241.05"/>
<polygon fill="#9a32cd" stroke="#9a32cd" points="737.39,-208.88 726.89,-210.3 735.98,-215.74 737.39,-208.88"/>
<text text-anchor="middle" x="804.5" y="-237" font-family="Helvetica,sans-Serif" font-size="10.00"> _freeIds</text>
</g>
<!-- Node10 -->
<g id="node10" class="node">
<title>Node10</title>
<g id="a_node10"><a xlink:title=" ">
<polygon fill="white" stroke="#666666" points="1153.5,-127 1036.5,-127 1036.5,-97 1153.5,-97 1153.5,-127"/>
<text text-anchor="start" x="1044.5" y="-115" font-family="Helvetica,sans-Serif" font-size="10.00">std::shared_ptr&lt; engine</text>
<text text-anchor="middle" x="1095" y="-104" font-family="Helvetica,sans-Serif" font-size="10.00">::SceneManager &gt;</text>
</a>
</g>
</g>
<!-- Node10&#45;&gt;Node1 -->
<g id="edge9" class="edge">
<title>Node10&#45;&gt;Node1</title>
<path fill="none" stroke="#9a32cd" stroke-dasharray="5,2" d="M1164.92,-127.27C1189.3,-132.75 1216.89,-139.05 1242,-145 1248.74,-146.6 1255.89,-148.33 1262.83,-150.04"/>
<polygon fill="#9a32cd" stroke="#9a32cd" points="1165.97,-123.92 1155.45,-125.14 1164.44,-130.75 1165.97,-123.92"/>
<text text-anchor="middle" x="1207" y="-148" font-family="Helvetica,sans-Serif" font-size="10.00"> sceneManager</text>
</g>
<!-- Node11 -->
<g id="node11" class="node">
<title>Node11</title>
<g id="a_node11"><a xlink:href="classengine_1_1_scene_manager.html" target="_top" xlink:title=" ">
<polygon fill="white" stroke="#bfbfbf" points="984,-121.5 869,-121.5 869,-102.5 984,-102.5 984,-121.5"/>
<text text-anchor="middle" x="926.5" y="-109.5" font-family="Helvetica,sans-Serif" font-size="10.00">engine::SceneManager</text>
</a>
</g>
</g>
<!-- Node11&#45;&gt;Node10 -->
<g id="edge10" class="edge">
<title>Node11&#45;&gt;Node10</title>
<path fill="none" stroke="#9a32cd" stroke-dasharray="5,2" d="M995.47,-112C1008.92,-112 1022.92,-112 1036.01,-112"/>
<polygon fill="#9a32cd" stroke="#9a32cd" points="995.85,-108.5 985.85,-112 995.85,-115.5 995.85,-108.5"/>
<text text-anchor="middle" x="1011" y="-115" font-family="Helvetica,sans-Serif" font-size="10.00"> ptr</text>
</g>
<!-- Node12 -->
<g id="node12" class="node">
<title>Node12</title>
<g id="a_node12"><a xlink:title=" ">
<polygon fill="white" stroke="#666666" points="540,-90 423,-90 423,-60 540,-60 540,-90"/>
<text text-anchor="start" x="431" y="-78" font-family="Helvetica,sans-Serif" font-size="10.00">std::shared_ptr&lt; engine</text>
<text text-anchor="middle" x="481.5" y="-67" font-family="Helvetica,sans-Serif" font-size="10.00">::Scene &gt;</text>
</a>
</g>
</g>
<!-- Node12&#45;&gt;Node11 -->
<g id="edge11" class="edge">
<title>Node12&#45;&gt;Node11</title>
<path fill="none" stroke="#9a32cd" stroke-dasharray="5,2" d="M551.39,-85.25C553.62,-85.51 555.83,-85.77 558,-86 667.69,-97.85 796.42,-105.54 868.72,-109.29"/>
<polygon fill="#9a32cd" stroke="#9a32cd" points="552.01,-81.8 541.66,-84.04 551.15,-88.75 552.01,-81.8"/>
<text text-anchor="middle" x="680.5" y="-105" font-family="Helvetica,sans-Serif" font-size="10.00"> _actualScene</text>
</g>
<!-- Node16 -->
<g id="node16" class="node">
<title>Node16</title>
<g id="a_node16"><a xlink:title=" ">
<polygon fill="white" stroke="#666666" points="740,-78 621,-78 621,-48 740,-48 740,-78"/>
<text text-anchor="start" x="629" y="-66" font-family="Helvetica,sans-Serif" font-size="10.00">std::vector&lt; std::shared</text>
<text text-anchor="middle" x="680.5" y="-55" font-family="Helvetica,sans-Serif" font-size="10.00">_ptr&lt; engine::Scene &gt; &gt;</text>
</a>
</g>
</g>
<!-- Node12&#45;&gt;Node16 -->
<g id="edge16" class="edge">
<title>Node12&#45;&gt;Node16</title>
<path fill="none" stroke="#9a32cd" stroke-dasharray="5,2" d="M551.5,-70.8C574.08,-69.42 598.94,-67.91 620.7,-66.58"/>
<polygon fill="#9a32cd" stroke="#9a32cd" points="551.55,-67.29 541.79,-71.39 551.98,-74.27 551.55,-67.29"/>
<text text-anchor="middle" x="579.5" y="-74" font-family="Helvetica,sans-Serif" font-size="10.00"> elements</text>
</g>
<!-- Node13 -->
<g id="node13" class="node">
<title>Node13</title>
<g id="a_node13"><a xlink:href="classengine_1_1_scene.html" target="_top" xlink:title=" ">
<polygon fill="white" stroke="#bfbfbf" points="370.5,-84.5 293.5,-84.5 293.5,-65.5 370.5,-65.5 370.5,-84.5"/>
<text text-anchor="middle" x="332" y="-72.5" font-family="Helvetica,sans-Serif" font-size="10.00">engine::Scene</text>
</a>
</g>
</g>
<!-- Node13&#45;&gt;Node12 -->
<g id="edge12" class="edge">
<title>Node13&#45;&gt;Node12</title>
<path fill="none" stroke="#9a32cd" stroke-dasharray="5,2" d="M382.45,-75C395.32,-75 409.32,-75 422.59,-75"/>
<polygon fill="#9a32cd" stroke="#9a32cd" points="382.5,-71.5 372.5,-75 382.5,-78.5 382.5,-71.5"/>
<text text-anchor="middle" x="398" y="-78" font-family="Helvetica,sans-Serif" font-size="10.00"> ptr</text>
</g>
<!-- Node14 -->
<g id="node14" class="node">
<title>Node14</title>
<g id="a_node14"><a xlink:title=" ">
<polygon fill="white" stroke="#666666" points="190.5,-84.5 131.5,-84.5 131.5,-65.5 190.5,-65.5 190.5,-84.5"/>
<text text-anchor="middle" x="161" y="-72.5" font-family="Helvetica,sans-Serif" font-size="10.00">std::string</text>
</a>
</g>
</g>
<!-- Node14&#45;&gt;Node13 -->
<g id="edge13" class="edge">
<title>Node14&#45;&gt;Node13</title>
<path fill="none" stroke="#9a32cd" stroke-dasharray="5,2" d="M201.92,-75C229.56,-75 266.12,-75 293.28,-75"/>
<polygon fill="#9a32cd" stroke="#9a32cd" points="202.18,-71.5 192.18,-75 202.18,-78.5 202.18,-71.5"/>
<text text-anchor="middle" x="241.5" y="-78" font-family="Helvetica,sans-Serif" font-size="10.00"> _name</text>
</g>
<!-- Node21 -->
<g id="node21" class="node">
<title>Node21</title>
<g id="a_node21"><a xlink:href="classengine_1_1_texture.html" target="_top" xlink:title=" ">
<polygon fill="white" stroke="#bfbfbf" points="373,-146.5 291,-146.5 291,-127.5 373,-127.5 373,-146.5"/>
<text text-anchor="middle" x="332" y="-134.5" font-family="Helvetica,sans-Serif" font-size="10.00">engine::Texture</text>
</a>
</g>
</g>
<!-- Node14&#45;&gt;Node21 -->
<g id="edge23" class="edge">
<title>Node14&#45;&gt;Node21</title>
<path fill="none" stroke="#9a32cd" stroke-dasharray="5,2" d="M199.76,-88.85C231.37,-100.45 275.73,-116.72 303.91,-127.06"/>
<polygon fill="#9a32cd" stroke="#9a32cd" points="201.17,-85.64 190.57,-85.48 198.76,-92.21 201.17,-85.64"/>
<text text-anchor="middle" x="241.5" y="-118" font-family="Helvetica,sans-Serif" font-size="10.00"> _name</text>
</g>
<!-- Node27 -->
<g id="node27" class="node">
<title>Node27</title>
<g id="a_node27"><a xlink:href="classengine_1_1_base.html" target="_top" xlink:title=" ">
<polygon fill="white" stroke="#bfbfbf" points="368,-42.5 296,-42.5 296,-23.5 368,-23.5 368,-42.5"/>
<text text-anchor="middle" x="332" y="-30.5" font-family="Helvetica,sans-Serif" font-size="10.00">engine::Base</text>
</a>
</g>
</g>
<!-- Node14&#45;&gt;Node27 -->
<g id="edge29" class="edge">
<title>Node14&#45;&gt;Node27</title>
<path fill="none" stroke="#9a32cd" stroke-dasharray="5,2" d="M201.64,-62.33C204.46,-61.52 207.27,-60.73 210,-60 238.59,-52.36 271.38,-45.14 295.6,-40.09"/>
<polygon fill="#9a32cd" stroke="#9a32cd" points="200.85,-58.91 192.27,-65.13 202.86,-65.62 200.85,-58.91"/>
<text text-anchor="middle" x="241.5" y="-63" font-family="Helvetica,sans-Serif" font-size="10.00"> _uniqueName</text>
</g>
<!-- Node15 -->
<g id="node15" class="node">
<title>Node15</title>
<g id="a_node15"><a xlink:title=" ">
<polygon fill="white" stroke="#666666" points="93,-90 0,-90 0,-60 93,-60 93,-90"/>
<text text-anchor="start" x="8" y="-78" font-family="Helvetica,sans-Serif" font-size="10.00">std::basic_string&lt;</text>
<text text-anchor="middle" x="46.5" y="-67" font-family="Helvetica,sans-Serif" font-size="10.00"> Char &gt;</text>
</a>
</g>
</g>
<!-- Node15&#45;&gt;Node14 -->
<g id="edge14" class="edge">
<title>Node15&#45;&gt;Node14</title>
<path fill="none" stroke="#63b8ff" d="M104.76,-75C113.88,-75 122.97,-75 131.06,-75"/>
<polygon fill="#63b8ff" stroke="#63b8ff" points="104.77,-71.5 94.77,-75 104.77,-78.5 104.77,-71.5"/>
</g>
<!-- Node16&#45;&gt;Node11 -->
<g id="edge15" class="edge">
<title>Node16&#45;&gt;Node11</title>
<path fill="none" stroke="#9a32cd" stroke-dasharray="5,2" d="M751.67,-71.69C781.81,-75.99 817.32,-81.81 849,-89 864.69,-92.56 881.87,-97.61 895.96,-102.08"/>
<polygon fill="#9a32cd" stroke="#9a32cd" points="752.29,-68.24 741.9,-70.33 751.32,-75.18 752.29,-68.24"/>
<text text-anchor="middle" x="804.5" y="-92" font-family="Helvetica,sans-Serif" font-size="10.00"> _scenes</text>
</g>
<!-- Node17 -->
<g id="node17" class="node">
<title>Node17</title>
<g id="a_node17"><a xlink:title=" ">
<polygon fill="white" stroke="#666666" points="1153.5,-175 1036.5,-175 1036.5,-145 1153.5,-145 1153.5,-175"/>
<text text-anchor="start" x="1044.5" y="-163" font-family="Helvetica,sans-Serif" font-size="10.00">std::shared_ptr&lt; engine</text>
<text text-anchor="middle" x="1095" y="-152" font-family="Helvetica,sans-Serif" font-size="10.00">::TextureManager &gt;</text>
</a>
</g>
</g>
<!-- Node17&#45;&gt;Node1 -->
<g id="edge17" class="edge">
<title>Node17&#45;&gt;Node1</title>
<path fill="none" stroke="#9a32cd" stroke-dasharray="5,2" d="M1165.1,-160C1196.43,-160 1232.49,-160 1259.81,-160"/>
<polygon fill="#9a32cd" stroke="#9a32cd" points="1165.31,-156.5 1155.31,-160 1165.31,-163.5 1165.31,-156.5"/>
<text text-anchor="middle" x="1207" y="-163" font-family="Helvetica,sans-Serif" font-size="10.00"> textureManager</text>
</g>
<!-- Node18 -->
<g id="node18" class="node">
<title>Node18</title>
<g id="a_node18"><a xlink:href="classengine_1_1_texture_manager.html" target="_top" xlink:title=" ">
<polygon fill="white" stroke="#bfbfbf" points="986,-168.5 867,-168.5 867,-149.5 986,-149.5 986,-168.5"/>
<text text-anchor="middle" x="926.5" y="-156.5" font-family="Helvetica,sans-Serif" font-size="10.00">engine::TextureManager</text>
</a>
</g>
</g>
<!-- Node18&#45;&gt;Node17 -->
<g id="edge18" class="edge">
<title>Node18&#45;&gt;Node17</title>
<path fill="none" stroke="#9a32cd" stroke-dasharray="5,2" d="M997.39,-159.42C1010.28,-159.5 1023.62,-159.58 1036.11,-159.65"/>
<polygon fill="#9a32cd" stroke="#9a32cd" points="997.74,-155.92 987.72,-159.36 997.69,-162.92 997.74,-155.92"/>
<text text-anchor="middle" x="1011" y="-162" font-family="Helvetica,sans-Serif" font-size="10.00"> ptr</text>
</g>
<!-- Node19 -->
<g id="node19" class="node">
<title>Node19</title>
<g id="a_node19"><a xlink:title=" ">
<polygon fill="white" stroke="#666666" points="742,-173 619,-173 619,-143 742,-143 742,-173"/>
<text text-anchor="start" x="627" y="-161" font-family="Helvetica,sans-Serif" font-size="10.00">std::vector&lt; std::shared</text>
<text text-anchor="middle" x="680.5" y="-150" font-family="Helvetica,sans-Serif" font-size="10.00">_ptr&lt; engine::Texture &gt; &gt;</text>
</a>
</g>
</g>
<!-- Node19&#45;&gt;Node18 -->
<g id="edge19" class="edge">
<title>Node19&#45;&gt;Node18</title>
<path fill="none" stroke="#9a32cd" stroke-dasharray="5,2" d="M753.85,-158.3C789.8,-158.44 832.68,-158.62 866.6,-158.76"/>
<polygon fill="#9a32cd" stroke="#9a32cd" points="753.97,-154.8 743.96,-158.26 753.94,-161.8 753.97,-154.8"/>
<text text-anchor="middle" x="804.5" y="-161" font-family="Helvetica,sans-Serif" font-size="10.00"> _textures</text>
</g>
<!-- Node20 -->
<g id="node20" class="node">
<title>Node20</title>
<g id="a_node20"><a xlink:title=" ">
<polygon fill="white" stroke="#666666" points="540,-155 423,-155 423,-125 540,-125 540,-155"/>
<text text-anchor="start" x="431" y="-143" font-family="Helvetica,sans-Serif" font-size="10.00">std::shared_ptr&lt; engine</text>
<text text-anchor="middle" x="481.5" y="-132" font-family="Helvetica,sans-Serif" font-size="10.00">::Texture &gt;</text>
</a>
</g>
</g>
<!-- Node20&#45;&gt;Node19 -->
<g id="edge20" class="edge">
<title>Node20&#45;&gt;Node19</title>
<path fill="none" stroke="#9a32cd" stroke-dasharray="5,2" d="M551.49,-146.3C573.37,-148.3 597.38,-150.5 618.64,-152.44"/>
<polygon fill="#9a32cd" stroke="#9a32cd" points="552.06,-142.84 541.78,-145.42 551.42,-149.81 552.06,-142.84"/>
<text text-anchor="middle" x="579.5" y="-153" font-family="Helvetica,sans-Serif" font-size="10.00"> elements</text>
</g>
<!-- Node21&#45;&gt;Node20 -->
<g id="edge21" class="edge">
<title>Node21&#45;&gt;Node20</title>
<path fill="none" stroke="#9a32cd" stroke-dasharray="5,2" d="M384.71,-138.05C396.94,-138.3 410.06,-138.57 422.55,-138.82"/>
<polygon fill="#9a32cd" stroke="#9a32cd" points="384.89,-134.55 374.82,-137.85 384.74,-141.55 384.89,-134.55"/>
<text text-anchor="middle" x="398" y="-141" font-family="Helvetica,sans-Serif" font-size="10.00"> ptr</text>
</g>
<!-- Node22 -->
<g id="node22" class="node">
<title>Node22</title>
<g id="a_node22"><a xlink:title=" ">
<polygon fill="white" stroke="#bfbfbf" points="192,-146.5 130,-146.5 130,-127.5 192,-127.5 192,-146.5"/>
<text text-anchor="middle" x="161" y="-134.5" font-family="Helvetica,sans-Serif" font-size="10.00">sf::Texture</text>
</a>
</g>
</g>
<!-- Node22&#45;&gt;Node21 -->
<g id="edge22" class="edge">
<title>Node22&#45;&gt;Node21</title>
<path fill="none" stroke="#63b8ff" d="M203.43,-137C229.97,-137 264.23,-137 290.57,-137"/>
<polygon fill="#63b8ff" stroke="#63b8ff" points="203.73,-133.5 193.73,-137 203.73,-140.5 203.73,-133.5"/>
</g>
<!-- Node23 -->
<g id="node23" class="node">
<title>Node23</title>
<g id="a_node23"><a xlink:title=" ">
<polygon fill="white" stroke="#666666" points="1153.5,-78 1036.5,-78 1036.5,-48 1153.5,-48 1153.5,-78"/>
<text text-anchor="start" x="1044.5" y="-66" font-family="Helvetica,sans-Serif" font-size="10.00">std::shared_ptr&lt; engine</text>
<text text-anchor="middle" x="1095" y="-55" font-family="Helvetica,sans-Serif" font-size="10.00">::EntityManager &gt;</text>
</a>
</g>
</g>
<!-- Node23&#45;&gt;Node1 -->
<g id="edge24" class="edge">
<title>Node23&#45;&gt;Node1</title>
<path fill="none" stroke="#9a32cd" stroke-dasharray="5,2" d="M1164.17,-81.9C1189.36,-90.14 1217.69,-100.94 1242,-114 1260.83,-124.12 1280.06,-139.85 1291.64,-150.04"/>
<polygon fill="#9a32cd" stroke="#9a32cd" points="1165.24,-78.57 1154.65,-78.87 1163.12,-85.24 1165.24,-78.57"/>
<text text-anchor="middle" x="1207" y="-117" font-family="Helvetica,sans-Serif" font-size="10.00"> entityManager</text>
</g>
<!-- Node24 -->
<g id="node24" class="node">
<title>Node24</title>
<g id="a_node24"><a xlink:href="classengine_1_1_entity_manager.html" target="_top" xlink:title=" ">
<polygon fill="white" stroke="#bfbfbf" points="982,-63.5 871,-63.5 871,-44.5 982,-44.5 982,-63.5"/>
<text text-anchor="middle" x="926.5" y="-51.5" font-family="Helvetica,sans-Serif" font-size="10.00">engine::EntityManager</text>
</a>
</g>
</g>
<!-- Node24&#45;&gt;Node23 -->
<g id="edge25" class="edge">
<title>Node24&#45;&gt;Node23</title>
<path fill="none" stroke="#9a32cd" stroke-dasharray="5,2" d="M993.6,-57.57C1007.69,-58.33 1022.47,-59.13 1036.22,-59.88"/>
<polygon fill="#9a32cd" stroke="#9a32cd" points="994.17,-54.1 983.99,-57.05 993.79,-61.09 994.17,-54.1"/>
<text text-anchor="middle" x="1011" y="-62" font-family="Helvetica,sans-Serif" font-size="10.00"> ptr</text>
</g>
<!-- Node25 -->
<g id="node25" class="node">
<title>Node25</title>
<g id="a_node25"><a xlink:title=" ">
<polygon fill="white" stroke="#666666" points="739,-30 622,-30 622,0 739,0 739,-30"/>
<text text-anchor="start" x="630" y="-18" font-family="Helvetica,sans-Serif" font-size="10.00">std::vector&lt; std::shared</text>
<text text-anchor="middle" x="680.5" y="-7" font-family="Helvetica,sans-Serif" font-size="10.00">_ptr&lt; engine::Base &gt; &gt;</text>
</a>
</g>
</g>
<!-- Node25&#45;&gt;Node24 -->
<g id="edge26" class="edge">
<title>Node25&#45;&gt;Node24</title>
<path fill="none" stroke="#9a32cd" stroke-dasharray="5,2" d="M750.32,-26C788.38,-32.08 835.02,-39.54 870.6,-45.23"/>
<polygon fill="#9a32cd" stroke="#9a32cd" points="751.25,-22.6 740.82,-24.48 750.14,-29.52 751.25,-22.6"/>
<text text-anchor="middle" x="804.5" y="-45" font-family="Helvetica,sans-Serif" font-size="10.00"> _prefabs</text>
</g>
<!-- Node26 -->
<g id="node26" class="node">
<title>Node26</title>
<g id="a_node26"><a xlink:title=" ">
<polygon fill="white" stroke="#666666" points="540,-37 423,-37 423,-7 540,-7 540,-37"/>
<text text-anchor="start" x="431" y="-25" font-family="Helvetica,sans-Serif" font-size="10.00">std::shared_ptr&lt; engine</text>
<text text-anchor="middle" x="481.5" y="-14" font-family="Helvetica,sans-Serif" font-size="10.00">::Base &gt;</text>
</a>
</g>
</g>
<!-- Node26&#45;&gt;Node25 -->
<g id="edge27" class="edge">
<title>Node26&#45;&gt;Node25</title>
<path fill="none" stroke="#9a32cd" stroke-dasharray="5,2" d="M551.65,-19.54C574.55,-18.73 599.78,-17.83 621.73,-17.05"/>
<polygon fill="#9a32cd" stroke="#9a32cd" points="551.66,-16.04 541.79,-19.89 551.91,-23.04 551.66,-16.04"/>
<text text-anchor="middle" x="579.5" y="-23" font-family="Helvetica,sans-Serif" font-size="10.00"> elements</text>
</g>
<!-- Node27&#45;&gt;Node26 -->
<g id="edge28" class="edge">
<title>Node27&#45;&gt;Node26</title>
<path fill="none" stroke="#9a32cd" stroke-dasharray="5,2" d="M379.46,-29.54C393.18,-28.51 408.37,-27.38 422.71,-26.31"/>
<polygon fill="#9a32cd" stroke="#9a32cd" points="379.55,-26.02 369.84,-30.25 380.07,-33 379.55,-26.02"/>
<text text-anchor="middle" x="398" y="-32" font-family="Helvetica,sans-Serif" font-size="10.00"> ptr</text>
</g>
</g>
</svg>
