<?xml version="1.0" encoding="UTF-8" standalone="no"?>
<!DOCTYPE svg PUBLIC "-//W3C//DTD SVG 1.1//EN"
 "http://www.w3.org/Graphics/SVG/1.1/DTD/svg11.dtd">
<!-- Generated by graphviz version 7.0.5 (20221223.1930)
 -->
<!-- Title: tson::MemoryStream Pages: 1 -->
<svg width="121pt" height="258pt"
 viewBox="0.00 0.00 121.00 258.00" xmlns="http://www.w3.org/2000/svg" xmlns:xlink="http://www.w3.org/1999/xlink">
<g id="graph0" class="graph" transform="scale(1 1) rotate(0) translate(4 254)">
<title>tson::MemoryStream</title>
<!-- Node1 -->
<g id="node1" class="node">
<title>Node1</title>
<g id="a_node1"><a xlink:title=" ">
<polygon fill="#999999" stroke="#666666" points="109.5,-19 3.5,-19 3.5,0 109.5,0 109.5,-19"/>
<text text-anchor="middle" x="56.5" y="-7" font-family="Helvetica,sans-Serif" font-size="10.00">tson::MemoryStream</text>
</a>
</g>
</g>
<!-- Node2 -->
<g id="node2" class="node">
<title>Node2</title>
<g id="a_node2"><a xlink:title=" ">
<polygon fill="white" stroke="#666666" points="90,-74 23,-74 23,-55 90,-55 90,-74"/>
<text text-anchor="middle" x="56.5" y="-62" font-family="Helvetica,sans-Serif" font-size="10.00">std::istream</text>
</a>
</g>
</g>
<!-- Node2&#45;&gt;Node1 -->
<g id="edge1" class="edge">
<title>Node2&#45;&gt;Node1</title>
<path fill="none" stroke="#63b8ff" d="M56.5,-43.35C56.5,-35.1 56.5,-25.97 56.5,-19.44"/>
<polygon fill="#63b8ff" stroke="#63b8ff" points="53,-43.23 56.5,-53.23 60,-43.23 53,-43.23"/>
</g>
<!-- Node3 -->
<g id="node3" class="node">
<title>Node3</title>
<g id="a_node3"><a xlink:title=" ">
<polygon fill="white" stroke="#666666" points="104,-140 9,-140 9,-110 104,-110 104,-140"/>
<text text-anchor="start" x="17" y="-128" font-family="Helvetica,sans-Serif" font-size="10.00">std::basic_istream</text>
<text text-anchor="middle" x="56.5" y="-117" font-family="Helvetica,sans-Serif" font-size="10.00">&lt; Char &gt;</text>
</a>
</g>
</g>
<!-- Node3&#45;&gt;Node2 -->
<g id="edge2" class="edge">
<title>Node3&#45;&gt;Node2</title>
<path fill="none" stroke="#63b8ff" d="M56.5,-98.3C56.5,-89.65 56.5,-80.58 56.5,-74.18"/>
<polygon fill="#63b8ff" stroke="#63b8ff" points="53,-98.03 56.5,-108.03 60,-98.03 53,-98.03"/>
</g>
<!-- Node4 -->
<g id="node4" class="node">
<title>Node4</title>
<g id="a_node4"><a xlink:title=" ">
<polygon fill="white" stroke="#666666" points="113,-195 0,-195 0,-176 113,-176 113,-195"/>
<text text-anchor="middle" x="56.5" y="-183" font-family="Helvetica,sans-Serif" font-size="10.00">std::basic_ios&lt; Char &gt;</text>
</a>
</g>
</g>
<!-- Node4&#45;&gt;Node3 -->
<g id="edge3" class="edge">
<title>Node4&#45;&gt;Node3</title>
<path fill="none" stroke="#63b8ff" d="M56.5,-164.51C56.5,-156.49 56.5,-147.43 56.5,-140.11"/>
<polygon fill="#63b8ff" stroke="#63b8ff" points="53,-164.35 56.5,-174.35 60,-164.35 53,-164.35"/>
</g>
<!-- Node5 -->
<g id="node5" class="node">
<title>Node5</title>
<g id="a_node5"><a xlink:title=" ">
<polygon fill="white" stroke="#666666" points="93.5,-250 19.5,-250 19.5,-231 93.5,-231 93.5,-250"/>
<text text-anchor="middle" x="56.5" y="-238" font-family="Helvetica,sans-Serif" font-size="10.00">std::ios_base</text>
</a>
</g>
</g>
<!-- Node5&#45;&gt;Node4 -->
<g id="edge4" class="edge">
<title>Node5&#45;&gt;Node4</title>
<path fill="none" stroke="#63b8ff" d="M56.5,-219.35C56.5,-211.1 56.5,-201.97 56.5,-195.44"/>
<polygon fill="#63b8ff" stroke="#63b8ff" points="53,-219.23 56.5,-229.23 60,-219.23 53,-219.23"/>
</g>
</g>
</svg>
