<?xml version="1.0" encoding="UTF-8" standalone="no"?>
<!DOCTYPE svg PUBLIC "-//W3C//DTD SVG 1.1//EN"
 "http://www.w3.org/Graphics/SVG/1.1/DTD/svg11.dtd">
<!-- Generated by graphviz version 7.0.5 (20221223.1930)
 -->
<!-- Title: tson::Base64Decompressor Pages: 1 -->
<svg width="209pt" height="182pt"
 viewBox="0.00 0.00 208.50 182.00" xmlns="http://www.w3.org/2000/svg" xmlns:xlink="http://www.w3.org/1999/xlink">
<g id="graph0" class="graph" transform="scale(1 1) rotate(0) translate(4 178)">
<title>tson::Base64Decompressor</title>
<!-- Node1 -->
<g id="node1" class="node">
<title>Node1</title>
<g id="a_node1"><a xlink:title=" ">
<polygon fill="#999999" stroke="#666666" points="137,-19 1,-19 1,0 137,0 137,-19"/>
<text text-anchor="middle" x="69" y="-7" font-family="Helvetica,sans-Serif" font-size="10.00">tson::Base64Decompressor</text>
</a>
</g>
</g>
<!-- Node2 -->
<g id="node2" class="node">
<title>Node2</title>
<g id="a_node2"><a xlink:href="classtson_1_1_i_decompressor.html" target="_top" xlink:title=" ">
<polygon fill="white" stroke="#bfbfbf" points="106,-107 0,-107 0,-66 106,-66 106,-107"/>
<text text-anchor="start" x="8" y="-95" font-family="Helvetica,sans-Serif" font-size="10.00">tson::IDecompressor</text>
<text text-anchor="start" x="8" y="-84" font-family="Helvetica,sans-Serif" font-size="10.00">&lt; std::string_view,</text>
<text text-anchor="middle" x="53" y="-73" font-family="Helvetica,sans-Serif" font-size="10.00"> std::string &gt;</text>
</a>
</g>
</g>
<!-- Node2&#45;&gt;Node1 -->
<g id="edge1" class="edge">
<title>Node2&#45;&gt;Node1</title>
<path fill="none" stroke="#63b8ff" d="M59.52,-54.92C62.27,-42.03 65.27,-28.01 67.14,-19.24"/>
<polygon fill="#63b8ff" stroke="#63b8ff" points="56.18,-53.8 57.52,-64.31 63.03,-55.26 56.18,-53.8"/>
</g>
<!-- Node3 -->
<g id="node3" class="node">
<title>Node3</title>
<g id="a_node3"><a xlink:title=" ">
<polygon fill="white" stroke="#666666" points="183.5,-96 124.5,-96 124.5,-77 183.5,-77 183.5,-96"/>
<text text-anchor="middle" x="154" y="-84" font-family="Helvetica,sans-Serif" font-size="10.00">std::string</text>
</a>
</g>
</g>
<!-- Node3&#45;&gt;Node1 -->
<g id="edge2" class="edge">
<title>Node3&#45;&gt;Node1</title>
<path fill="none" stroke="#9a32cd" stroke-dasharray="5,2" d="M135.69,-69.35C118.36,-54.06 92.99,-31.67 79.07,-19.39"/>
<polygon fill="#9a32cd" stroke="#9a32cd" points="132.97,-71.61 142.78,-75.6 137.6,-66.36 132.97,-71.61"/>
<text text-anchor="middle" x="126.5" y="-40" font-family="Helvetica,sans-Serif" font-size="10.00"> NAME</text>
</g>
<!-- Node4 -->
<g id="node4" class="node">
<title>Node4</title>
<g id="a_node4"><a xlink:title=" ">
<polygon fill="white" stroke="#666666" points="200.5,-174 107.5,-174 107.5,-144 200.5,-144 200.5,-174"/>
<text text-anchor="start" x="115.5" y="-162" font-family="Helvetica,sans-Serif" font-size="10.00">std::basic_string&lt;</text>
<text text-anchor="middle" x="154" y="-151" font-family="Helvetica,sans-Serif" font-size="10.00"> Char &gt;</text>
</a>
</g>
</g>
<!-- Node4&#45;&gt;Node3 -->
<g id="edge3" class="edge">
<title>Node4&#45;&gt;Node3</title>
<path fill="none" stroke="#63b8ff" d="M154,-132.43C154,-119.82 154,-105.42 154,-96.39"/>
<polygon fill="#63b8ff" stroke="#63b8ff" points="150.5,-132.22 154,-142.22 157.5,-132.22 150.5,-132.22"/>
</g>
</g>
</svg>
