<?xml version="1.0" encoding="UTF-8" standalone="no"?>
<!DOCTYPE svg PUBLIC "-//W3C//DTD SVG 1.1//EN"
 "http://www.w3.org/Graphics/SVG/1.1/DTD/svg11.dtd">
<!-- Generated by graphviz version 7.0.5 (20221223.1930)
 -->
<!-- Title: engine::SceneManager Pages: 1 -->
<svg width="250pt" height="380pt"
 viewBox="0.00 0.00 250.00 380.00" xmlns="http://www.w3.org/2000/svg" xmlns:xlink="http://www.w3.org/1999/xlink">
<g id="graph0" class="graph" transform="scale(1 1) rotate(0) translate(4 376)">
<title>engine::SceneManager</title>
<!-- Node1 -->
<g id="node1" class="node">
<title>Node1</title>
<g id="a_node1"><a xlink:title=" ">
<polygon fill="#999999" stroke="#666666" points="116,-19 1,-19 1,0 116,0 116,-19"/>
<text text-anchor="middle" x="58.5" y="-7" font-family="Helvetica,sans-Serif" font-size="10.00">engine::SceneManager</text>
</a>
</g>
</g>
<!-- Node2 -->
<g id="node2" class="node">
<title>Node2</title>
<g id="a_node2"><a xlink:title=" ">
<polygon fill="white" stroke="#666666" points="117,-173 0,-173 0,-143 117,-143 117,-173"/>
<text text-anchor="start" x="8" y="-161" font-family="Helvetica,sans-Serif" font-size="10.00">std::shared_ptr&lt; engine</text>
<text text-anchor="middle" x="58.5" y="-150" font-family="Helvetica,sans-Serif" font-size="10.00">::Scene &gt;</text>
</a>
</g>
</g>
<!-- Node2&#45;&gt;Node1 -->
<g id="edge1" class="edge">
<title>Node2&#45;&gt;Node1</title>
<path fill="none" stroke="#9a32cd" stroke-dasharray="5,2" d="M54.61,-131.36C52.32,-113.14 50.11,-88.08 51.5,-66 52.55,-49.33 55.35,-30.01 57.07,-19.12"/>
<polygon fill="#9a32cd" stroke="#9a32cd" points="51.11,-131.57 55.93,-141.01 58.05,-130.63 51.11,-131.57"/>
<text text-anchor="middle" x="82.5" y="-78.5" font-family="Helvetica,sans-Serif" font-size="10.00"> _actualScene</text>
</g>
<!-- Node6 -->
<g id="node6" class="node">
<title>Node6</title>
<g id="a_node6"><a xlink:title=" ">
<polygon fill="white" stroke="#666666" points="242,-96 123,-96 123,-66 242,-66 242,-96"/>
<text text-anchor="start" x="131" y="-84" font-family="Helvetica,sans-Serif" font-size="10.00">std::vector&lt; std::shared</text>
<text text-anchor="middle" x="182.5" y="-73" font-family="Helvetica,sans-Serif" font-size="10.00">_ptr&lt; engine::Scene &gt; &gt;</text>
</a>
</g>
</g>
<!-- Node2&#45;&gt;Node6 -->
<g id="edge6" class="edge">
<title>Node2&#45;&gt;Node6</title>
<path fill="none" stroke="#9a32cd" stroke-dasharray="5,2" d="M92.23,-136.6C113.26,-123.88 139.82,-107.82 158.66,-96.42"/>
<polygon fill="#9a32cd" stroke="#9a32cd" points="90.45,-133.59 83.7,-141.76 94.07,-139.58 90.45,-133.59"/>
<text text-anchor="middle" x="149" y="-117" font-family="Helvetica,sans-Serif" font-size="10.00"> elements</text>
</g>
<!-- Node3 -->
<g id="node3" class="node">
<title>Node3</title>
<g id="a_node3"><a xlink:href="classengine_1_1_scene.html" target="_top" xlink:title=" ">
<polygon fill="white" stroke="#bfbfbf" points="97,-239 20,-239 20,-220 97,-220 97,-239"/>
<text text-anchor="middle" x="58.5" y="-227" font-family="Helvetica,sans-Serif" font-size="10.00">engine::Scene</text>
</a>
</g>
</g>
<!-- Node3&#45;&gt;Node2 -->
<g id="edge2" class="edge">
<title>Node3&#45;&gt;Node2</title>
<path fill="none" stroke="#9a32cd" stroke-dasharray="5,2" d="M58.5,-208.39C58.5,-197.15 58.5,-183.41 58.5,-173.27"/>
<polygon fill="#9a32cd" stroke="#9a32cd" points="55,-208.18 58.5,-218.18 62,-208.18 55,-208.18"/>
<text text-anchor="middle" x="65.5" y="-194" font-family="Helvetica,sans-Serif" font-size="10.00"> ptr</text>
</g>
<!-- Node4 -->
<g id="node4" class="node">
<title>Node4</title>
<g id="a_node4"><a xlink:title=" ">
<polygon fill="white" stroke="#666666" points="88,-305 29,-305 29,-286 88,-286 88,-305"/>
<text text-anchor="middle" x="58.5" y="-293" font-family="Helvetica,sans-Serif" font-size="10.00">std::string</text>
</a>
</g>
</g>
<!-- Node4&#45;&gt;Node3 -->
<g id="edge3" class="edge">
<title>Node4&#45;&gt;Node3</title>
<path fill="none" stroke="#9a32cd" stroke-dasharray="5,2" d="M58.5,-274.18C58.5,-262.44 58.5,-248.27 58.5,-239.32"/>
<polygon fill="#9a32cd" stroke="#9a32cd" points="55,-274.09 58.5,-284.09 62,-274.09 55,-274.09"/>
<text text-anchor="middle" x="74.5" y="-260" font-family="Helvetica,sans-Serif" font-size="10.00"> _name</text>
</g>
<!-- Node5 -->
<g id="node5" class="node">
<title>Node5</title>
<g id="a_node5"><a xlink:title=" ">
<polygon fill="white" stroke="#666666" points="105,-372 12,-372 12,-342 105,-342 105,-372"/>
<text text-anchor="start" x="20" y="-360" font-family="Helvetica,sans-Serif" font-size="10.00">std::basic_string&lt;</text>
<text text-anchor="middle" x="58.5" y="-349" font-family="Helvetica,sans-Serif" font-size="10.00"> Char &gt;</text>
</a>
</g>
</g>
<!-- Node5&#45;&gt;Node4 -->
<g id="edge4" class="edge">
<title>Node5&#45;&gt;Node4</title>
<path fill="none" stroke="#63b8ff" d="M58.5,-330.13C58.5,-321.29 58.5,-311.99 58.5,-305.42"/>
<polygon fill="#63b8ff" stroke="#63b8ff" points="55,-330.08 58.5,-340.08 62,-330.08 55,-330.08"/>
</g>
<!-- Node6&#45;&gt;Node1 -->
<g id="edge5" class="edge">
<title>Node6&#45;&gt;Node1</title>
<path fill="none" stroke="#9a32cd" stroke-dasharray="5,2" d="M146.99,-60.1C123.02,-46.66 92.55,-29.59 74.34,-19.38"/>
<polygon fill="#9a32cd" stroke="#9a32cd" points="145.05,-63.02 155.49,-64.86 148.47,-56.92 145.05,-63.02"/>
<text text-anchor="middle" x="143.5" y="-40" font-family="Helvetica,sans-Serif" font-size="10.00"> _scenes</text>
</g>
</g>
</svg>
