<?xml version="1.0" encoding="UTF-8" standalone="no"?>
<!DOCTYPE svg PUBLIC "-//W3C//DTD SVG 1.1//EN"
 "http://www.w3.org/Graphics/SVG/1.1/DTD/svg11.dtd">
<!-- Generated by graphviz version 7.0.5 (20221223.1930)
 -->
<!-- Title: tson::DecompressorContainer Pages: 1 -->
<svg width="771pt" height="60pt"
 viewBox="0.00 0.00 771.00 60.00" xmlns="http://www.w3.org/2000/svg" xmlns:xlink="http://www.w3.org/1999/xlink">
<g id="graph0" class="graph" transform="scale(1 1) rotate(0) translate(4 56)">
<title>tson::DecompressorContainer</title>
<!-- Node1 -->
<g id="node1" class="node">
<title>Node1</title>
<g id="a_node1"><a xlink:title=" ">
<polygon fill="#999999" stroke="#666666" points="763,-35.5 619,-35.5 619,-16.5 763,-16.5 763,-35.5"/>
<text text-anchor="middle" x="691" y="-23.5" font-family="Helvetica,sans-Serif" font-size="10.00">tson::DecompressorContainer</text>
</a>
</g>
</g>
<!-- Node2 -->
<g id="node2" class="node">
<title>Node2</title>
<g id="a_node2"><a xlink:title=" ">
<polygon fill="white" stroke="#666666" points="500,-52 369,-52 369,0 500,0 500,-52"/>
<text text-anchor="start" x="377" y="-40" font-family="Helvetica,sans-Serif" font-size="10.00">std::vector&lt; std::unique</text>
<text text-anchor="start" x="377" y="-29" font-family="Helvetica,sans-Serif" font-size="10.00">_ptr&lt; tson::IDecompressor</text>
<text text-anchor="start" x="377" y="-18" font-family="Helvetica,sans-Serif" font-size="10.00">&lt; std::string_view, std::</text>
<text text-anchor="middle" x="434.5" y="-7" font-family="Helvetica,sans-Serif" font-size="10.00">string &gt; &gt; &gt;</text>
</a>
</g>
</g>
<!-- Node2&#45;&gt;Node1 -->
<g id="edge1" class="edge">
<title>Node2&#45;&gt;Node1</title>
<path fill="none" stroke="#9a32cd" stroke-dasharray="5,2" d="M511.63,-26C545.51,-26 585.2,-26 618.52,-26"/>
<polygon fill="#9a32cd" stroke="#9a32cd" points="511.89,-22.5 501.89,-26 511.89,-29.5 511.89,-22.5"/>
<text text-anchor="middle" x="559.5" y="-29" font-family="Helvetica,sans-Serif" font-size="10.00"> m_decompressors</text>
</g>
<!-- Node3 -->
<g id="node3" class="node">
<title>Node3</title>
<g id="a_node3"><a xlink:title=" ">
<polygon fill="white" stroke="#666666" points="290,-46.5 156,-46.5 156,-5.5 290,-5.5 290,-46.5"/>
<text text-anchor="start" x="164" y="-34.5" font-family="Helvetica,sans-Serif" font-size="10.00">std::unique_ptr&lt; tson</text>
<text text-anchor="start" x="164" y="-23.5" font-family="Helvetica,sans-Serif" font-size="10.00">::IDecompressor&lt; std</text>
<text text-anchor="middle" x="223" y="-12.5" font-family="Helvetica,sans-Serif" font-size="10.00">::string_view, std::string &gt; &gt;</text>
</a>
</g>
</g>
<!-- Node3&#45;&gt;Node2 -->
<g id="edge2" class="edge">
<title>Node3&#45;&gt;Node2</title>
<path fill="none" stroke="#9a32cd" stroke-dasharray="5,2" d="M301.65,-26C323.71,-26 347.5,-26 368.72,-26"/>
<polygon fill="#9a32cd" stroke="#9a32cd" points="301.8,-22.5 291.8,-26 301.8,-29.5 301.8,-22.5"/>
<text text-anchor="middle" x="329.5" y="-29" font-family="Helvetica,sans-Serif" font-size="10.00"> elements</text>
</g>
<!-- Node4 -->
<g id="node4" class="node">
<title>Node4</title>
<g id="a_node4"><a xlink:href="classtson_1_1_i_decompressor.html" target="_top" xlink:title=" ">
<polygon fill="white" stroke="#bfbfbf" points="106,-46.5 0,-46.5 0,-5.5 106,-5.5 106,-46.5"/>
<text text-anchor="start" x="8" y="-34.5" font-family="Helvetica,sans-Serif" font-size="10.00">tson::IDecompressor</text>
<text text-anchor="start" x="8" y="-23.5" font-family="Helvetica,sans-Serif" font-size="10.00">&lt; std::string_view,</text>
<text text-anchor="middle" x="53" y="-12.5" font-family="Helvetica,sans-Serif" font-size="10.00"> std::string &gt;</text>
</a>
</g>
</g>
<!-- Node4&#45;&gt;Node3 -->
<g id="edge3" class="edge">
<title>Node4&#45;&gt;Node3</title>
<path fill="none" stroke="#9a32cd" stroke-dasharray="5,2" d="M117.46,-26C129.91,-26 143,-26 155.55,-26"/>
<polygon fill="#9a32cd" stroke="#9a32cd" points="117.75,-22.5 107.75,-26 117.75,-29.5 117.75,-22.5"/>
<text text-anchor="middle" x="131" y="-29" font-family="Helvetica,sans-Serif" font-size="10.00"> ptr</text>
</g>
</g>
</svg>
