<?xml version="1.0" encoding="UTF-8" standalone="no"?>
<!DOCTYPE svg PUBLIC "-//W3C//DTD SVG 1.1//EN"
 "http://www.w3.org/Graphics/SVG/1.1/DTD/svg11.dtd">
<!-- Generated by graphviz version 7.0.5 (20221223.1930)
 -->
<!-- Title: EnemyShooter Pages: 1 -->
<svg width="199pt" height="293pt"
 viewBox="0.00 0.00 198.50 293.00" xmlns="http://www.w3.org/2000/svg" xmlns:xlink="http://www.w3.org/1999/xlink">
<g id="graph0" class="graph" transform="scale(1 1) rotate(0) translate(4 289)">
<title>EnemyShooter</title>
<!-- Node1 -->
<g id="node1" class="node">
<title>Node1</title>
<g id="a_node1"><a xlink:title=" ">
<polygon fill="#999999" stroke="#666666" points="126.5,-19 46.5,-19 46.5,0 126.5,0 126.5,-19"/>
<text text-anchor="middle" x="86.5" y="-7" font-family="Helvetica,sans-Serif" font-size="10.00">EnemyShooter</text>
</a>
</g>
</g>
<!-- Node2 -->
<g id="node2" class="node">
<title>Node2</title>
<g id="a_node2"><a xlink:href="class_enemy.html" target="_top" xlink:title=" ">
<polygon fill="white" stroke="#bfbfbf" points="71.5,-96 25.5,-96 25.5,-77 71.5,-77 71.5,-96"/>
<text text-anchor="middle" x="48.5" y="-84" font-family="Helvetica,sans-Serif" font-size="10.00">Enemy</text>
</a>
</g>
</g>
<!-- Node2&#45;&gt;Node1 -->
<g id="edge1" class="edge">
<title>Node2&#45;&gt;Node1</title>
<path fill="none" stroke="#63b8ff" d="M58,-66.76C65.66,-51.62 76.12,-31 82,-19.39"/>
<polygon fill="#63b8ff" stroke="#63b8ff" points="55.09,-64.75 53.69,-75.25 61.33,-67.91 55.09,-64.75"/>
</g>
<!-- Node3 -->
<g id="node3" class="node">
<title>Node3</title>
<g id="a_node3"><a xlink:href="classengine_1_1_base.html" target="_top" xlink:title=" ">
<polygon fill="white" stroke="#bfbfbf" points="82.5,-152 10.5,-152 10.5,-133 82.5,-133 82.5,-152"/>
<text text-anchor="middle" x="46.5" y="-140" font-family="Helvetica,sans-Serif" font-size="10.00">engine::Base</text>
</a>
</g>
</g>
<!-- Node3&#45;&gt;Node2 -->
<g id="edge2" class="edge">
<title>Node3&#45;&gt;Node2</title>
<path fill="none" stroke="#63b8ff" d="M47.26,-121.11C47.57,-112.52 47.93,-102.97 48.18,-96.25"/>
<polygon fill="#63b8ff" stroke="#63b8ff" points="43.76,-120.95 46.89,-131.07 50.75,-121.21 43.76,-120.95"/>
</g>
<!-- Node4 -->
<g id="node4" class="node">
<title>Node4</title>
<g id="a_node4"><a xlink:title=" ">
<polygon fill="white" stroke="#666666" points="76,-218 17,-218 17,-199 76,-199 76,-218"/>
<text text-anchor="middle" x="46.5" y="-206" font-family="Helvetica,sans-Serif" font-size="10.00">std::string</text>
</a>
</g>
</g>
<!-- Node4&#45;&gt;Node3 -->
<g id="edge3" class="edge">
<title>Node4&#45;&gt;Node3</title>
<path fill="none" stroke="#9a32cd" stroke-dasharray="5,2" d="M46.5,-187.18C46.5,-175.44 46.5,-161.27 46.5,-152.32"/>
<polygon fill="#9a32cd" stroke="#9a32cd" points="43,-187.09 46.5,-197.09 50,-187.09 43,-187.09"/>
<text text-anchor="middle" x="78" y="-173" font-family="Helvetica,sans-Serif" font-size="10.00"> _uniqueName</text>
</g>
<!-- Node5 -->
<g id="node5" class="node">
<title>Node5</title>
<g id="a_node5"><a xlink:title=" ">
<polygon fill="white" stroke="#666666" points="93,-285 0,-285 0,-255 93,-255 93,-285"/>
<text text-anchor="start" x="8" y="-273" font-family="Helvetica,sans-Serif" font-size="10.00">std::basic_string&lt;</text>
<text text-anchor="middle" x="46.5" y="-262" font-family="Helvetica,sans-Serif" font-size="10.00"> Char &gt;</text>
</a>
</g>
</g>
<!-- Node5&#45;&gt;Node4 -->
<g id="edge4" class="edge">
<title>Node5&#45;&gt;Node4</title>
<path fill="none" stroke="#63b8ff" d="M46.5,-243.13C46.5,-234.29 46.5,-224.99 46.5,-218.42"/>
<polygon fill="#63b8ff" stroke="#63b8ff" points="43,-243.08 46.5,-253.08 50,-243.08 43,-243.08"/>
</g>
<!-- Node6 -->
<g id="node6" class="node">
<title>Node6</title>
<g id="a_node6"><a xlink:href="classengine_1_1_clock.html" target="_top" xlink:title=" ">
<polygon fill="white" stroke="#bfbfbf" points="164.5,-96 90.5,-96 90.5,-77 164.5,-77 164.5,-96"/>
<text text-anchor="middle" x="127.5" y="-84" font-family="Helvetica,sans-Serif" font-size="10.00">engine::Clock</text>
</a>
</g>
</g>
<!-- Node6&#45;&gt;Node1 -->
<g id="edge5" class="edge">
<title>Node6&#45;&gt;Node1</title>
<path fill="none" stroke="#9a32cd" stroke-dasharray="5,2" d="M117.25,-66.76C108.98,-51.62 97.7,-31 91.36,-19.39"/>
<polygon fill="#9a32cd" stroke="#9a32cd" points="114.04,-68.18 121.91,-75.27 120.18,-64.82 114.04,-68.18"/>
<text text-anchor="middle" x="151" y="-51" font-family="Helvetica,sans-Serif" font-size="10.00"> _movementClock</text>
<text text-anchor="middle" x="151" y="-40" font-family="Helvetica,sans-Serif" font-size="10.00">_shootClock</text>
</g>
<!-- Node7 -->
<g id="node7" class="node">
<title>Node7</title>
<g id="a_node7"><a xlink:title=" ">
<polygon fill="white" stroke="#bfbfbf" points="154.5,-152 100.5,-152 100.5,-133 154.5,-133 154.5,-152"/>
<text text-anchor="middle" x="127.5" y="-140" font-family="Helvetica,sans-Serif" font-size="10.00">sf::Clock</text>
</a>
</g>
</g>
<!-- Node7&#45;&gt;Node6 -->
<g id="edge6" class="edge">
<title>Node7&#45;&gt;Node6</title>
<path fill="none" stroke="#63b8ff" d="M127.5,-121.11C127.5,-112.52 127.5,-102.97 127.5,-96.25"/>
<polygon fill="#63b8ff" stroke="#63b8ff" points="124,-121.07 127.5,-131.07 131,-121.07 124,-121.07"/>
</g>
</g>
</svg>
