<?xml version="1.0" encoding="UTF-8" standalone="no"?>
<!DOCTYPE svg PUBLIC "-//W3C//DTD SVG 1.1//EN"
 "http://www.w3.org/Graphics/SVG/1.1/DTD/svg11.dtd">
<!-- Generated by graphviz version 7.0.5 (20221223.1930)
 -->
<!-- Title: uranus::ecs::Registry Pages: 1 -->
<svg width="346pt" height="157pt"
 viewBox="0.00 0.00 346.00 157.00" xmlns="http://www.w3.org/2000/svg" xmlns:xlink="http://www.w3.org/1999/xlink">
<g id="graph0" class="graph" transform="scale(1 1) rotate(0) translate(4 153)">
<title>uranus::ecs::Registry</title>
<!-- Node1 -->
<g id="node1" class="node">
<title>Node1</title>
<g id="a_node1"><a xlink:title="Registry class, used to store and manage entities and their components.">
<polygon fill="#999999" stroke="#666666" points="338,-73 232,-73 232,-54 338,-54 338,-73"/>
<text text-anchor="middle" x="285" y="-61" font-family="Helvetica,sans-Serif" font-size="10.00">uranus::ecs::Registry</text>
</a>
</g>
</g>
<!-- Node2 -->
<g id="node2" class="node">
<title>Node2</title>
<g id="a_node2"><a xlink:title=" ">
<polygon fill="white" stroke="#666666" points="107,-149 0,-149 0,-108 107,-108 107,-149"/>
<text text-anchor="start" x="8" y="-137" font-family="Helvetica,sans-Serif" font-size="10.00">std::unordered_map</text>
<text text-anchor="start" x="8" y="-126" font-family="Helvetica,sans-Serif" font-size="10.00">&lt; std::type_index, std</text>
<text text-anchor="middle" x="53.5" y="-115" font-family="Helvetica,sans-Serif" font-size="10.00">::any &gt;</text>
</a>
</g>
</g>
<!-- Node2&#45;&gt;Node1 -->
<g id="edge1" class="edge">
<title>Node2&#45;&gt;Node1</title>
<path fill="none" stroke="#9a32cd" stroke-dasharray="5,2" d="M118.44,-110.39C160.59,-98.45 214.2,-83.27 248.8,-73.47"/>
<polygon fill="#9a32cd" stroke="#9a32cd" points="117.56,-107 108.9,-113.09 119.47,-113.74 117.56,-107"/>
<text text-anchor="middle" x="169.5" y="-109.5" font-family="Helvetica,sans-Serif" font-size="10.00"> _componentsArrays</text>
</g>
<!-- Node3 -->
<g id="node3" class="node">
<title>Node3</title>
<g id="a_node3"><a xlink:title=" ">
<polygon fill="white" stroke="#666666" points="107,-89.5 0,-89.5 0,-37.5 107,-37.5 107,-89.5"/>
<text text-anchor="start" x="8" y="-77.5" font-family="Helvetica,sans-Serif" font-size="10.00">std::unordered_map</text>
<text text-anchor="start" x="8" y="-66.5" font-family="Helvetica,sans-Serif" font-size="10.00">&lt; std::type_index, std</text>
<text text-anchor="start" x="8" y="-55.5" font-family="Helvetica,sans-Serif" font-size="10.00">::function&lt; void(size</text>
<text text-anchor="middle" x="53.5" y="-44.5" font-family="Helvetica,sans-Serif" font-size="10.00">_t const &amp;)&gt; &gt;</text>
</a>
</g>
</g>
<!-- Node3&#45;&gt;Node1 -->
<g id="edge2" class="edge">
<title>Node3&#45;&gt;Node1</title>
<path fill="none" stroke="#9a32cd" stroke-dasharray="5,2" d="M118.71,-63.5C154.37,-63.5 198.17,-63.5 231.72,-63.5"/>
<polygon fill="#9a32cd" stroke="#9a32cd" points="118.95,-60 108.95,-63.5 118.95,-67 118.95,-60"/>
<text text-anchor="middle" x="169.5" y="-66.5" font-family="Helvetica,sans-Serif" font-size="10.00"> _destroyArrays</text>
</g>
<!-- Node4 -->
<g id="node4" class="node">
<title>Node4</title>
<g id="a_node4"><a xlink:title=" ">
<polygon fill="white" stroke="#666666" points="98,-19 9,-19 9,0 98,0 98,-19"/>
<text text-anchor="middle" x="53.5" y="-7" font-family="Helvetica,sans-Serif" font-size="10.00">std::list&lt; size_t &gt;</text>
</a>
</g>
</g>
<!-- Node4&#45;&gt;Node1 -->
<g id="edge3" class="edge">
<title>Node4&#45;&gt;Node1</title>
<path fill="none" stroke="#9a32cd" stroke-dasharray="5,2" d="M107.95,-22.08C148.76,-31.68 204.2,-44.72 241.89,-53.59"/>
<polygon fill="#9a32cd" stroke="#9a32cd" points="108.87,-18.7 98.33,-19.81 107.27,-25.51 108.87,-18.7"/>
<text text-anchor="middle" x="169.5" y="-48.5" font-family="Helvetica,sans-Serif" font-size="10.00"> _freeIds</text>
</g>
</g>
</svg>
