<?xml version="1.0" encoding="UTF-8" standalone="no"?>
<!DOCTYPE svg PUBLIC "-//W3C//DTD SVG 1.1//EN"
 "http://www.w3.org/Graphics/SVG/1.1/DTD/svg11.dtd">
<!-- Generated by graphviz version 7.0.5 (20221223.1930)
 -->
<!-- Title: engine::Scene Pages: 1 -->
<svg width="101pt" height="160pt"
 viewBox="0.00 0.00 101.00 160.00" xmlns="http://www.w3.org/2000/svg" xmlns:xlink="http://www.w3.org/1999/xlink">
<g id="graph0" class="graph" transform="scale(1 1) rotate(0) translate(4 156)">
<title>engine::Scene</title>
<!-- Node1 -->
<g id="node1" class="node">
<title>Node1</title>
<g id="a_node1"><a xlink:title=" ">
<polygon fill="#999999" stroke="#666666" points="85,-19 8,-19 8,0 85,0 85,-19"/>
<text text-anchor="middle" x="46.5" y="-7" font-family="Helvetica,sans-Serif" font-size="10.00">engine::Scene</text>
</a>
</g>
</g>
<!-- Node2 -->
<g id="node2" class="node">
<title>Node2</title>
<g id="a_node2"><a xlink:title=" ">
<polygon fill="white" stroke="#666666" points="76,-85 17,-85 17,-66 76,-66 76,-85"/>
<text text-anchor="middle" x="46.5" y="-73" font-family="Helvetica,sans-Serif" font-size="10.00">std::string</text>
</a>
</g>
</g>
<!-- Node2&#45;&gt;Node1 -->
<g id="edge1" class="edge">
<title>Node2&#45;&gt;Node1</title>
<path fill="none" stroke="#9a32cd" stroke-dasharray="5,2" d="M46.5,-54.18C46.5,-42.44 46.5,-28.27 46.5,-19.32"/>
<polygon fill="#9a32cd" stroke="#9a32cd" points="43,-54.09 46.5,-64.09 50,-54.09 43,-54.09"/>
<text text-anchor="middle" x="62.5" y="-40" font-family="Helvetica,sans-Serif" font-size="10.00"> _name</text>
</g>
<!-- Node3 -->
<g id="node3" class="node">
<title>Node3</title>
<g id="a_node3"><a xlink:title=" ">
<polygon fill="white" stroke="#666666" points="93,-152 0,-152 0,-122 93,-122 93,-152"/>
<text text-anchor="start" x="8" y="-140" font-family="Helvetica,sans-Serif" font-size="10.00">std::basic_string&lt;</text>
<text text-anchor="middle" x="46.5" y="-129" font-family="Helvetica,sans-Serif" font-size="10.00"> Char &gt;</text>
</a>
</g>
</g>
<!-- Node3&#45;&gt;Node2 -->
<g id="edge2" class="edge">
<title>Node3&#45;&gt;Node2</title>
<path fill="none" stroke="#63b8ff" d="M46.5,-110.13C46.5,-101.29 46.5,-91.99 46.5,-85.42"/>
<polygon fill="#63b8ff" stroke="#63b8ff" points="43,-110.08 46.5,-120.08 50,-110.08 43,-110.08"/>
</g>
</g>
</svg>
