<?xml version="1.0" encoding="UTF-8" standalone="no"?>
<!DOCTYPE svg PUBLIC "-//W3C//DTD SVG 1.1//EN"
 "http://www.w3.org/Graphics/SVG/1.1/DTD/svg11.dtd">
<!-- Generated by graphviz version 7.0.5 (20221223.1930)
 -->
<!-- Title: json11::JsonString Pages: 1 -->
<svg width="197pt" height="227pt"
 viewBox="0.00 0.00 197.00 227.00" xmlns="http://www.w3.org/2000/svg" xmlns:xlink="http://www.w3.org/1999/xlink">
<g id="graph0" class="graph" transform="scale(1 1) rotate(0) translate(4 223)">
<title>json11::JsonString</title>
<!-- Node1 -->
<g id="node1" class="node">
<title>Node1</title>
<g id="a_node1"><a xlink:title=" ">
<polygon fill="#999999" stroke="#666666" points="127.5,-19 31.5,-19 31.5,0 127.5,0 127.5,-19"/>
<text text-anchor="middle" x="79.5" y="-7" font-family="Helvetica,sans-Serif" font-size="10.00">json11::JsonString</text>
</a>
</g>
</g>
<!-- Node2 -->
<g id="node2" class="node">
<title>Node2</title>
<g id="a_node2"><a xlink:href="classjson11_1_1_value.html" target="_top" xlink:title=" ">
<polygon fill="white" stroke="#bfbfbf" points="131.5,-86 27.5,-86 27.5,-56 131.5,-56 131.5,-86"/>
<text text-anchor="start" x="35.5" y="-74" font-family="Helvetica,sans-Serif" font-size="10.00">json11::Value&lt; Json</text>
<text text-anchor="middle" x="79.5" y="-63" font-family="Helvetica,sans-Serif" font-size="10.00">::STRING, string &gt;</text>
</a>
</g>
</g>
<!-- Node2&#45;&gt;Node1 -->
<g id="edge1" class="edge">
<title>Node2&#45;&gt;Node1</title>
<path fill="none" stroke="#63b8ff" d="M79.5,-44.13C79.5,-35.29 79.5,-25.99 79.5,-19.42"/>
<polygon fill="#63b8ff" stroke="#63b8ff" points="76,-44.08 79.5,-54.08 83,-44.08 76,-44.08"/>
</g>
<!-- Node3 -->
<g id="node3" class="node">
<title>Node3</title>
<g id="a_node3"><a xlink:href="classjson11_1_1_json_value.html" target="_top" xlink:title=" ">
<polygon fill="white" stroke="#bfbfbf" points="95,-152 0,-152 0,-133 95,-133 95,-152"/>
<text text-anchor="middle" x="47.5" y="-140" font-family="Helvetica,sans-Serif" font-size="10.00">json11::JsonValue</text>
</a>
</g>
</g>
<!-- Node3&#45;&gt;Node2 -->
<g id="edge2" class="edge">
<title>Node3&#45;&gt;Node2</title>
<path fill="none" stroke="#63b8ff" d="M56.26,-122.47C61.52,-111.04 68.11,-96.73 72.93,-86.27"/>
<polygon fill="#63b8ff" stroke="#63b8ff" points="53.19,-120.78 52.19,-131.32 59.55,-123.7 53.19,-120.78"/>
</g>
<!-- Node4 -->
<g id="node4" class="node">
<title>Node4</title>
<g id="a_node4"><a xlink:title=" ">
<polygon fill="white" stroke="#666666" points="172,-152 113,-152 113,-133 172,-133 172,-152"/>
<text text-anchor="middle" x="142.5" y="-140" font-family="Helvetica,sans-Serif" font-size="10.00">std::string</text>
</a>
</g>
</g>
<!-- Node4&#45;&gt;Node2 -->
<g id="edge3" class="edge">
<title>Node4&#45;&gt;Node2</title>
<path fill="none" stroke="#9a32cd" stroke-dasharray="5,2" d="M126.85,-124.24C116.25,-112.54 102.42,-97.28 92.44,-86.27"/>
<polygon fill="#9a32cd" stroke="#9a32cd" points="124.2,-126.52 133.5,-131.58 129.38,-121.82 124.2,-126.52"/>
<text text-anchor="middle" x="136.5" y="-107" font-family="Helvetica,sans-Serif" font-size="10.00"> m_value</text>
</g>
<!-- Node5 -->
<g id="node5" class="node">
<title>Node5</title>
<g id="a_node5"><a xlink:title=" ">
<polygon fill="white" stroke="#666666" points="189,-219 96,-219 96,-189 189,-189 189,-219"/>
<text text-anchor="start" x="104" y="-207" font-family="Helvetica,sans-Serif" font-size="10.00">std::basic_string&lt;</text>
<text text-anchor="middle" x="142.5" y="-196" font-family="Helvetica,sans-Serif" font-size="10.00"> Char &gt;</text>
</a>
</g>
</g>
<!-- Node5&#45;&gt;Node4 -->
<g id="edge4" class="edge">
<title>Node5&#45;&gt;Node4</title>
<path fill="none" stroke="#63b8ff" d="M142.5,-177.13C142.5,-168.29 142.5,-158.99 142.5,-152.42"/>
<polygon fill="#63b8ff" stroke="#63b8ff" points="139,-177.08 142.5,-187.08 146,-177.08 139,-177.08"/>
</g>
</g>
</svg>
