<?xml version="1.0" encoding="UTF-8" standalone="no"?>
<!DOCTYPE svg PUBLIC "-//W3C//DTD SVG 1.1//EN"
 "http://www.w3.org/Graphics/SVG/1.1/DTD/svg11.dtd">
<!-- Generated by graphviz version 7.0.5 (20221223.1930)
 -->
<!-- Title: engine::TextureManager Pages: 1 -->
<svg width="179pt" height="380pt"
 viewBox="0.00 0.00 179.00 380.00" xmlns="http://www.w3.org/2000/svg" xmlns:xlink="http://www.w3.org/1999/xlink">
<g id="graph0" class="graph" transform="scale(1 1) rotate(0) translate(4 376)">
<title>engine::TextureManager</title>
<!-- Node1 -->
<g id="node1" class="node">
<title>Node1</title>
<g id="a_node1"><a xlink:title=" ">
<polygon fill="#999999" stroke="#666666" points="121,-19 2,-19 2,0 121,0 121,-19"/>
<text text-anchor="middle" x="61.5" y="-7" font-family="Helvetica,sans-Serif" font-size="10.00">engine::TextureManager</text>
</a>
</g>
</g>
<!-- Node2 -->
<g id="node2" class="node">
<title>Node2</title>
<g id="a_node2"><a xlink:title=" ">
<polygon fill="white" stroke="#666666" points="123,-96 0,-96 0,-66 123,-66 123,-96"/>
<text text-anchor="start" x="8" y="-84" font-family="Helvetica,sans-Serif" font-size="10.00">std::vector&lt; std::shared</text>
<text text-anchor="middle" x="61.5" y="-73" font-family="Helvetica,sans-Serif" font-size="10.00">_ptr&lt; engine::Texture &gt; &gt;</text>
</a>
</g>
</g>
<!-- Node2&#45;&gt;Node1 -->
<g id="edge1" class="edge">
<title>Node2&#45;&gt;Node1</title>
<path fill="none" stroke="#9a32cd" stroke-dasharray="5,2" d="M61.5,-54.46C61.5,-42.07 61.5,-27.99 61.5,-19.18"/>
<polygon fill="#9a32cd" stroke="#9a32cd" points="58,-54.09 61.5,-64.09 65,-54.09 58,-54.09"/>
<text text-anchor="middle" x="83" y="-40" font-family="Helvetica,sans-Serif" font-size="10.00"> _textures</text>
</g>
<!-- Node3 -->
<g id="node3" class="node">
<title>Node3</title>
<g id="a_node3"><a xlink:title=" ">
<polygon fill="white" stroke="#666666" points="120,-173 3,-173 3,-143 120,-143 120,-173"/>
<text text-anchor="start" x="11" y="-161" font-family="Helvetica,sans-Serif" font-size="10.00">std::shared_ptr&lt; engine</text>
<text text-anchor="middle" x="61.5" y="-150" font-family="Helvetica,sans-Serif" font-size="10.00">::Texture &gt;</text>
</a>
</g>
</g>
<!-- Node3&#45;&gt;Node2 -->
<g id="edge2" class="edge">
<title>Node3&#45;&gt;Node2</title>
<path fill="none" stroke="#9a32cd" stroke-dasharray="5,2" d="M61.5,-131.23C61.5,-119.58 61.5,-106.26 61.5,-96.42"/>
<polygon fill="#9a32cd" stroke="#9a32cd" points="58,-131.03 61.5,-141.03 65,-131.03 58,-131.03"/>
<text text-anchor="middle" x="83" y="-117" font-family="Helvetica,sans-Serif" font-size="10.00"> elements</text>
</g>
<!-- Node4 -->
<g id="node4" class="node">
<title>Node4</title>
<g id="a_node4"><a xlink:href="classengine_1_1_texture.html" target="_top" xlink:title=" ">
<polygon fill="white" stroke="#bfbfbf" points="102.5,-239 20.5,-239 20.5,-220 102.5,-220 102.5,-239"/>
<text text-anchor="middle" x="61.5" y="-227" font-family="Helvetica,sans-Serif" font-size="10.00">engine::Texture</text>
</a>
</g>
</g>
<!-- Node4&#45;&gt;Node3 -->
<g id="edge3" class="edge">
<title>Node4&#45;&gt;Node3</title>
<path fill="none" stroke="#9a32cd" stroke-dasharray="5,2" d="M61.5,-208.39C61.5,-197.15 61.5,-183.41 61.5,-173.27"/>
<polygon fill="#9a32cd" stroke="#9a32cd" points="58,-208.18 61.5,-218.18 65,-208.18 58,-208.18"/>
<text text-anchor="middle" x="68.5" y="-194" font-family="Helvetica,sans-Serif" font-size="10.00"> ptr</text>
</g>
<!-- Node5 -->
<g id="node5" class="node">
<title>Node5</title>
<g id="a_node5"><a xlink:title=" ">
<polygon fill="white" stroke="#bfbfbf" points="76.5,-305 14.5,-305 14.5,-286 76.5,-286 76.5,-305"/>
<text text-anchor="middle" x="45.5" y="-293" font-family="Helvetica,sans-Serif" font-size="10.00">sf::Texture</text>
</a>
</g>
</g>
<!-- Node5&#45;&gt;Node4 -->
<g id="edge4" class="edge">
<title>Node5&#45;&gt;Node4</title>
<path fill="none" stroke="#63b8ff" d="M50.49,-274.55C53.44,-262.74 57.03,-248.37 59.29,-239.32"/>
<polygon fill="#63b8ff" stroke="#63b8ff" points="47.12,-273.58 48.09,-284.13 53.91,-275.28 47.12,-273.58"/>
</g>
<!-- Node6 -->
<g id="node6" class="node">
<title>Node6</title>
<g id="a_node6"><a xlink:title=" ">
<polygon fill="white" stroke="#666666" points="154,-305 95,-305 95,-286 154,-286 154,-305"/>
<text text-anchor="middle" x="124.5" y="-293" font-family="Helvetica,sans-Serif" font-size="10.00">std::string</text>
</a>
</g>
</g>
<!-- Node6&#45;&gt;Node4 -->
<g id="edge5" class="edge">
<title>Node6&#45;&gt;Node4</title>
<path fill="none" stroke="#9a32cd" stroke-dasharray="5,2" d="M107.74,-277.48C95.66,-265.2 79.84,-249.13 70.19,-239.32"/>
<polygon fill="#9a32cd" stroke="#9a32cd" points="105.17,-279.85 114.68,-284.52 110.16,-274.94 105.17,-279.85"/>
<text text-anchor="middle" x="112.5" y="-260" font-family="Helvetica,sans-Serif" font-size="10.00"> _name</text>
</g>
<!-- Node7 -->
<g id="node7" class="node">
<title>Node7</title>
<g id="a_node7"><a xlink:title=" ">
<polygon fill="white" stroke="#666666" points="171,-372 78,-372 78,-342 171,-342 171,-372"/>
<text text-anchor="start" x="86" y="-360" font-family="Helvetica,sans-Serif" font-size="10.00">std::basic_string&lt;</text>
<text text-anchor="middle" x="124.5" y="-349" font-family="Helvetica,sans-Serif" font-size="10.00"> Char &gt;</text>
</a>
</g>
</g>
<!-- Node7&#45;&gt;Node6 -->
<g id="edge6" class="edge">
<title>Node7&#45;&gt;Node6</title>
<path fill="none" stroke="#63b8ff" d="M124.5,-330.13C124.5,-321.29 124.5,-311.99 124.5,-305.42"/>
<polygon fill="#63b8ff" stroke="#63b8ff" points="121,-330.08 124.5,-340.08 128,-330.08 121,-330.08"/>
</g>
</g>
</svg>
