<?xml version="1.0" encoding="UTF-8" standalone="no"?>
<!DOCTYPE svg PUBLIC "-//W3C//DTD SVG 1.1//EN"
 "http://www.w3.org/Graphics/SVG/1.1/DTD/svg11.dtd">
<!-- Generated by graphviz version 7.0.5 (20221223.1930)
 -->
<!-- Title: json11::JsonArray Pages: 1 -->
<svg width="207pt" height="226pt"
 viewBox="0.00 0.00 206.50 226.00" xmlns="http://www.w3.org/2000/svg" xmlns:xlink="http://www.w3.org/1999/xlink">
<g id="graph0" class="graph" transform="scale(1 1) rotate(0) translate(4 222)">
<title>json11::JsonArray</title>
<!-- Node1 -->
<g id="node1" class="node">
<title>Node1</title>
<g id="a_node1"><a xlink:title=" ">
<polygon fill="#999999" stroke="#666666" points="110,-19 17,-19 17,0 110,0 110,-19"/>
<text text-anchor="middle" x="63.5" y="-7" font-family="Helvetica,sans-Serif" font-size="10.00">json11::JsonArray</text>
</a>
</g>
</g>
<!-- Node2 -->
<g id="node2" class="node">
<title>Node2</title>
<g id="a_node2"><a xlink:href="classjson11_1_1_value.html" target="_top" xlink:title=" ">
<polygon fill="white" stroke="#bfbfbf" points="121,-86 6,-86 6,-56 121,-56 121,-86"/>
<text text-anchor="start" x="14" y="-74" font-family="Helvetica,sans-Serif" font-size="10.00">json11::Value&lt; Json</text>
<text text-anchor="middle" x="63.5" y="-63" font-family="Helvetica,sans-Serif" font-size="10.00">::ARRAY, Json::array &gt;</text>
</a>
</g>
</g>
<!-- Node2&#45;&gt;Node1 -->
<g id="edge1" class="edge">
<title>Node2&#45;&gt;Node1</title>
<path fill="none" stroke="#63b8ff" d="M63.5,-44.13C63.5,-35.29 63.5,-25.99 63.5,-19.42"/>
<polygon fill="#63b8ff" stroke="#63b8ff" points="60,-44.08 63.5,-54.08 67,-44.08 60,-44.08"/>
</g>
<!-- Node3 -->
<g id="node3" class="node">
<title>Node3</title>
<g id="a_node3"><a xlink:href="classjson11_1_1_json_value.html" target="_top" xlink:title=" ">
<polygon fill="white" stroke="#bfbfbf" points="95,-152 0,-152 0,-133 95,-133 95,-152"/>
<text text-anchor="middle" x="47.5" y="-140" font-family="Helvetica,sans-Serif" font-size="10.00">json11::JsonValue</text>
</a>
</g>
</g>
<!-- Node3&#45;&gt;Node2 -->
<g id="edge2" class="edge">
<title>Node3&#45;&gt;Node2</title>
<path fill="none" stroke="#63b8ff" d="M52.05,-121.76C54.65,-110.45 57.86,-96.52 60.21,-86.27"/>
<polygon fill="#63b8ff" stroke="#63b8ff" points="48.7,-120.69 49.87,-131.22 55.52,-122.26 48.7,-120.69"/>
</g>
<!-- Node4 -->
<g id="node4" class="node">
<title>Node4</title>
<g id="a_node4"><a xlink:title=" ">
<polygon fill="white" stroke="#666666" points="197.5,-152 113.5,-152 113.5,-133 197.5,-133 197.5,-152"/>
<text text-anchor="middle" x="155.5" y="-140" font-family="Helvetica,sans-Serif" font-size="10.00">std::vector&lt; T &gt;</text>
</a>
</g>
</g>
<!-- Node4&#45;&gt;Node2 -->
<g id="edge3" class="edge">
<title>Node4&#45;&gt;Node2</title>
<path fill="none" stroke="#9a32cd" stroke-dasharray="5,2" d="M134.91,-125.95C119.18,-114.07 97.68,-97.82 82.4,-86.27"/>
<polygon fill="#9a32cd" stroke="#9a32cd" points="132.55,-128.55 142.64,-131.79 136.77,-122.96 132.55,-128.55"/>
<text text-anchor="middle" x="137.5" y="-107" font-family="Helvetica,sans-Serif" font-size="10.00"> m_value</text>
</g>
<!-- Node5 -->
<g id="node5" class="node">
<title>Node5</title>
<g id="a_node5"><a xlink:title=" ">
<polygon fill="white" stroke="#bfbfbf" points="170,-218 141,-218 141,-199 170,-199 170,-218"/>
<text text-anchor="middle" x="155.5" y="-206" font-family="Helvetica,sans-Serif" font-size="10.00">T</text>
</a>
</g>
</g>
<!-- Node5&#45;&gt;Node4 -->
<g id="edge4" class="edge">
<title>Node5&#45;&gt;Node4</title>
<path fill="none" stroke="#9a32cd" stroke-dasharray="5,2" d="M155.5,-187.18C155.5,-175.44 155.5,-161.27 155.5,-152.32"/>
<polygon fill="#9a32cd" stroke="#9a32cd" points="152,-187.09 155.5,-197.09 159,-187.09 152,-187.09"/>
<text text-anchor="middle" x="177" y="-173" font-family="Helvetica,sans-Serif" font-size="10.00"> elements</text>
</g>
</g>
</svg>
