<?xml version="1.0" encoding="UTF-8" standalone="no"?>
<!DOCTYPE svg PUBLIC "-//W3C//DTD SVG 1.1//EN"
 "http://www.w3.org/Graphics/SVG/1.1/DTD/svg11.dtd">
<!-- Generated by graphviz version 7.0.5 (20221223.1930)
 -->
<!-- Title: tson::EnumValue Pages: 1 -->
<svg width="202pt" height="303pt"
 viewBox="0.00 0.00 201.50 303.00" xmlns="http://www.w3.org/2000/svg" xmlns:xlink="http://www.w3.org/1999/xlink">
<g id="graph0" class="graph" transform="scale(1 1) rotate(0) translate(4 299)">
<title>tson::EnumValue</title>
<!-- Node1 -->
<g id="node1" class="node">
<title>Node1</title>
<g id="a_node1"><a xlink:title=" ">
<polygon fill="#999999" stroke="#666666" points="96.5,-19 7.5,-19 7.5,0 96.5,0 96.5,-19"/>
<text text-anchor="middle" x="52" y="-7" font-family="Helvetica,sans-Serif" font-size="10.00">tson::EnumValue</text>
</a>
</g>
</g>
<!-- Node2 -->
<g id="node2" class="node">
<title>Node2</title>
<g id="a_node2"><a xlink:href="classtson_1_1_enum_definition.html" target="_top" xlink:title=" ">
<polygon fill="white" stroke="#bfbfbf" points="104,-85 0,-85 0,-66 104,-66 104,-85"/>
<text text-anchor="middle" x="52" y="-73" font-family="Helvetica,sans-Serif" font-size="10.00">tson::EnumDefinition</text>
</a>
</g>
</g>
<!-- Node2&#45;&gt;Node1 -->
<g id="edge1" class="edge">
<title>Node2&#45;&gt;Node1</title>
<path fill="none" stroke="#9a32cd" stroke-dasharray="5,2" d="M52,-54.18C52,-42.44 52,-28.27 52,-19.32"/>
<polygon fill="#9a32cd" stroke="#9a32cd" points="48.5,-54.09 52,-64.09 55.5,-54.09 48.5,-54.09"/>
<text text-anchor="middle" x="79.5" y="-40" font-family="Helvetica,sans-Serif" font-size="10.00"> m_definition</text>
</g>
<!-- Node3 -->
<g id="node3" class="node">
<title>Node3</title>
<g id="a_node3"><a xlink:title=" ">
<polygon fill="white" stroke="#666666" points="81.5,-228 22.5,-228 22.5,-209 81.5,-209 81.5,-228"/>
<text text-anchor="middle" x="52" y="-216" font-family="Helvetica,sans-Serif" font-size="10.00">std::string</text>
</a>
</g>
</g>
<!-- Node3&#45;&gt;Node2 -->
<g id="edge2" class="edge">
<title>Node3&#45;&gt;Node2</title>
<path fill="none" stroke="#9a32cd" stroke-dasharray="5,2" d="M49.32,-197.58C48.04,-187.03 46.64,-173.83 46,-162 45.28,-148.69 45.28,-145.31 46,-132 46.9,-115.35 49.3,-96.02 50.78,-85.13"/>
<polygon fill="#9a32cd" stroke="#9a32cd" points="45.83,-197.9 50.58,-207.37 52.78,-197.01 45.83,-197.9"/>
<text text-anchor="middle" x="66" y="-144.5" font-family="Helvetica,sans-Serif" font-size="10.00"> m_name</text>
</g>
<!-- Node5 -->
<g id="node5" class="node">
<title>Node5</title>
<g id="a_node5"><a xlink:title=" ">
<polygon fill="white" stroke="#666666" points="193.5,-162 94.5,-162 94.5,-132 193.5,-132 193.5,-162"/>
<text text-anchor="start" x="102.5" y="-150" font-family="Helvetica,sans-Serif" font-size="10.00">std::map&lt; uint32_t,</text>
<text text-anchor="middle" x="144" y="-139" font-family="Helvetica,sans-Serif" font-size="10.00"> std::string &gt;</text>
</a>
</g>
</g>
<!-- Node3&#45;&gt;Node5 -->
<g id="edge5" class="edge">
<title>Node3&#45;&gt;Node5</title>
<path fill="none" stroke="#9a32cd" stroke-dasharray="5,2" d="M72.59,-201.95C88.32,-190.07 109.82,-173.82 125.1,-162.27"/>
<polygon fill="#9a32cd" stroke="#9a32cd" points="70.73,-198.96 64.86,-207.79 74.95,-204.55 70.73,-198.96"/>
<text text-anchor="middle" x="121.5" y="-183" font-family="Helvetica,sans-Serif" font-size="10.00"> elements</text>
</g>
<!-- Node4 -->
<g id="node4" class="node">
<title>Node4</title>
<g id="a_node4"><a xlink:title=" ">
<polygon fill="white" stroke="#666666" points="98.5,-295 5.5,-295 5.5,-265 98.5,-265 98.5,-295"/>
<text text-anchor="start" x="13.5" y="-283" font-family="Helvetica,sans-Serif" font-size="10.00">std::basic_string&lt;</text>
<text text-anchor="middle" x="52" y="-272" font-family="Helvetica,sans-Serif" font-size="10.00"> Char &gt;</text>
</a>
</g>
</g>
<!-- Node4&#45;&gt;Node3 -->
<g id="edge3" class="edge">
<title>Node4&#45;&gt;Node3</title>
<path fill="none" stroke="#63b8ff" d="M52,-253.13C52,-244.29 52,-234.99 52,-228.42"/>
<polygon fill="#63b8ff" stroke="#63b8ff" points="48.5,-253.08 52,-263.08 55.5,-253.08 48.5,-253.08"/>
</g>
<!-- Node5&#45;&gt;Node2 -->
<g id="edge4" class="edge">
<title>Node5&#45;&gt;Node2</title>
<path fill="none" stroke="#9a32cd" stroke-dasharray="5,2" d="M116.21,-125.01C98.67,-111.75 76.9,-95.31 63.75,-85.38"/>
<polygon fill="#9a32cd" stroke="#9a32cd" points="113.64,-127.45 123.73,-130.69 117.86,-121.87 113.64,-127.45"/>
<text text-anchor="middle" x="122.5" y="-106" font-family="Helvetica,sans-Serif" font-size="10.00"> m_values</text>
</g>
</g>
</svg>
