<?xml version="1.0" encoding="UTF-8" standalone="no"?>
<!DOCTYPE svg PUBLIC "-//W3C//DTD SVG 1.1//EN"
 "http://www.w3.org/Graphics/SVG/1.1/DTD/svg11.dtd">
<!-- Generated by graphviz version 7.0.5 (20221223.1930)
 -->
<!-- Title: json11::JsonNull Pages: 1 -->
<svg width="214pt" height="160pt"
 viewBox="0.00 0.00 214.00 160.00" xmlns="http://www.w3.org/2000/svg" xmlns:xlink="http://www.w3.org/1999/xlink">
<g id="graph0" class="graph" transform="scale(1 1) rotate(0) translate(4 156)">
<title>json11::JsonNull</title>
<!-- Node1 -->
<g id="node1" class="node">
<title>Node1</title>
<g id="a_node1"><a xlink:title=" ">
<polygon fill="#999999" stroke="#666666" points="147.5,-19 59.5,-19 59.5,0 147.5,0 147.5,-19"/>
<text text-anchor="middle" x="103.5" y="-7" font-family="Helvetica,sans-Serif" font-size="10.00">json11::JsonNull</text>
</a>
</g>
</g>
<!-- Node2 -->
<g id="node2" class="node">
<title>Node2</title>
<g id="a_node2"><a xlink:href="classjson11_1_1_value.html" target="_top" xlink:title=" ">
<polygon fill="white" stroke="#bfbfbf" points="155.5,-86 51.5,-86 51.5,-56 155.5,-56 155.5,-86"/>
<text text-anchor="start" x="59.5" y="-74" font-family="Helvetica,sans-Serif" font-size="10.00">json11::Value&lt; Json</text>
<text text-anchor="middle" x="103.5" y="-63" font-family="Helvetica,sans-Serif" font-size="10.00">::NUL, NullStruct &gt;</text>
</a>
</g>
</g>
<!-- Node2&#45;&gt;Node1 -->
<g id="edge1" class="edge">
<title>Node2&#45;&gt;Node1</title>
<path fill="none" stroke="#63b8ff" d="M103.5,-44.13C103.5,-35.29 103.5,-25.99 103.5,-19.42"/>
<polygon fill="#63b8ff" stroke="#63b8ff" points="100,-44.08 103.5,-54.08 107,-44.08 100,-44.08"/>
</g>
<!-- Node3 -->
<g id="node3" class="node">
<title>Node3</title>
<g id="a_node3"><a xlink:href="classjson11_1_1_json_value.html" target="_top" xlink:title=" ">
<polygon fill="white" stroke="#bfbfbf" points="95,-152 0,-152 0,-133 95,-133 95,-152"/>
<text text-anchor="middle" x="47.5" y="-140" font-family="Helvetica,sans-Serif" font-size="10.00">json11::JsonValue</text>
</a>
</g>
</g>
<!-- Node3&#45;&gt;Node2 -->
<g id="edge2" class="edge">
<title>Node3&#45;&gt;Node2</title>
<path fill="none" stroke="#63b8ff" d="M61.69,-123.89C71.07,-112.24 83.22,-97.17 92,-86.27"/>
<polygon fill="#63b8ff" stroke="#63b8ff" points="59.09,-121.54 55.54,-131.52 64.54,-125.93 59.09,-121.54"/>
</g>
<!-- Node4 -->
<g id="node4" class="node">
<title>Node4</title>
<g id="a_node4"><a xlink:href="structjson11_1_1_null_struct.html" target="_top" xlink:title=" ">
<polygon fill="white" stroke="#bfbfbf" points="206,-152 113,-152 113,-133 206,-133 206,-152"/>
<text text-anchor="middle" x="159.5" y="-140" font-family="Helvetica,sans-Serif" font-size="10.00">json11::NullStruct</text>
</a>
</g>
</g>
<!-- Node4&#45;&gt;Node2 -->
<g id="edge3" class="edge">
<title>Node4&#45;&gt;Node2</title>
<path fill="none" stroke="#9a32cd" stroke-dasharray="5,2" d="M145.31,-123.89C135.93,-112.24 123.78,-97.17 115,-86.27"/>
<polygon fill="#9a32cd" stroke="#9a32cd" points="142.46,-125.93 151.46,-131.52 147.91,-121.54 142.46,-125.93"/>
<text text-anchor="middle" x="156.5" y="-107" font-family="Helvetica,sans-Serif" font-size="10.00"> m_value</text>
</g>
</g>
</svg>
