<?xml version="1.0" encoding="UTF-8" standalone="no"?>
<!DOCTYPE svg PUBLIC "-//W3C//DTD SVG 1.1//EN"
 "http://www.w3.org/Graphics/SVG/1.1/DTD/svg11.dtd">
<!-- Generated by graphviz version 7.0.5 (20221223.1930)
 -->
<!-- Title: uranus::ecs::SparseArray&lt; Component &gt; Pages: 1 -->
<svg width="132pt" height="236pt"
 viewBox="0.00 0.00 132.00 236.00" xmlns="http://www.w3.org/2000/svg" xmlns:xlink="http://www.w3.org/1999/xlink">
<g id="graph0" class="graph" transform="scale(1 1) rotate(0) translate(4 232)">
<title>uranus::ecs::SparseArray&lt; Component &gt;</title>
<!-- Node1 -->
<g id="node1" class="node">
<title>Node1</title>
<g id="a_node1"><a xlink:title="SparseArray class, used to store components in a sparse way.">
<polygon fill="#999999" stroke="#666666" points="124,-30 0,-30 0,0 124,0 124,-30"/>
<text text-anchor="start" x="8" y="-18" font-family="Helvetica,sans-Serif" font-size="10.00">uranus::ecs::SparseArray</text>
<text text-anchor="middle" x="62" y="-7" font-family="Helvetica,sans-Serif" font-size="10.00">&lt; Component &gt;</text>
</a>
</g>
</g>
<!-- Node2 -->
<g id="node2" class="node">
<title>Node2</title>
<g id="a_node2"><a xlink:title=" ">
<polygon fill="white" stroke="#666666" points="124,-96 0,-96 0,-77 124,-77 124,-96"/>
<text text-anchor="middle" x="62" y="-84" font-family="Helvetica,sans-Serif" font-size="10.00">std::vector&lt; ValueType &gt;</text>
</a>
</g>
</g>
<!-- Node2&#45;&gt;Node1 -->
<g id="edge1" class="edge">
<title>Node2&#45;&gt;Node1</title>
<path fill="none" stroke="#9a32cd" stroke-dasharray="5,2" d="M62,-65.39C62,-54.15 62,-40.41 62,-30.27"/>
<polygon fill="#9a32cd" stroke="#9a32cd" points="58.5,-65.18 62,-75.18 65.5,-65.18 58.5,-65.18"/>
<text text-anchor="middle" x="75.5" y="-51" font-family="Helvetica,sans-Serif" font-size="10.00"> _data</text>
</g>
<!-- Node3 -->
<g id="node3" class="node">
<title>Node3</title>
<g id="a_node3"><a xlink:title=" ">
<polygon fill="white" stroke="#666666" points="113.5,-162 10.5,-162 10.5,-143 113.5,-143 113.5,-162"/>
<text text-anchor="middle" x="62" y="-150" font-family="Helvetica,sans-Serif" font-size="10.00">std::shared_ptr&lt; T &gt;</text>
</a>
</g>
</g>
<!-- Node3&#45;&gt;Node2 -->
<g id="edge2" class="edge">
<title>Node3&#45;&gt;Node2</title>
<path fill="none" stroke="#9a32cd" stroke-dasharray="5,2" d="M62,-131.18C62,-119.44 62,-105.27 62,-96.32"/>
<polygon fill="#9a32cd" stroke="#9a32cd" points="58.5,-131.09 62,-141.09 65.5,-131.09 58.5,-131.09"/>
<text text-anchor="middle" x="83.5" y="-117" font-family="Helvetica,sans-Serif" font-size="10.00"> elements</text>
</g>
<!-- Node4 -->
<g id="node4" class="node">
<title>Node4</title>
<g id="a_node4"><a xlink:title=" ">
<polygon fill="white" stroke="#bfbfbf" points="76.5,-228 47.5,-228 47.5,-209 76.5,-209 76.5,-228"/>
<text text-anchor="middle" x="62" y="-216" font-family="Helvetica,sans-Serif" font-size="10.00">T</text>
</a>
</g>
</g>
<!-- Node4&#45;&gt;Node3 -->
<g id="edge3" class="edge">
<title>Node4&#45;&gt;Node3</title>
<path fill="none" stroke="#9a32cd" stroke-dasharray="5,2" d="M62,-197.18C62,-185.44 62,-171.27 62,-162.32"/>
<polygon fill="#9a32cd" stroke="#9a32cd" points="58.5,-197.09 62,-207.09 65.5,-197.09 58.5,-197.09"/>
<text text-anchor="middle" x="69" y="-183" font-family="Helvetica,sans-Serif" font-size="10.00"> ptr</text>
</g>
</g>
</svg>
