<?xml version="1.0" encoding="UTF-8" standalone="no"?>
<!DOCTYPE svg PUBLIC "-//W3C//DTD SVG 1.1//EN"
 "http://www.w3.org/Graphics/SVG/1.1/DTD/svg11.dtd">
<!-- Generated by graphviz version 7.0.5 (20221223.1930)
 -->
<!-- Title: tson::WorldMapData Pages: 1 -->
<svg width="203pt" height="171pt"
 viewBox="0.00 0.00 203.00 171.00" xmlns="http://www.w3.org/2000/svg" xmlns:xlink="http://www.w3.org/1999/xlink">
<g id="graph0" class="graph" transform="scale(1 1) rotate(0) translate(4 167)">
<title>tson::WorldMapData</title>
<!-- Node1 -->
<g id="node1" class="node">
<title>Node1</title>
<g id="a_node1"><a xlink:title=" ">
<polygon fill="#999999" stroke="#666666" points="164.5,-19 60.5,-19 60.5,0 164.5,0 164.5,-19"/>
<text text-anchor="middle" x="112.5" y="-7" font-family="Helvetica,sans-Serif" font-size="10.00">tson::WorldMapData</text>
</a>
</g>
</g>
<!-- Node2 -->
<g id="node2" class="node">
<title>Node2</title>
<g id="a_node2"><a xlink:title=" ">
<polygon fill="white" stroke="#666666" points="76,-96 17,-96 17,-77 76,-77 76,-96"/>
<text text-anchor="middle" x="46.5" y="-84" font-family="Helvetica,sans-Serif" font-size="10.00">std::string</text>
</a>
</g>
</g>
<!-- Node2&#45;&gt;Node1 -->
<g id="edge1" class="edge">
<title>Node2&#45;&gt;Node1</title>
<path fill="none" stroke="#9a32cd" stroke-dasharray="5,2" d="M57.22,-67.06C63.17,-57.58 71.06,-46.13 79.5,-37 85.58,-30.42 93.36,-24.09 99.84,-19.27"/>
<polygon fill="#9a32cd" stroke="#9a32cd" points="54.35,-65.04 52.18,-75.41 60.35,-68.65 54.35,-65.04"/>
<text text-anchor="middle" x="100" y="-45.5" font-family="Helvetica,sans-Serif" font-size="10.00"> fileName</text>
</g>
<!-- Node3 -->
<g id="node3" class="node">
<title>Node3</title>
<g id="a_node3"><a xlink:title=" ">
<polygon fill="white" stroke="#666666" points="93,-163 0,-163 0,-133 93,-133 93,-163"/>
<text text-anchor="start" x="8" y="-151" font-family="Helvetica,sans-Serif" font-size="10.00">std::basic_string&lt;</text>
<text text-anchor="middle" x="46.5" y="-140" font-family="Helvetica,sans-Serif" font-size="10.00"> Char &gt;</text>
</a>
</g>
</g>
<!-- Node3&#45;&gt;Node2 -->
<g id="edge2" class="edge">
<title>Node3&#45;&gt;Node2</title>
<path fill="none" stroke="#63b8ff" d="M46.5,-121.13C46.5,-112.29 46.5,-102.99 46.5,-96.42"/>
<polygon fill="#63b8ff" stroke="#63b8ff" points="43,-121.08 46.5,-131.08 50,-121.08 43,-121.08"/>
</g>
<!-- Node4 -->
<g id="node4" class="node">
<title>Node4</title>
<g id="a_node4"><a xlink:href="classtson_1_1_vector2.html" target="_top" xlink:title=" ">
<polygon fill="white" stroke="#bfbfbf" points="195,-96 94,-96 94,-77 195,-77 195,-96"/>
<text text-anchor="middle" x="144.5" y="-84" font-family="Helvetica,sans-Serif" font-size="10.00">tson::Vector2&lt; int &gt;</text>
</a>
</g>
</g>
<!-- Node4&#45;&gt;Node1 -->
<g id="edge3" class="edge">
<title>Node4&#45;&gt;Node1</title>
<path fill="none" stroke="#9a32cd" stroke-dasharray="5,2" d="M136.32,-66.32C129.88,-51.22 121.2,-30.88 116.29,-19.39"/>
<polygon fill="#9a32cd" stroke="#9a32cd" points="132.97,-67.39 140.11,-75.21 139.4,-64.64 132.97,-67.39"/>
<text text-anchor="middle" x="150" y="-51" font-family="Helvetica,sans-Serif" font-size="10.00"> position</text>
<text text-anchor="middle" x="150" y="-40" font-family="Helvetica,sans-Serif" font-size="10.00">size</text>
</g>
</g>
</svg>
