<?xml version="1.0" encoding="UTF-8" standalone="no"?>
<!DOCTYPE svg PUBLIC "-//W3C//DTD SVG 1.1//EN"
 "http://www.w3.org/Graphics/SVG/1.1/DTD/svg11.dtd">
<!-- Generated by graphviz version 7.0.5 (20221223.1930)
 -->
<!-- Title: Graphical Class Hierarchy Pages: 1 -->
<svg width="329pt" height="212pt"
 viewBox="0.00 0.00 329.00 212.00" xmlns="http://www.w3.org/2000/svg" xmlns:xlink="http://www.w3.org/1999/xlink">
<g id="graph0" class="graph" transform="scale(1 1) rotate(0) translate(4 208)">
<title>Graphical Class Hierarchy</title>
<!-- Node0 -->
<g id="node1" class="node">
<title>Node0</title>
<g id="a_node1"><a xlink:href="classengine_1_1_base.html" target="_top" xlink:title=" ">
<polygon fill="white" stroke="#666666" points="72,-111 0,-111 0,-92 72,-92 72,-111"/>
<text text-anchor="middle" x="36" y="-99" font-family="Helvetica,sans-Serif" font-size="10.00">engine::Base</text>
</a>
</g>
</g>
<!-- Node1 -->
<g id="node2" class="node">
<title>Node1</title>
<g id="a_node2"><a xlink:href="class_bullet.html" target="_top" xlink:title=" ">
<polygon fill="white" stroke="#666666" points="166,-204 125,-204 125,-185 166,-185 166,-204"/>
<text text-anchor="middle" x="145.5" y="-192" font-family="Helvetica,sans-Serif" font-size="10.00">Bullet</text>
</a>
</g>
</g>
<!-- Node0&#45;&gt;Node1 -->
<g id="edge1" class="edge">
<title>Node0&#45;&gt;Node1</title>
<path fill="none" stroke="#63b8ff" d="M51.3,-119.99C64.65,-136.36 85.81,-160.13 108,-176.5 113.12,-180.27 119.15,-183.62 124.82,-186.37"/>
<polygon fill="#63b8ff" stroke="#63b8ff" points="54.3,-118.14 45.33,-112.5 48.83,-122.5 54.3,-118.14"/>
</g>
<!-- Node3 -->
<g id="node4" class="node">
<title>Node3</title>
<g id="a_node4"><a xlink:href="class_enemy.html" target="_top" xlink:title=" ">
<polygon fill="white" stroke="#666666" points="168.5,-167 122.5,-167 122.5,-148 168.5,-148 168.5,-167"/>
<text text-anchor="middle" x="145.5" y="-155" font-family="Helvetica,sans-Serif" font-size="10.00">Enemy</text>
</a>
</g>
</g>
<!-- Node0&#45;&gt;Node3 -->
<g id="edge3" class="edge">
<title>Node0&#45;&gt;Node3</title>
<path fill="none" stroke="#63b8ff" d="M64.81,-116.66C77.86,-123.71 93.68,-132.14 108,-139.5 113.15,-142.15 118.75,-144.95 123.98,-147.53"/>
<polygon fill="#63b8ff" stroke="#63b8ff" points="66.8,-113.76 56.34,-112.07 63.46,-119.91 66.8,-113.76"/>
</g>
<!-- Node5 -->
<g id="node6" class="node">
<title>Node5</title>
<g id="a_node6"><a xlink:href="class_explosion.html" target="_top" xlink:title=" ">
<polygon fill="white" stroke="#666666" points="174.5,-130 116.5,-130 116.5,-111 174.5,-111 174.5,-130"/>
<text text-anchor="middle" x="145.5" y="-118" font-family="Helvetica,sans-Serif" font-size="10.00">Explosion</text>
</a>
</g>
</g>
<!-- Node0&#45;&gt;Node5 -->
<g id="edge5" class="edge">
<title>Node0&#45;&gt;Node5</title>
<path fill="none" stroke="#63b8ff" d="M83.78,-109.77C94.81,-111.72 106.25,-113.74 116.18,-115.49"/>
<polygon fill="#63b8ff" stroke="#63b8ff" points="84.44,-106.33 73.99,-108.04 83.23,-113.22 84.44,-106.33"/>
</g>
<!-- Node6 -->
<g id="node7" class="node">
<title>Node6</title>
<g id="a_node7"><a xlink:href="class_player.html" target="_top" xlink:title=" ">
<polygon fill="white" stroke="#666666" points="167.5,-93 123.5,-93 123.5,-74 167.5,-74 167.5,-93"/>
<text text-anchor="middle" x="145.5" y="-81" font-family="Helvetica,sans-Serif" font-size="10.00">Player</text>
</a>
</g>
</g>
<!-- Node0&#45;&gt;Node6 -->
<g id="edge6" class="edge">
<title>Node0&#45;&gt;Node6</title>
<path fill="none" stroke="#63b8ff" d="M83.8,-93.66C97.52,-91.37 111.86,-88.97 123.15,-87.07"/>
<polygon fill="#63b8ff" stroke="#63b8ff" points="83.27,-90.2 73.99,-95.31 84.43,-97.11 83.27,-90.2"/>
</g>
<!-- Node7 -->
<g id="node8" class="node">
<title>Node7</title>
<g id="a_node8"><a xlink:href="classbonus_1_1_bonus.html" target="_top" xlink:title=" ">
<polygon fill="white" stroke="#666666" points="183,-56 108,-56 108,-37 183,-37 183,-56"/>
<text text-anchor="middle" x="145.5" y="-44" font-family="Helvetica,sans-Serif" font-size="10.00">bonus::Bonus</text>
</a>
</g>
</g>
<!-- Node0&#45;&gt;Node7 -->
<g id="edge7" class="edge">
<title>Node0&#45;&gt;Node7</title>
<path fill="none" stroke="#63b8ff" d="M66.28,-86.52C84.98,-76.95 108.69,-64.82 125.09,-56.43"/>
<polygon fill="#63b8ff" stroke="#63b8ff" points="64.87,-83.31 57.57,-90.98 68.06,-89.54 64.87,-83.31"/>
</g>
<!-- Node9 -->
<g id="node10" class="node">
<title>Node9</title>
<g id="a_node10"><a xlink:href="classui_1_1_button.html" target="_top" xlink:title=" ">
<polygon fill="white" stroke="#666666" points="174,-19 117,-19 117,0 174,0 174,-19"/>
<text text-anchor="middle" x="145.5" y="-7" font-family="Helvetica,sans-Serif" font-size="10.00">ui::Button</text>
</a>
</g>
</g>
<!-- Node0&#45;&gt;Node9 -->
<g id="edge9" class="edge">
<title>Node0&#45;&gt;Node9</title>
<path fill="none" stroke="#63b8ff" d="M51.92,-83.13C65.41,-67.31 86.42,-44.55 108,-28.5 112.47,-25.17 117.61,-22.11 122.58,-19.46"/>
<polygon fill="#63b8ff" stroke="#63b8ff" points="49.59,-80.46 45.87,-90.38 54.96,-84.95 49.59,-80.46"/>
</g>
<!-- Node2 -->
<g id="node3" class="node">
<title>Node2</title>
<g id="a_node3"><a xlink:href="class_bullet_enemy.html" target="_top" xlink:title=" ">
<polygon fill="white" stroke="#666666" points="305.5,-204 234.5,-204 234.5,-185 305.5,-185 305.5,-204"/>
<text text-anchor="middle" x="270" y="-192" font-family="Helvetica,sans-Serif" font-size="10.00">BulletEnemy</text>
</a>
</g>
</g>
<!-- Node1&#45;&gt;Node2 -->
<g id="edge2" class="edge">
<title>Node1&#45;&gt;Node2</title>
<path fill="none" stroke="#63b8ff" d="M177.87,-194.5C195.09,-194.5 216.47,-194.5 234.2,-194.5"/>
<polygon fill="#63b8ff" stroke="#63b8ff" points="177.97,-191 167.97,-194.5 177.97,-198 177.97,-191"/>
</g>
<!-- Node4 -->
<g id="node5" class="node">
<title>Node4</title>
<g id="a_node5"><a xlink:href="class_enemy_shooter.html" target="_top" xlink:title=" ">
<polygon fill="white" stroke="#666666" points="310,-167 230,-167 230,-148 310,-148 310,-167"/>
<text text-anchor="middle" x="270" y="-155" font-family="Helvetica,sans-Serif" font-size="10.00">EnemyShooter</text>
</a>
</g>
</g>
<!-- Node3&#45;&gt;Node4 -->
<g id="edge4" class="edge">
<title>Node3&#45;&gt;Node4</title>
<path fill="none" stroke="#63b8ff" d="M180.07,-157.5C195.46,-157.5 213.8,-157.5 229.81,-157.5"/>
<polygon fill="#63b8ff" stroke="#63b8ff" points="180.48,-154 170.48,-157.5 180.48,-161 180.48,-154"/>
</g>
<!-- Node8 -->
<g id="node9" class="node">
<title>Node8</title>
<g id="a_node9"><a xlink:href="classbonus_1_1_double_bullet.html" target="_top" xlink:title=" ">
<polygon fill="white" stroke="#666666" points="321,-56 219,-56 219,-37 321,-37 321,-56"/>
<text text-anchor="middle" x="270" y="-44" font-family="Helvetica,sans-Serif" font-size="10.00">bonus::DoubleBullet</text>
</a>
</g>
</g>
<!-- Node7&#45;&gt;Node8 -->
<g id="edge8" class="edge">
<title>Node7&#45;&gt;Node8</title>
<path fill="none" stroke="#63b8ff" d="M194.57,-46.5C202.48,-46.5 210.71,-46.5 218.68,-46.5"/>
<polygon fill="#63b8ff" stroke="#63b8ff" points="194.77,-43 184.77,-46.5 194.77,-50 194.77,-43"/>
</g>
</g>
</svg>
