<?xml version="1.0" encoding="UTF-8" standalone="no"?>
<!DOCTYPE svg PUBLIC "-//W3C//DTD SVG 1.1//EN"
 "http://www.w3.org/Graphics/SVG/1.1/DTD/svg11.dtd">
<!-- Generated by graphviz version 7.0.5 (20221223.1930)
 -->
<!-- Title: Graphical Class Hierarchy Pages: 1 -->
<svg width="192pt" height="64pt"
 viewBox="0.00 0.00 192.00 64.00" xmlns="http://www.w3.org/2000/svg" xmlns:xlink="http://www.w3.org/1999/xlink">
<g id="graph0" class="graph" transform="scale(1 1) rotate(0) translate(4 60)">
<title>Graphical Class Hierarchy</title>
<!-- Node0 -->
<g id="node1" class="node">
<title>Node0</title>
<g id="a_node1"><a xlink:href="classengine_1_1_scene.html" target="_top" xlink:title=" ">
<polygon fill="white" stroke="#666666" points="77,-37 0,-37 0,-18 77,-18 77,-37"/>
<text text-anchor="middle" x="38.5" y="-25" font-family="Helvetica,sans-Serif" font-size="10.00">engine::Scene</text>
</a>
</g>
</g>
<!-- Node1 -->
<g id="node2" class="node">
<title>Node1</title>
<g id="a_node2"><a xlink:href="class_scene_game.html" target="_top" xlink:title=" ">
<polygon fill="white" stroke="#666666" points="184,-56 113,-56 113,-37 184,-37 184,-56"/>
<text text-anchor="middle" x="148.5" y="-44" font-family="Helvetica,sans-Serif" font-size="10.00">SceneGame</text>
</a>
</g>
</g>
<!-- Node0&#45;&gt;Node1 -->
<g id="edge1" class="edge">
<title>Node0&#45;&gt;Node1</title>
<path fill="none" stroke="#63b8ff" d="M88.36,-36.09C96.61,-37.55 105.03,-39.03 112.82,-40.4"/>
<polygon fill="#63b8ff" stroke="#63b8ff" points="89.22,-32.69 78.76,-34.41 88.01,-39.59 89.22,-32.69"/>
</g>
<!-- Node2 -->
<g id="node3" class="node">
<title>Node2</title>
<g id="a_node3"><a xlink:href="class_scene_main.html" target="_top" xlink:title=" ">
<polygon fill="white" stroke="#666666" points="181,-19 116,-19 116,0 181,0 181,-19"/>
<text text-anchor="middle" x="148.5" y="-7" font-family="Helvetica,sans-Serif" font-size="10.00">SceneMain</text>
</a>
</g>
</g>
<!-- Node0&#45;&gt;Node2 -->
<g id="edge2" class="edge">
<title>Node0&#45;&gt;Node2</title>
<path fill="none" stroke="#63b8ff" d="M88.39,-19.35C97.64,-17.81 107.1,-16.23 115.66,-14.81"/>
<polygon fill="#63b8ff" stroke="#63b8ff" points="88.05,-15.86 78.77,-20.96 89.21,-22.76 88.05,-15.86"/>
</g>
</g>
</svg>
