<?xml version="1.0" encoding="UTF-8" standalone="no"?>
<!DOCTYPE svg PUBLIC "-//W3C//DTD SVG 1.1//EN"
 "http://www.w3.org/Graphics/SVG/1.1/DTD/svg11.dtd">
<!-- Generated by graphviz version 7.0.5 (20221223.1930)
 -->
<!-- Title: Graphical Class Hierarchy Pages: 1 -->
<svg width="406pt" height="364pt"
 viewBox="0.00 0.00 406.00 363.50" xmlns="http://www.w3.org/2000/svg" xmlns:xlink="http://www.w3.org/1999/xlink">
<g id="graph0" class="graph" transform="scale(1 1) rotate(0) translate(4 359.5)">
<title>Graphical Class Hierarchy</title>
<!-- Node0 -->
<g id="node1" class="node">
<title>Node0</title>
<g id="a_node1"><a xlink:href="classjson11_1_1_json_value.html" target="_top" xlink:title=" ">
<polygon fill="white" stroke="#666666" points="95,-182 0,-182 0,-163 95,-163 95,-182"/>
<text text-anchor="middle" x="47.5" y="-170" font-family="Helvetica,sans-Serif" font-size="10.00">json11::JsonValue</text>
</a>
</g>
</g>
<!-- Node1 -->
<g id="node2" class="node">
<title>Node1</title>
<g id="a_node2"><a xlink:href="classjson11_1_1_value.html" target="_top" xlink:title=" ">
<polygon fill="white" stroke="#666666" points="251,-355.5 136,-355.5 136,-325.5 251,-325.5 251,-355.5"/>
<text text-anchor="start" x="144" y="-343.5" font-family="Helvetica,sans-Serif" font-size="10.00">json11::Value&lt; Json</text>
<text text-anchor="middle" x="193.5" y="-332.5" font-family="Helvetica,sans-Serif" font-size="10.00">::ARRAY, Json::array &gt;</text>
</a>
</g>
</g>
<!-- Node0&#45;&gt;Node1 -->
<g id="edge1" class="edge">
<title>Node0&#45;&gt;Node1</title>
<path fill="none" stroke="#63b8ff" d="M55.26,-193.13C66.38,-224.02 91.31,-282.29 131,-316.5 134.82,-319.79 139.14,-322.66 143.69,-325.16"/>
<polygon fill="#63b8ff" stroke="#63b8ff" points="58.63,-192.15 52.06,-183.83 52.01,-194.43 58.63,-192.15"/>
</g>
<!-- Node3 -->
<g id="node4" class="node">
<title>Node3</title>
<g id="a_node4"><a xlink:href="classjson11_1_1_value.html" target="_top" xlink:title=" ">
<polygon fill="white" stroke="#666666" points="245.5,-307.5 141.5,-307.5 141.5,-277.5 245.5,-277.5 245.5,-307.5"/>
<text text-anchor="start" x="149.5" y="-295.5" font-family="Helvetica,sans-Serif" font-size="10.00">json11::Value&lt; Json</text>
<text text-anchor="middle" x="193.5" y="-284.5" font-family="Helvetica,sans-Serif" font-size="10.00">::BOOL, bool &gt;</text>
</a>
</g>
</g>
<!-- Node0&#45;&gt;Node3 -->
<g id="edge3" class="edge">
<title>Node0&#45;&gt;Node3</title>
<path fill="none" stroke="#63b8ff" d="M60.7,-191.66C75.16,-213.01 101.11,-247.32 131,-268.5 135.49,-271.68 140.46,-274.51 145.57,-277.01"/>
<polygon fill="#63b8ff" stroke="#63b8ff" points="63.81,-190.02 55.38,-183.59 57.96,-193.87 63.81,-190.02"/>
</g>
<!-- Node5 -->
<g id="node6" class="node">
<title>Node5</title>
<g id="a_node6"><a xlink:href="classjson11_1_1_value.html" target="_top" xlink:title=" ">
<polygon fill="white" stroke="#666666" points="246.5,-259.5 140.5,-259.5 140.5,-229.5 246.5,-229.5 246.5,-259.5"/>
<text text-anchor="start" x="148.5" y="-247.5" font-family="Helvetica,sans-Serif" font-size="10.00">json11::Value&lt; Json</text>
<text text-anchor="middle" x="193.5" y="-236.5" font-family="Helvetica,sans-Serif" font-size="10.00">::NUMBER, double &gt;</text>
</a>
</g>
</g>
<!-- Node0&#45;&gt;Node5 -->
<g id="edge5" class="edge">
<title>Node0&#45;&gt;Node5</title>
<path fill="none" stroke="#63b8ff" d="M73.63,-188.49C89.69,-198.36 111.17,-210.93 131,-220.5 137.19,-223.49 143.86,-226.39 150.44,-229.09"/>
<polygon fill="#63b8ff" stroke="#63b8ff" points="75.55,-185.56 65.21,-183.24 71.85,-191.5 75.55,-185.56"/>
</g>
<!-- Node7 -->
<g id="node8" class="node">
<title>Node7</title>
<g id="a_node8"><a xlink:href="classjson11_1_1_value.html" target="_top" xlink:title=" ">
<polygon fill="white" stroke="#666666" points="245.5,-211.5 141.5,-211.5 141.5,-181.5 245.5,-181.5 245.5,-211.5"/>
<text text-anchor="start" x="149.5" y="-199.5" font-family="Helvetica,sans-Serif" font-size="10.00">json11::Value&lt; Json</text>
<text text-anchor="middle" x="193.5" y="-188.5" font-family="Helvetica,sans-Serif" font-size="10.00">::NUMBER, int &gt;</text>
</a>
</g>
</g>
<!-- Node0&#45;&gt;Node7 -->
<g id="edge7" class="edge">
<title>Node0&#45;&gt;Node7</title>
<path fill="none" stroke="#63b8ff" d="M106.47,-182.16C117.89,-184.07 129.81,-186.05 141,-187.92"/>
<polygon fill="#63b8ff" stroke="#63b8ff" points="107.18,-178.73 96.75,-180.54 106.03,-185.64 107.18,-178.73"/>
</g>
<!-- Node9 -->
<g id="node10" class="node">
<title>Node9</title>
<g id="a_node10"><a xlink:href="classjson11_1_1_value.html" target="_top" xlink:title=" ">
<polygon fill="white" stroke="#666666" points="245.5,-163.5 141.5,-163.5 141.5,-133.5 245.5,-133.5 245.5,-163.5"/>
<text text-anchor="start" x="149.5" y="-151.5" font-family="Helvetica,sans-Serif" font-size="10.00">json11::Value&lt; Json</text>
<text text-anchor="middle" x="193.5" y="-140.5" font-family="Helvetica,sans-Serif" font-size="10.00">::NUL, NullStruct &gt;</text>
</a>
</g>
</g>
<!-- Node0&#45;&gt;Node9 -->
<g id="edge9" class="edge">
<title>Node0&#45;&gt;Node9</title>
<path fill="none" stroke="#63b8ff" d="M106.47,-162.84C117.89,-160.93 129.81,-158.95 141,-157.08"/>
<polygon fill="#63b8ff" stroke="#63b8ff" points="106.03,-159.36 96.75,-164.46 107.18,-166.27 106.03,-159.36"/>
</g>
<!-- Node11 -->
<g id="node12" class="node">
<title>Node11</title>
<g id="a_node12"><a xlink:href="classjson11_1_1_value.html" target="_top" xlink:title=" ">
<polygon fill="white" stroke="#666666" points="256,-115.5 131,-115.5 131,-85.5 256,-85.5 256,-115.5"/>
<text text-anchor="start" x="139" y="-103.5" font-family="Helvetica,sans-Serif" font-size="10.00">json11::Value&lt; Json</text>
<text text-anchor="middle" x="193.5" y="-92.5" font-family="Helvetica,sans-Serif" font-size="10.00">::OBJECT, Json::object &gt;</text>
</a>
</g>
</g>
<!-- Node0&#45;&gt;Node11 -->
<g id="edge11" class="edge">
<title>Node0&#45;&gt;Node11</title>
<path fill="none" stroke="#63b8ff" d="M73.63,-156.51C89.69,-146.64 111.17,-134.07 131,-124.5 137.19,-121.51 143.86,-118.61 150.44,-115.91"/>
<polygon fill="#63b8ff" stroke="#63b8ff" points="71.85,-153.5 65.21,-161.76 75.55,-159.44 71.85,-153.5"/>
</g>
<!-- Node13 -->
<g id="node14" class="node">
<title>Node13</title>
<g id="a_node14"><a xlink:href="classjson11_1_1_value.html" target="_top" xlink:title=" ">
<polygon fill="white" stroke="#666666" points="245.5,-67.5 141.5,-67.5 141.5,-37.5 245.5,-37.5 245.5,-67.5"/>
<text text-anchor="start" x="149.5" y="-55.5" font-family="Helvetica,sans-Serif" font-size="10.00">json11::Value&lt; Json</text>
<text text-anchor="middle" x="193.5" y="-44.5" font-family="Helvetica,sans-Serif" font-size="10.00">::STRING, string &gt;</text>
</a>
</g>
</g>
<!-- Node0&#45;&gt;Node13 -->
<g id="edge13" class="edge">
<title>Node0&#45;&gt;Node13</title>
<path fill="none" stroke="#63b8ff" d="M60.7,-153.34C75.16,-131.99 101.11,-97.68 131,-76.5 135.49,-73.32 140.46,-70.49 145.57,-67.99"/>
<polygon fill="#63b8ff" stroke="#63b8ff" points="57.96,-151.13 55.38,-161.41 63.81,-154.98 57.96,-151.13"/>
</g>
<!-- Node15 -->
<g id="node16" class="node">
<title>Node15</title>
<g id="a_node16"><a xlink:href="classjson11_1_1_value.html" target="_top" xlink:title=" ">
<polygon fill="white" stroke="#666666" points="251.5,-19 135.5,-19 135.5,0 251.5,0 251.5,-19"/>
<text text-anchor="middle" x="193.5" y="-7" font-family="Helvetica,sans-Serif" font-size="10.00">json11::Value&lt; tag, T &gt;</text>
</a>
</g>
</g>
<!-- Node0&#45;&gt;Node15 -->
<g id="edge15" class="edge">
<title>Node0&#45;&gt;Node15</title>
<path fill="none" stroke="#63b8ff" d="M54.8,-151.96C65.44,-120.71 89.9,-61.41 131,-28.5 135.62,-24.8 140.97,-21.82 146.54,-19.41"/>
<polygon fill="#63b8ff" stroke="#63b8ff" points="51.51,-150.76 51.76,-161.35 58.17,-152.92 51.51,-150.76"/>
</g>
<!-- Node2 -->
<g id="node3" class="node">
<title>Node2</title>
<g id="a_node3"><a xlink:href="classjson11_1_1_json_array.html" target="_top" xlink:title=" ">
<polygon fill="white" stroke="#666666" points="391.5,-350 298.5,-350 298.5,-331 391.5,-331 391.5,-350"/>
<text text-anchor="middle" x="345" y="-338" font-family="Helvetica,sans-Serif" font-size="10.00">json11::JsonArray</text>
</a>
</g>
</g>
<!-- Node1&#45;&gt;Node2 -->
<g id="edge2" class="edge">
<title>Node1&#45;&gt;Node2</title>
<path fill="none" stroke="#63b8ff" d="M262.87,-340.5C274.89,-340.5 287.14,-340.5 298.35,-340.5"/>
<polygon fill="#63b8ff" stroke="#63b8ff" points="262.96,-337 252.96,-340.5 262.96,-344 262.96,-337"/>
</g>
<!-- Node4 -->
<g id="node5" class="node">
<title>Node4</title>
<g id="a_node5"><a xlink:href="classjson11_1_1_json_boolean.html" target="_top" xlink:title=" ">
<polygon fill="white" stroke="#666666" points="398,-302 292,-302 292,-283 398,-283 398,-302"/>
<text text-anchor="middle" x="345" y="-290" font-family="Helvetica,sans-Serif" font-size="10.00">json11::JsonBoolean</text>
</a>
</g>
</g>
<!-- Node3&#45;&gt;Node4 -->
<g id="edge4" class="edge">
<title>Node3&#45;&gt;Node4</title>
<path fill="none" stroke="#63b8ff" d="M257.25,-292.5C268.72,-292.5 280.57,-292.5 291.69,-292.5"/>
<polygon fill="#63b8ff" stroke="#63b8ff" points="257.46,-289 247.46,-292.5 257.46,-296 257.46,-289"/>
</g>
<!-- Node6 -->
<g id="node7" class="node">
<title>Node6</title>
<g id="a_node7"><a xlink:href="classjson11_1_1_json_double.html" target="_top" xlink:title=" ">
<polygon fill="white" stroke="#666666" points="395.5,-254 294.5,-254 294.5,-235 395.5,-235 395.5,-254"/>
<text text-anchor="middle" x="345" y="-242" font-family="Helvetica,sans-Serif" font-size="10.00">json11::JsonDouble</text>
</a>
</g>
</g>
<!-- Node5&#45;&gt;Node6 -->
<g id="edge6" class="edge">
<title>Node5&#45;&gt;Node6</title>
<path fill="none" stroke="#63b8ff" d="M258.13,-244.5C270.12,-244.5 282.5,-244.5 294,-244.5"/>
<polygon fill="#63b8ff" stroke="#63b8ff" points="258.3,-241 248.3,-244.5 258.3,-248 258.3,-241"/>
</g>
<!-- Node8 -->
<g id="node9" class="node">
<title>Node8</title>
<g id="a_node9"><a xlink:href="classjson11_1_1_json_int.html" target="_top" xlink:title=" ">
<polygon fill="white" stroke="#666666" points="386,-206 304,-206 304,-187 386,-187 386,-206"/>
<text text-anchor="middle" x="345" y="-194" font-family="Helvetica,sans-Serif" font-size="10.00">json11::JsonInt</text>
</a>
</g>
</g>
<!-- Node7&#45;&gt;Node8 -->
<g id="edge8" class="edge">
<title>Node7&#45;&gt;Node8</title>
<path fill="none" stroke="#63b8ff" d="M257.25,-196.5C273,-196.5 289.48,-196.5 303.79,-196.5"/>
<polygon fill="#63b8ff" stroke="#63b8ff" points="257.46,-193 247.46,-196.5 257.46,-200 257.46,-193"/>
</g>
<!-- Node10 -->
<g id="node11" class="node">
<title>Node10</title>
<g id="a_node11"><a xlink:href="classjson11_1_1_json_null.html" target="_top" xlink:title=" ">
<polygon fill="white" stroke="#666666" points="389,-158 301,-158 301,-139 389,-139 389,-158"/>
<text text-anchor="middle" x="345" y="-146" font-family="Helvetica,sans-Serif" font-size="10.00">json11::JsonNull</text>
</a>
</g>
</g>
<!-- Node9&#45;&gt;Node10 -->
<g id="edge10" class="edge">
<title>Node9&#45;&gt;Node10</title>
<path fill="none" stroke="#63b8ff" d="M257.07,-148.5C271.82,-148.5 287.23,-148.5 300.9,-148.5"/>
<polygon fill="#63b8ff" stroke="#63b8ff" points="257.46,-145 247.46,-148.5 257.46,-152 257.46,-145"/>
</g>
<!-- Node12 -->
<g id="node13" class="node">
<title>Node12</title>
<g id="a_node13"><a xlink:href="classjson11_1_1_json_object.html" target="_top" xlink:title=" ">
<polygon fill="white" stroke="#666666" points="394.5,-110 295.5,-110 295.5,-91 394.5,-91 394.5,-110"/>
<text text-anchor="middle" x="345" y="-98" font-family="Helvetica,sans-Serif" font-size="10.00">json11::JsonObject</text>
</a>
</g>
</g>
<!-- Node11&#45;&gt;Node12 -->
<g id="edge12" class="edge">
<title>Node11&#45;&gt;Node12</title>
<path fill="none" stroke="#63b8ff" d="M267.57,-100.5C276.96,-100.5 286.38,-100.5 295.25,-100.5"/>
<polygon fill="#63b8ff" stroke="#63b8ff" points="267.68,-97 257.68,-100.5 267.68,-104 267.68,-97"/>
</g>
<!-- Node14 -->
<g id="node15" class="node">
<title>Node14</title>
<g id="a_node15"><a xlink:href="classjson11_1_1_json_string.html" target="_top" xlink:title=" ">
<polygon fill="white" stroke="#666666" points="393,-62 297,-62 297,-43 393,-43 393,-62"/>
<text text-anchor="middle" x="345" y="-50" font-family="Helvetica,sans-Serif" font-size="10.00">json11::JsonString</text>
</a>
</g>
</g>
<!-- Node13&#45;&gt;Node14 -->
<g id="edge14" class="edge">
<title>Node13&#45;&gt;Node14</title>
<path fill="none" stroke="#63b8ff" d="M257.42,-52.5C270.67,-52.5 284.43,-52.5 296.97,-52.5"/>
<polygon fill="#63b8ff" stroke="#63b8ff" points="257.46,-49 247.46,-52.5 257.46,-56 257.46,-49"/>
</g>
</g>
</svg>
