<?xml version="1.0" encoding="UTF-8" standalone="no"?>
<!DOCTYPE svg PUBLIC "-//W3C//DTD SVG 1.1//EN"
 "http://www.w3.org/Graphics/SVG/1.1/DTD/svg11.dtd">
<!-- Generated by graphviz version 7.0.5 (20221223.1930)
 -->
<!-- Title: json11::Statics Pages: 1 -->
<svg width="780pt" height="152pt"
 viewBox="0.00 0.00 780.00 152.00" xmlns="http://www.w3.org/2000/svg" xmlns:xlink="http://www.w3.org/1999/xlink">
<g id="graph0" class="graph" transform="scale(1 1) rotate(0) translate(4 148)">
<title>json11::Statics</title>
<!-- Node1 -->
<g id="node1" class="node">
<title>Node1</title>
<g id="a_node1"><a xlink:title=" ">
<polygon fill="#999999" stroke="#666666" points="772,-79.5 692,-79.5 692,-60.5 772,-60.5 772,-79.5"/>
<text text-anchor="middle" x="732" y="-67.5" font-family="Helvetica,sans-Serif" font-size="10.00">json11::Statics</text>
</a>
</g>
</g>
<!-- Node2 -->
<g id="node2" class="node">
<title>Node2</title>
<g id="a_node2"><a xlink:title=" ">
<polygon fill="white" stroke="#666666" points="262,-30 145,-30 145,0 262,0 262,-30"/>
<text text-anchor="start" x="153" y="-18" font-family="Helvetica,sans-Serif" font-size="10.00">std::shared_ptr&lt; json11</text>
<text text-anchor="middle" x="203.5" y="-7" font-family="Helvetica,sans-Serif" font-size="10.00">::JsonValue &gt;</text>
</a>
</g>
</g>
<!-- Node2&#45;&gt;Node1 -->
<g id="edge1" class="edge">
<title>Node2&#45;&gt;Node1</title>
<path fill="none" stroke="#9a32cd" stroke-dasharray="5,2" d="M273.46,-7.3C352.24,-0.43 484.54,5.22 595,-19 637.37,-28.29 684.2,-48.12 710.37,-60.13"/>
<polygon fill="#9a32cd" stroke="#9a32cd" points="273.39,-3.79 263.74,-8.18 274.02,-10.76 273.39,-3.79"/>
<text text-anchor="middle" x="436.5" y="-28" font-family="Helvetica,sans-Serif" font-size="10.00"> f</text>
<text text-anchor="middle" x="436.5" y="-17" font-family="Helvetica,sans-Serif" font-size="10.00">null</text>
<text text-anchor="middle" x="436.5" y="-6" font-family="Helvetica,sans-Serif" font-size="10.00">t</text>
</g>
<!-- Node7 -->
<g id="node7" class="node">
<title>Node7</title>
<g id="a_node7"><a xlink:href="classjson11_1_1_json.html" target="_top" xlink:title=" ">
<polygon fill="white" stroke="#bfbfbf" points="397,-57.5 326,-57.5 326,-38.5 397,-38.5 397,-57.5"/>
<text text-anchor="middle" x="361.5" y="-45.5" font-family="Helvetica,sans-Serif" font-size="10.00">json11::Json</text>
</a>
</g>
</g>
<!-- Node2&#45;&gt;Node7 -->
<g id="edge7" class="edge">
<title>Node2&#45;&gt;Node7</title>
<path fill="none" stroke="#9a32cd" stroke-dasharray="5,2" d="M273.31,-29.56C291.45,-33.39 310.25,-37.37 325.73,-40.65"/>
<polygon fill="#9a32cd" stroke="#9a32cd" points="274.13,-26.15 263.63,-27.51 272.69,-33 274.13,-26.15"/>
<text text-anchor="middle" x="294" y="-40" font-family="Helvetica,sans-Serif" font-size="10.00"> m_ptr</text>
</g>
<!-- Node3 -->
<g id="node3" class="node">
<title>Node3</title>
<g id="a_node3"><a xlink:href="classjson11_1_1_json_value.html" target="_top" xlink:title=" ">
<polygon fill="white" stroke="#bfbfbf" points="95,-24.5 0,-24.5 0,-5.5 95,-5.5 95,-24.5"/>
<text text-anchor="middle" x="47.5" y="-12.5" font-family="Helvetica,sans-Serif" font-size="10.00">json11::JsonValue</text>
</a>
</g>
</g>
<!-- Node3&#45;&gt;Node2 -->
<g id="edge2" class="edge">
<title>Node3&#45;&gt;Node2</title>
<path fill="none" stroke="#9a32cd" stroke-dasharray="5,2" d="M106.36,-15C118.87,-15 132.09,-15 144.59,-15"/>
<polygon fill="#9a32cd" stroke="#9a32cd" points="106.64,-11.5 96.64,-15 106.64,-18.5 106.64,-11.5"/>
<text text-anchor="middle" x="120" y="-18" font-family="Helvetica,sans-Serif" font-size="10.00"> ptr</text>
</g>
<!-- Node4 -->
<g id="node4" class="node">
<title>Node4</title>
<g id="a_node4"><a xlink:title=" ">
<polygon fill="white" stroke="#666666" points="391,-138.5 332,-138.5 332,-119.5 391,-119.5 391,-138.5"/>
<text text-anchor="middle" x="361.5" y="-126.5" font-family="Helvetica,sans-Serif" font-size="10.00">std::string</text>
</a>
</g>
</g>
<!-- Node4&#45;&gt;Node1 -->
<g id="edge3" class="edge">
<title>Node4&#45;&gt;Node1</title>
<path fill="none" stroke="#9a32cd" stroke-dasharray="5,2" d="M402.63,-129.33C419.71,-129.28 439.84,-128.96 458,-128 554.85,-122.91 582.35,-128.72 674,-97 687.35,-92.38 701.72,-85.56 712.69,-79.93"/>
<polygon fill="#9a32cd" stroke="#9a32cd" points="402.87,-125.83 392.87,-129.33 402.87,-132.83 402.87,-125.83"/>
<text text-anchor="middle" x="535.5" y="-130" font-family="Helvetica,sans-Serif" font-size="10.00"> empty_string</text>
</g>
<!-- Node8 -->
<g id="node8" class="node">
<title>Node8</title>
<g id="a_node8"><a xlink:title=" ">
<polygon fill="white" stroke="#666666" points="595,-106 476,-106 476,-76 595,-76 595,-106"/>
<text text-anchor="start" x="484" y="-94" font-family="Helvetica,sans-Serif" font-size="10.00">std::map&lt; string, json11</text>
<text text-anchor="middle" x="535.5" y="-83" font-family="Helvetica,sans-Serif" font-size="10.00">::Json &gt;</text>
</a>
</g>
</g>
<!-- Node4&#45;&gt;Node8 -->
<g id="edge9" class="edge">
<title>Node4&#45;&gt;Node8</title>
<path fill="none" stroke="#9a32cd" stroke-dasharray="5,2" d="M402.44,-119.82C406.68,-118.86 410.93,-117.91 415,-117 434.69,-112.61 456.22,-107.9 475.51,-103.71"/>
<polygon fill="#9a32cd" stroke="#9a32cd" points="401.82,-116.38 392.85,-122.01 403.37,-123.2 401.82,-116.38"/>
<text text-anchor="middle" x="436.5" y="-120" font-family="Helvetica,sans-Serif" font-size="10.00"> keys</text>
</g>
<!-- Node5 -->
<g id="node5" class="node">
<title>Node5</title>
<g id="a_node5"><a xlink:title=" ">
<polygon fill="white" stroke="#666666" points="250,-144 157,-144 157,-114 250,-114 250,-144"/>
<text text-anchor="start" x="165" y="-132" font-family="Helvetica,sans-Serif" font-size="10.00">std::basic_string&lt;</text>
<text text-anchor="middle" x="203.5" y="-121" font-family="Helvetica,sans-Serif" font-size="10.00"> Char &gt;</text>
</a>
</g>
</g>
<!-- Node5&#45;&gt;Node4 -->
<g id="edge4" class="edge">
<title>Node5&#45;&gt;Node4</title>
<path fill="none" stroke="#63b8ff" d="M261.84,-129C285.55,-129 312,-129 331.55,-129"/>
<polygon fill="#63b8ff" stroke="#63b8ff" points="261.97,-125.5 251.97,-129 261.97,-132.5 261.97,-125.5"/>
</g>
<!-- Node6 -->
<g id="node6" class="node">
<title>Node6</title>
<g id="a_node6"><a xlink:title=" ">
<polygon fill="white" stroke="#666666" points="584.5,-58 486.5,-58 486.5,-28 584.5,-28 584.5,-58"/>
<text text-anchor="start" x="494.5" y="-46" font-family="Helvetica,sans-Serif" font-size="10.00">std::vector&lt; json11</text>
<text text-anchor="middle" x="535.5" y="-35" font-family="Helvetica,sans-Serif" font-size="10.00">::Json &gt;</text>
</a>
</g>
</g>
<!-- Node6&#45;&gt;Node1 -->
<g id="edge5" class="edge">
<title>Node6&#45;&gt;Node1</title>
<path fill="none" stroke="#9a32cd" stroke-dasharray="5,2" d="M596.07,-50.45C620.28,-53.57 648.49,-57.32 674,-61 679.75,-61.83 685.82,-62.75 691.77,-63.67"/>
<polygon fill="#9a32cd" stroke="#9a32cd" points="596.77,-47.01 586.41,-49.21 595.88,-53.95 596.77,-47.01"/>
<text text-anchor="middle" x="643.5" y="-64" font-family="Helvetica,sans-Serif" font-size="10.00"> empty_vector</text>
</g>
<!-- Node7&#45;&gt;Node6 -->
<g id="edge6" class="edge">
<title>Node7&#45;&gt;Node6</title>
<path fill="none" stroke="#9a32cd" stroke-dasharray="5,2" d="M408.59,-46.66C432.53,-45.96 461.78,-45.11 486.06,-44.41"/>
<polygon fill="#9a32cd" stroke="#9a32cd" points="408.71,-43.15 398.82,-46.94 408.92,-50.15 408.71,-43.15"/>
<text text-anchor="middle" x="436.5" y="-50" font-family="Helvetica,sans-Serif" font-size="10.00"> elements</text>
</g>
<!-- Node7&#45;&gt;Node8 -->
<g id="edge10" class="edge">
<title>Node7&#45;&gt;Node8</title>
<path fill="none" stroke="#9a32cd" stroke-dasharray="5,2" d="M408.34,-59.46C429.01,-64.63 453.68,-70.79 475.69,-76.3"/>
<polygon fill="#9a32cd" stroke="#9a32cd" points="409.33,-56.1 398.78,-57.07 407.63,-62.89 409.33,-56.1"/>
<text text-anchor="middle" x="436.5" y="-73" font-family="Helvetica,sans-Serif" font-size="10.00"> elements</text>
</g>
<!-- Node8&#45;&gt;Node1 -->
<g id="edge8" class="edge">
<title>Node8&#45;&gt;Node1</title>
<path fill="none" stroke="#9a32cd" stroke-dasharray="5,2" d="M606.58,-83.43C635.23,-80.34 667.29,-76.88 691.69,-74.24"/>
<polygon fill="#9a32cd" stroke="#9a32cd" points="606.46,-79.93 596.89,-84.48 607.21,-86.89 606.46,-79.93"/>
<text text-anchor="middle" x="643.5" y="-85" font-family="Helvetica,sans-Serif" font-size="10.00"> empty_map</text>
</g>
</g>
</svg>
