<?xml version="1.0" encoding="UTF-8" standalone="no"?>
<!DOCTYPE svg PUBLIC "-//W3C//DTD SVG 1.1//EN"
 "http://www.w3.org/Graphics/SVG/1.1/DTD/svg11.dtd">
<!-- Generated by graphviz version 7.0.5 (20221223.1930)
 -->
<!-- Title: uranus::ecs::component::Animation Pages: 1 -->
<svg width="350pt" height="357pt"
 viewBox="0.00 0.00 349.50 357.00" xmlns="http://www.w3.org/2000/svg" xmlns:xlink="http://www.w3.org/1999/xlink">
<g id="graph0" class="graph" transform="scale(1 1) rotate(0) translate(4 353)">
<title>uranus::ecs::component::Animation</title>
<!-- Node1 -->
<g id="node1" class="node">
<title>Node1</title>
<g id="a_node1"><a xlink:title=" ">
<polygon fill="#999999" stroke="#666666" points="196,-30 77,-30 77,0 196,0 196,-30"/>
<text text-anchor="start" x="85" y="-18" font-family="Helvetica,sans-Serif" font-size="10.00">uranus::ecs::component</text>
<text text-anchor="middle" x="136.5" y="-7" font-family="Helvetica,sans-Serif" font-size="10.00">::Animation</text>
</a>
</g>
</g>
<!-- Node2 -->
<g id="node2" class="node">
<title>Node2</title>
<g id="a_node2"><a xlink:title=" ">
<polygon fill="white" stroke="#666666" points="205,-118 68,-118 68,-77 205,-77 205,-118"/>
<text text-anchor="start" x="76" y="-106" font-family="Helvetica,sans-Serif" font-size="10.00">std::vector&lt; uranus</text>
<text text-anchor="start" x="76" y="-95" font-family="Helvetica,sans-Serif" font-size="10.00">::ecs::component::Animation</text>
<text text-anchor="middle" x="136.5" y="-84" font-family="Helvetica,sans-Serif" font-size="10.00">Data &gt;</text>
</a>
</g>
</g>
<!-- Node2&#45;&gt;Node1 -->
<g id="edge1" class="edge">
<title>Node2&#45;&gt;Node1</title>
<path fill="none" stroke="#9a32cd" stroke-dasharray="5,2" d="M136.5,-65.14C136.5,-53.14 136.5,-40.02 136.5,-30.37"/>
<polygon fill="#9a32cd" stroke="#9a32cd" points="133,-65.09 136.5,-75.09 140,-65.09 133,-65.09"/>
<text text-anchor="middle" x="161.5" y="-51" font-family="Helvetica,sans-Serif" font-size="10.00"> animations</text>
</g>
<!-- Node3 -->
<g id="node3" class="node">
<title>Node3</title>
<g id="a_node3"><a xlink:href="structuranus_1_1ecs_1_1component_1_1_animation_data.html" target="_top" xlink:title=" ">
<polygon fill="white" stroke="#bfbfbf" points="196,-195 77,-195 77,-165 196,-165 196,-195"/>
<text text-anchor="start" x="85" y="-183" font-family="Helvetica,sans-Serif" font-size="10.00">uranus::ecs::component</text>
<text text-anchor="middle" x="136.5" y="-172" font-family="Helvetica,sans-Serif" font-size="10.00">::AnimationData</text>
</a>
</g>
</g>
<!-- Node3&#45;&gt;Node2 -->
<g id="edge2" class="edge">
<title>Node3&#45;&gt;Node2</title>
<path fill="none" stroke="#9a32cd" stroke-dasharray="5,2" d="M136.5,-153.2C136.5,-141.86 136.5,-128.75 136.5,-118.21"/>
<polygon fill="#9a32cd" stroke="#9a32cd" points="133,-153.09 136.5,-163.09 140,-153.09 133,-153.09"/>
<text text-anchor="middle" x="158" y="-139" font-family="Helvetica,sans-Serif" font-size="10.00"> elements</text>
</g>
<!-- Node4 -->
<g id="node4" class="node">
<title>Node4</title>
<g id="a_node4"><a xlink:title=" ">
<polygon fill="white" stroke="#666666" points="79,-266.5 20,-266.5 20,-247.5 79,-247.5 79,-266.5"/>
<text text-anchor="middle" x="49.5" y="-254.5" font-family="Helvetica,sans-Serif" font-size="10.00">std::string</text>
</a>
</g>
</g>
<!-- Node4&#45;&gt;Node3 -->
<g id="edge3" class="edge">
<title>Node4&#45;&gt;Node3</title>
<path fill="none" stroke="#9a32cd" stroke-dasharray="5,2" d="M68.49,-239.63C83.86,-226.38 105.28,-207.91 119.95,-195.27"/>
<polygon fill="#9a32cd" stroke="#9a32cd" points="66.26,-236.93 60.97,-246.11 70.83,-242.24 66.26,-236.93"/>
<text text-anchor="middle" x="112" y="-216" font-family="Helvetica,sans-Serif" font-size="10.00"> name</text>
</g>
<!-- Node5 -->
<g id="node5" class="node">
<title>Node5</title>
<g id="a_node5"><a xlink:title=" ">
<polygon fill="white" stroke="#666666" points="93,-349 0,-349 0,-319 93,-319 93,-349"/>
<text text-anchor="start" x="8" y="-337" font-family="Helvetica,sans-Serif" font-size="10.00">std::basic_string&lt;</text>
<text text-anchor="middle" x="46.5" y="-326" font-family="Helvetica,sans-Serif" font-size="10.00"> Char &gt;</text>
</a>
</g>
</g>
<!-- Node5&#45;&gt;Node4 -->
<g id="edge4" class="edge">
<title>Node5&#45;&gt;Node4</title>
<path fill="none" stroke="#63b8ff" d="M47.54,-307.06C48.1,-293.04 48.75,-276.63 49.15,-266.79"/>
<polygon fill="#63b8ff" stroke="#63b8ff" points="44.04,-306.89 47.14,-317.03 51.04,-307.17 44.04,-306.89"/>
</g>
<!-- Node6 -->
<g id="node6" class="node">
<title>Node6</title>
<g id="a_node6"><a xlink:href="classengine_1_1_clock.html" target="_top" xlink:title=" ">
<polygon fill="white" stroke="#bfbfbf" points="173.5,-266.5 99.5,-266.5 99.5,-247.5 173.5,-247.5 173.5,-266.5"/>
<text text-anchor="middle" x="136.5" y="-254.5" font-family="Helvetica,sans-Serif" font-size="10.00">engine::Clock</text>
</a>
</g>
</g>
<!-- Node6&#45;&gt;Node3 -->
<g id="edge5" class="edge">
<title>Node6&#45;&gt;Node3</title>
<path fill="none" stroke="#9a32cd" stroke-dasharray="5,2" d="M136.5,-235.75C136.5,-222.95 136.5,-206.72 136.5,-195.27"/>
<polygon fill="#9a32cd" stroke="#9a32cd" points="133,-235.59 136.5,-245.59 140,-235.59 133,-235.59"/>
<text text-anchor="middle" x="149.5" y="-216" font-family="Helvetica,sans-Serif" font-size="10.00"> clock</text>
</g>
<!-- Node7 -->
<g id="node7" class="node">
<title>Node7</title>
<g id="a_node7"><a xlink:title=" ">
<polygon fill="white" stroke="#bfbfbf" points="165.5,-343.5 111.5,-343.5 111.5,-324.5 165.5,-324.5 165.5,-343.5"/>
<text text-anchor="middle" x="138.5" y="-331.5" font-family="Helvetica,sans-Serif" font-size="10.00">sf::Clock</text>
</a>
</g>
</g>
<!-- Node7&#45;&gt;Node6 -->
<g id="edge6" class="edge">
<title>Node7&#45;&gt;Node6</title>
<path fill="none" stroke="#63b8ff" d="M137.96,-312.92C137.56,-297.93 137.04,-278.16 136.74,-266.89"/>
<polygon fill="#63b8ff" stroke="#63b8ff" points="134.46,-312.69 138.22,-322.59 141.45,-312.5 134.46,-312.69"/>
</g>
<!-- Node8 -->
<g id="node8" class="node">
<title>Node8</title>
<g id="a_node8"><a xlink:title=" ">
<polygon fill="white" stroke="#666666" points="341.5,-272 191.5,-272 191.5,-242 341.5,-242 341.5,-272"/>
<text text-anchor="start" x="199.5" y="-260" font-family="Helvetica,sans-Serif" font-size="10.00">std::vector&lt; uranus</text>
<text text-anchor="middle" x="266.5" y="-249" font-family="Helvetica,sans-Serif" font-size="10.00">::ecs::component::FrameData &gt;</text>
</a>
</g>
</g>
<!-- Node8&#45;&gt;Node3 -->
<g id="edge7" class="edge">
<title>Node8&#45;&gt;Node3</title>
<path fill="none" stroke="#9a32cd" stroke-dasharray="5,2" d="M231.74,-235.94C209.59,-223.17 181.43,-206.92 161.49,-195.42"/>
<polygon fill="#9a32cd" stroke="#9a32cd" points="229.71,-238.82 240.12,-240.78 233.21,-232.75 229.71,-238.82"/>
<text text-anchor="middle" x="226" y="-216" font-family="Helvetica,sans-Serif" font-size="10.00"> frames</text>
</g>
<!-- Node9 -->
<g id="node9" class="node">
<title>Node9</title>
<g id="a_node9"><a xlink:href="structuranus_1_1ecs_1_1component_1_1_frame_data.html" target="_top" xlink:title=" ">
<polygon fill="white" stroke="#bfbfbf" points="326,-349 207,-349 207,-319 326,-319 326,-349"/>
<text text-anchor="start" x="215" y="-337" font-family="Helvetica,sans-Serif" font-size="10.00">uranus::ecs::component</text>
<text text-anchor="middle" x="266.5" y="-326" font-family="Helvetica,sans-Serif" font-size="10.00">::FrameData</text>
</a>
</g>
</g>
<!-- Node9&#45;&gt;Node8 -->
<g id="edge8" class="edge">
<title>Node9&#45;&gt;Node8</title>
<path fill="none" stroke="#9a32cd" stroke-dasharray="5,2" d="M266.5,-307.23C266.5,-295.58 266.5,-282.26 266.5,-272.42"/>
<polygon fill="#9a32cd" stroke="#9a32cd" points="263,-307.03 266.5,-317.03 270,-307.03 263,-307.03"/>
<text text-anchor="middle" x="288" y="-293" font-family="Helvetica,sans-Serif" font-size="10.00"> elements</text>
</g>
</g>
</svg>
