<?xml version="1.0" encoding="UTF-8" standalone="no"?>
<!DOCTYPE svg PUBLIC "-//W3C//DTD SVG 1.1//EN"
 "http://www.w3.org/Graphics/SVG/1.1/DTD/svg11.dtd">
<!-- Generated by graphviz version 7.0.5 (20221223.1930)
 -->
<!-- Title: uranus::ecs::component::AnimationData Pages: 1 -->
<svg width="350pt" height="192pt"
 viewBox="0.00 0.00 349.50 192.00" xmlns="http://www.w3.org/2000/svg" xmlns:xlink="http://www.w3.org/1999/xlink">
<g id="graph0" class="graph" transform="scale(1 1) rotate(0) translate(4 188)">
<title>uranus::ecs::component::AnimationData</title>
<!-- Node1 -->
<g id="node1" class="node">
<title>Node1</title>
<g id="a_node1"><a xlink:title=" ">
<polygon fill="#999999" stroke="#666666" points="196,-30 77,-30 77,0 196,0 196,-30"/>
<text text-anchor="start" x="85" y="-18" font-family="Helvetica,sans-Serif" font-size="10.00">uranus::ecs::component</text>
<text text-anchor="middle" x="136.5" y="-7" font-family="Helvetica,sans-Serif" font-size="10.00">::AnimationData</text>
</a>
</g>
</g>
<!-- Node2 -->
<g id="node2" class="node">
<title>Node2</title>
<g id="a_node2"><a xlink:title=" ">
<polygon fill="white" stroke="#666666" points="79,-101.5 20,-101.5 20,-82.5 79,-82.5 79,-101.5"/>
<text text-anchor="middle" x="49.5" y="-89.5" font-family="Helvetica,sans-Serif" font-size="10.00">std::string</text>
</a>
</g>
</g>
<!-- Node2&#45;&gt;Node1 -->
<g id="edge1" class="edge">
<title>Node2&#45;&gt;Node1</title>
<path fill="none" stroke="#9a32cd" stroke-dasharray="5,2" d="M68.49,-74.63C83.86,-61.38 105.28,-42.91 119.95,-30.27"/>
<polygon fill="#9a32cd" stroke="#9a32cd" points="66.26,-71.93 60.97,-81.11 70.83,-77.24 66.26,-71.93"/>
<text text-anchor="middle" x="112" y="-51" font-family="Helvetica,sans-Serif" font-size="10.00"> name</text>
</g>
<!-- Node3 -->
<g id="node3" class="node">
<title>Node3</title>
<g id="a_node3"><a xlink:title=" ">
<polygon fill="white" stroke="#666666" points="93,-184 0,-184 0,-154 93,-154 93,-184"/>
<text text-anchor="start" x="8" y="-172" font-family="Helvetica,sans-Serif" font-size="10.00">std::basic_string&lt;</text>
<text text-anchor="middle" x="46.5" y="-161" font-family="Helvetica,sans-Serif" font-size="10.00"> Char &gt;</text>
</a>
</g>
</g>
<!-- Node3&#45;&gt;Node2 -->
<g id="edge2" class="edge">
<title>Node3&#45;&gt;Node2</title>
<path fill="none" stroke="#63b8ff" d="M47.54,-142.06C48.1,-128.04 48.75,-111.63 49.15,-101.79"/>
<polygon fill="#63b8ff" stroke="#63b8ff" points="44.04,-141.89 47.14,-152.03 51.04,-142.17 44.04,-141.89"/>
</g>
<!-- Node4 -->
<g id="node4" class="node">
<title>Node4</title>
<g id="a_node4"><a xlink:href="classengine_1_1_clock.html" target="_top" xlink:title=" ">
<polygon fill="white" stroke="#bfbfbf" points="173.5,-101.5 99.5,-101.5 99.5,-82.5 173.5,-82.5 173.5,-101.5"/>
<text text-anchor="middle" x="136.5" y="-89.5" font-family="Helvetica,sans-Serif" font-size="10.00">engine::Clock</text>
</a>
</g>
</g>
<!-- Node4&#45;&gt;Node1 -->
<g id="edge3" class="edge">
<title>Node4&#45;&gt;Node1</title>
<path fill="none" stroke="#9a32cd" stroke-dasharray="5,2" d="M136.5,-70.75C136.5,-57.95 136.5,-41.72 136.5,-30.27"/>
<polygon fill="#9a32cd" stroke="#9a32cd" points="133,-70.59 136.5,-80.59 140,-70.59 133,-70.59"/>
<text text-anchor="middle" x="149.5" y="-51" font-family="Helvetica,sans-Serif" font-size="10.00"> clock</text>
</g>
<!-- Node5 -->
<g id="node5" class="node">
<title>Node5</title>
<g id="a_node5"><a xlink:title=" ">
<polygon fill="white" stroke="#bfbfbf" points="165.5,-178.5 111.5,-178.5 111.5,-159.5 165.5,-159.5 165.5,-178.5"/>
<text text-anchor="middle" x="138.5" y="-166.5" font-family="Helvetica,sans-Serif" font-size="10.00">sf::Clock</text>
</a>
</g>
</g>
<!-- Node5&#45;&gt;Node4 -->
<g id="edge4" class="edge">
<title>Node5&#45;&gt;Node4</title>
<path fill="none" stroke="#63b8ff" d="M137.96,-147.92C137.56,-132.93 137.04,-113.16 136.74,-101.89"/>
<polygon fill="#63b8ff" stroke="#63b8ff" points="134.46,-147.69 138.22,-157.59 141.45,-147.5 134.46,-147.69"/>
</g>
<!-- Node6 -->
<g id="node6" class="node">
<title>Node6</title>
<g id="a_node6"><a xlink:title=" ">
<polygon fill="white" stroke="#666666" points="341.5,-107 191.5,-107 191.5,-77 341.5,-77 341.5,-107"/>
<text text-anchor="start" x="199.5" y="-95" font-family="Helvetica,sans-Serif" font-size="10.00">std::vector&lt; uranus</text>
<text text-anchor="middle" x="266.5" y="-84" font-family="Helvetica,sans-Serif" font-size="10.00">::ecs::component::FrameData &gt;</text>
</a>
</g>
</g>
<!-- Node6&#45;&gt;Node1 -->
<g id="edge5" class="edge">
<title>Node6&#45;&gt;Node1</title>
<path fill="none" stroke="#9a32cd" stroke-dasharray="5,2" d="M231.74,-70.94C209.59,-58.17 181.43,-41.92 161.49,-30.42"/>
<polygon fill="#9a32cd" stroke="#9a32cd" points="229.71,-73.82 240.12,-75.78 233.21,-67.75 229.71,-73.82"/>
<text text-anchor="middle" x="226" y="-51" font-family="Helvetica,sans-Serif" font-size="10.00"> frames</text>
</g>
<!-- Node7 -->
<g id="node7" class="node">
<title>Node7</title>
<g id="a_node7"><a xlink:href="structuranus_1_1ecs_1_1component_1_1_frame_data.html" target="_top" xlink:title=" ">
<polygon fill="white" stroke="#bfbfbf" points="326,-184 207,-184 207,-154 326,-154 326,-184"/>
<text text-anchor="start" x="215" y="-172" font-family="Helvetica,sans-Serif" font-size="10.00">uranus::ecs::component</text>
<text text-anchor="middle" x="266.5" y="-161" font-family="Helvetica,sans-Serif" font-size="10.00">::FrameData</text>
</a>
</g>
</g>
<!-- Node7&#45;&gt;Node6 -->
<g id="edge6" class="edge">
<title>Node7&#45;&gt;Node6</title>
<path fill="none" stroke="#9a32cd" stroke-dasharray="5,2" d="M266.5,-142.23C266.5,-130.58 266.5,-117.26 266.5,-107.42"/>
<polygon fill="#9a32cd" stroke="#9a32cd" points="263,-142.03 266.5,-152.03 270,-142.03 263,-142.03"/>
<text text-anchor="middle" x="288" y="-128" font-family="Helvetica,sans-Serif" font-size="10.00"> elements</text>
</g>
</g>
</svg>
