<?xml version="1.0" encoding="UTF-8" standalone="no"?>
<!DOCTYPE svg PUBLIC "-//W3C//DTD SVG 1.1//EN"
 "http://www.w3.org/Graphics/SVG/1.1/DTD/svg11.dtd">
<!-- Generated by graphviz version 7.0.5 (20221223.1930)
 -->
<!-- Title: json11::anonymous_namespace{Tileson.hpp}::JsonParser Pages: 1 -->
<svg width="163pt" height="182pt"
 viewBox="0.00 0.00 163.00 182.00" xmlns="http://www.w3.org/2000/svg" xmlns:xlink="http://www.w3.org/1999/xlink">
<g id="graph0" class="graph" transform="scale(1 1) rotate(0) translate(4 178)">
<title>json11::anonymous_namespace{Tileson.hpp}::JsonParser</title>
<!-- Node1 -->
<g id="node1" class="node">
<title>Node1</title>
<g id="a_node1"><a xlink:title=" ">
<polygon fill="#999999" stroke="#666666" points="155,-30 0,-30 0,0 155,0 155,-30"/>
<text text-anchor="start" x="8" y="-18" font-family="Helvetica,sans-Serif" font-size="10.00">json11::anonymous_namespace</text>
<text text-anchor="middle" x="77.5" y="-7" font-family="Helvetica,sans-Serif" font-size="10.00">{Tileson.hpp}::JsonParser</text>
</a>
</g>
</g>
<!-- Node2 -->
<g id="node2" class="node">
<title>Node2</title>
<g id="a_node2"><a xlink:title=" ">
<polygon fill="white" stroke="#666666" points="107,-107 48,-107 48,-88 107,-88 107,-107"/>
<text text-anchor="middle" x="77.5" y="-95" font-family="Helvetica,sans-Serif" font-size="10.00">std::string</text>
</a>
</g>
</g>
<!-- Node2&#45;&gt;Node1 -->
<g id="edge1" class="edge">
<title>Node2&#45;&gt;Node1</title>
<path fill="none" stroke="#9a32cd" stroke-dasharray="5,2" d="M77.5,-76.45C77.5,-62.14 77.5,-43.22 77.5,-30.39"/>
<polygon fill="#9a32cd" stroke="#9a32cd" points="74,-76.06 77.5,-86.06 81,-76.06 74,-76.06"/>
<text text-anchor="middle" x="84.5" y="-62" font-family="Helvetica,sans-Serif" font-size="10.00"> err</text>
<text text-anchor="middle" x="84.5" y="-51" font-family="Helvetica,sans-Serif" font-size="10.00">str</text>
</g>
<!-- Node3 -->
<g id="node3" class="node">
<title>Node3</title>
<g id="a_node3"><a xlink:title=" ">
<polygon fill="white" stroke="#666666" points="124,-174 31,-174 31,-144 124,-144 124,-174"/>
<text text-anchor="start" x="39" y="-162" font-family="Helvetica,sans-Serif" font-size="10.00">std::basic_string&lt;</text>
<text text-anchor="middle" x="77.5" y="-151" font-family="Helvetica,sans-Serif" font-size="10.00"> Char &gt;</text>
</a>
</g>
</g>
<!-- Node3&#45;&gt;Node2 -->
<g id="edge2" class="edge">
<title>Node3&#45;&gt;Node2</title>
<path fill="none" stroke="#63b8ff" d="M77.5,-132.13C77.5,-123.29 77.5,-113.99 77.5,-107.42"/>
<polygon fill="#63b8ff" stroke="#63b8ff" points="74,-132.08 77.5,-142.08 81,-132.08 74,-132.08"/>
</g>
</g>
</svg>
