<?xml version="1.0" encoding="UTF-8" standalone="no"?>
<!DOCTYPE svg PUBLIC "-//W3C//DTD SVG 1.1//EN"
 "http://www.w3.org/Graphics/SVG/1.1/DTD/svg11.dtd">
<!-- Generated by graphviz version 7.0.5 (20221223.1930)
 -->
<!-- Title: uranus::ecs::component::Collisionable Pages: 1 -->
<svg width="262pt" height="115pt"
 viewBox="0.00 0.00 261.50 115.00" xmlns="http://www.w3.org/2000/svg" xmlns:xlink="http://www.w3.org/1999/xlink">
<g id="graph0" class="graph" transform="scale(1 1) rotate(0) translate(4 111)">
<title>uranus::ecs::component::Collisionable</title>
<!-- Node1 -->
<g id="node1" class="node">
<title>Node1</title>
<g id="a_node1"><a xlink:title=" ">
<polygon fill="#999999" stroke="#666666" points="187,-30 68,-30 68,0 187,0 187,-30"/>
<text text-anchor="start" x="76" y="-18" font-family="Helvetica,sans-Serif" font-size="10.00">uranus::ecs::component</text>
<text text-anchor="middle" x="127.5" y="-7" font-family="Helvetica,sans-Serif" font-size="10.00">::Collisionable</text>
</a>
</g>
</g>
<!-- Node2 -->
<g id="node2" class="node">
<title>Node2</title>
<g id="a_node2"><a xlink:title=" ">
<polygon fill="white" stroke="#666666" points="119,-107 0,-107 0,-77 119,-77 119,-107"/>
<text text-anchor="start" x="8" y="-95" font-family="Helvetica,sans-Serif" font-size="10.00">std::array&lt; bool, LAYER</text>
<text text-anchor="middle" x="59.5" y="-84" font-family="Helvetica,sans-Serif" font-size="10.00">_SIZE &gt;</text>
</a>
</g>
</g>
<!-- Node2&#45;&gt;Node1 -->
<g id="edge1" class="edge">
<title>Node2&#45;&gt;Node1</title>
<path fill="none" stroke="#9a32cd" stroke-dasharray="5,2" d="M80.23,-68.13C91.37,-55.85 104.75,-41.09 114.43,-30.42"/>
<polygon fill="#9a32cd" stroke="#9a32cd" points="77.75,-65.66 73.63,-75.42 82.94,-70.36 77.75,-65.66"/>
<text text-anchor="middle" x="110" y="-51" font-family="Helvetica,sans-Serif" font-size="10.00"> layer</text>
</g>
<!-- Node3 -->
<g id="node3" class="node">
<title>Node3</title>
<g id="a_node3"><a xlink:title=" ">
<polygon fill="white" stroke="#666666" points="253.5,-107 137.5,-107 137.5,-77 253.5,-77 253.5,-107"/>
<text text-anchor="start" x="145.5" y="-95" font-family="Helvetica,sans-Serif" font-size="10.00">std::array&lt; bool, MASK</text>
<text text-anchor="middle" x="195.5" y="-84" font-family="Helvetica,sans-Serif" font-size="10.00">_SIZE &gt;</text>
</a>
</g>
</g>
<!-- Node3&#45;&gt;Node1 -->
<g id="edge2" class="edge">
<title>Node3&#45;&gt;Node1</title>
<path fill="none" stroke="#9a32cd" stroke-dasharray="5,2" d="M174.77,-68.13C163.63,-55.85 150.25,-41.09 140.57,-30.42"/>
<polygon fill="#9a32cd" stroke="#9a32cd" points="172.06,-70.36 181.37,-75.42 177.25,-65.66 172.06,-70.36"/>
<text text-anchor="middle" x="179" y="-51" font-family="Helvetica,sans-Serif" font-size="10.00"> mask</text>
</g>
</g>
</svg>
